<svg version="1.1" xmlns="http://www.w3.org/2000/svg" xmlns:xlink="http://www.w3.org/1999/xlink" width="128.38773" height="48.17532" viewBox="0,0,128.38773,48.17532"><g transform="translate(-166.61228,-130.48589)"><g data-paper-data="{&quot;isPaintingLayer&quot;:true}" fill-rule="nonzero" stroke="none" stroke-linecap="butt" stroke-linejoin="miter" stroke-miterlimit="10" stroke-dasharray="" stroke-dashoffset="0" style="mix-blend-mode: normal"><path d="M166.61228,178.37302v-44.72222h44.72222v44.72222z" fill="#ffffff" stroke-width="0"/><text transform="translate(214.43976,147.83543) scale(0.39884,0.39884)" font-size="40" xml:space="preserve" fill="#ffffff" fill-rule="nonzero" stroke="none" stroke-width="1" stroke-linecap="butt" stroke-linejoin="miter" stroke-miterlimit="10" stroke-dasharray="" stroke-dashoffset="0" font-family="Sans Serif" font-weight="normal" text-anchor="start" style="mix-blend-mode: normal"><tspan x="0" dy="0">epic app</tspan></text><text transform="translate(215.68976,159.06031) scale(0.18434,0.18434)" font-size="40" xml:space="preserve" fill="#ffffff" fill-rule="nonzero" stroke="none" stroke-width="1" stroke-linecap="butt" stroke-linejoin="miter" stroke-miterlimit="10" stroke-dasharray="" stroke-dashoffset="0" font-family="Sans Serif" font-weight="normal" text-anchor="start" style="mix-blend-mode: normal"><tspan x="0" dy="0">by skibidipin2763</tspan></text><path d="M225.06225,178.56359v-14.80342h62.53632v14.80342z" fill="#2eda00" stroke-width="0"/><path d="M217.64466,171.12724c0,-4.09331 3.31829,-7.4116 7.4116,-7.4116c4.09331,0 7.4116,3.31829 7.4116,7.4116c0,4.09331 -3.31829,7.4116 -7.4116,7.4116c-4.09331,0 -7.4116,-3.31829 -7.4116,-7.4116z" fill="#2eda00" stroke-width="0"/><path d="M280.17681,171.24962c0,-4.09331 3.31829,-7.4116 7.4116,-7.4116c4.09331,0 7.41159,3.31829 7.41159,7.4116c0,4.09331 -3.31829,7.4116 -7.41159,7.4116c-4.09331,0 -7.4116,-3.31829 -7.4116,-7.4116z" fill="#2eda00" stroke-width="0"/><text transform="translate(238.56735,173.79) scale(0.22779,0.22779)" font-size="40" xml:space="preserve" fill="#ffffff" fill-rule="nonzero" stroke="none" stroke-width="1" stroke-linecap="butt" stroke-linejoin="miter" stroke-miterlimit="10" stroke-dasharray="" stroke-dashoffset="0" font-family="Sans Serif" font-weight="normal" text-anchor="start" style="mix-blend-mode: normal"><tspan x="0" dy="0">INSTALL</tspan></text><path d="M175.75094,146.0499c0,-0.82843 0.67157,-1.5 1.5,-1.5c0.82843,0 1.5,0.67157 1.5,1.5c0,0.82843 -0.67157,1.5 -1.5,1.5c-0.82843,0 -1.5,-0.67157 -1.5,-1.5z" fill="#9966ff" stroke-width="0.5"/><path d="M203.32237,145.47848c0,-0.82843 0.67157,-1.5 1.5,-1.5c0.82843,0 1.5,0.67157 1.5,1.5c0,0.82843 -0.67157,1.5 -1.5,1.5c-0.82843,0 -1.5,-0.67157 -1.5,-1.5z" fill="#9966ff" stroke-width="0.5"/><path d="M204.67951,154.12133c1.5,0 1.5,1.5 1.5,1.5l-0.05472,0.83004c-0.07636,0.27469 -0.15537,0.54472 -0.23706,0.81046c0.26386,0.00156 0.52779,0.00236 0.79178,0.00236h0.42857c0,0 1.5,0 1.5,1.5c0,1.5 -1.5,1.5 -1.5,1.5h-0.42857c-0.63131,0 -1.26225,-0.00467 -1.89288,-0.01339c-1.33577,3.07923 -3.12445,5.68244 -5.37993,8.6124c-5.15958,5.58137 -16.29901,6.87679 -21.56919,0.60433c-2.21589,-2.6373 -2.90458,-6.707 -3.25328,-10.19727c-0.93617,0.03098 -1.87317,0.07493 -2.81114,0.13386c0,0 -1.49708,0.09357 -1.59064,-1.40351c-0.09357,-1.49708 1.40351,-1.59064 1.40351,-1.59064c10.44639,-0.64962 20.76814,0.5288 31.16553,0.80027c0.17189,-0.50202 0.33276,-1.02139 0.48276,-1.5618l-0.05472,-0.02711c0,0 0,-1.5 1.5,-1.5zM180.09295,167.48941c3.50502,4.14851 8.52666,3.44633 12.89879,1.73439c1.63244,-0.63919 2.97896,-0.92433 4.10345,-2.27292c1.8068,-2.35068 3.27528,-4.43048 4.42846,-6.7782c-7.98977,-0.26441 -15.94044,-1.00772 -23.94079,-0.95982c0.26652,2.82153 0.78708,6.23721 2.51009,8.27655z" fill="#9966ff" stroke-width="0.5"/></g></g></svg>