<svg version="1.1" xmlns="http://www.w3.org/2000/svg" xmlns:xlink="http://www.w3.org/1999/xlink" width="557" height="423.99997" viewBox="0,0,557,423.99997"><defs><linearGradient x1="317.17509" y1="243.40244" x2="317.17509" y2="272.47462" gradientUnits="userSpaceOnUse" id="color-1"><stop offset="0" stop-color="#000000"/><stop offset="1" stop-color="#616161"/></linearGradient><linearGradient x1="41.50591" y1="243.82632" x2="41.50591" y2="272.8985" gradientUnits="userSpaceOnUse" id="color-2"><stop offset="0" stop-color="#000000"/><stop offset="1" stop-color="#616161"/></linearGradient></defs><g transform="translate(38.00751,32.36769)"><g data-paper-data="{&quot;isPaintingLayer&quot;:true}" fill-rule="nonzero" stroke-linejoin="miter" stroke-miterlimit="10" stroke-dasharray="" stroke-dashoffset="0" style="mix-blend-mode: normal"><path d="M-9.25751,363.63228v-88.5h488.5v88.5z" fill="#75baff" stroke="none" stroke-width="0" stroke-linecap="butt"/><path d="M-0.25751,356.05911v-74.92683h72v74.92683z" fill="#42a0ff" stroke="none" stroke-width="0" stroke-linecap="butt"/><path d="M79.74249,356.0957v-74.92683h72v74.92683z" fill="#42a0ff" stroke="none" stroke-width="0" stroke-linecap="butt"/><path d="M159.24249,356.55911v-74.92683h72v74.92683z" fill="#42a0ff" stroke="none" stroke-width="0" stroke-linecap="butt"/><path d="M239.24249,356.5957v-74.92683h72v74.92683z" fill="#42a0ff" stroke="none" stroke-width="0" stroke-linecap="butt"/><path d="M320.74249,356.55911v-74.92683h72v74.92683z" fill="#42a0ff" stroke="none" stroke-width="0" stroke-linecap="butt"/><path d="M400.74249,356.5957v-74.92683h72v74.92683z" fill="#42a0ff" stroke="none" stroke-width="0" stroke-linecap="butt"/><path d="M-38.00751,391.63228v-5h541v5z" fill-opacity="0.45968" fill="#000000" stroke="none" stroke-width="0" stroke-linecap="butt"/><path d="M477.15015,274.48458h-482.32733" fill="none" stroke="#ffffff" stroke-width="2" stroke-linecap="round"/><path d="M302.20258,272.47462l14.97251,-29.07218l14.97251,29.07218z" fill="url(#color-1)" stroke="#fffee0" stroke-width="2" stroke-linecap="butt"/><path d="M26.5334,272.8985l14.97251,-29.07218l14.97251,29.07218z" fill="url(#color-2)" stroke="#fffee0" stroke-width="2" stroke-linecap="butt"/><path d="M-22.00751,-27.36769v-5h541v5z" fill-opacity="0.45968" fill="#000000" stroke="none" stroke-width="0" stroke-linecap="butt"/></g></g></svg>