<svg version="1.1" xmlns="http://www.w3.org/2000/svg" xmlns:xlink="http://www.w3.org/1999/xlink" width="644" height="485" viewBox="0,0,644,485"><defs><linearGradient x1="241.5015" y1="-23.46096" x2="241.5015" y2="461.53904" gradientUnits="userSpaceOnUse" id="color-1"><stop offset="0" stop-color="#1a83e3"/><stop offset="1" stop-color="#000000"/></linearGradient><linearGradient x1="77.5015" y1="80.53904" x2="77.5015" y2="164.53904" gradientUnits="userSpaceOnUse" id="color-2"><stop offset="0" stop-color="#ffc700"/><stop offset="1" stop-color="#ffc700"/></linearGradient><linearGradient x1="240.5015" y1="70.65985" x2="240.5015" y2="447.03904" gradientUnits="userSpaceOnUse" id="color-3"><stop offset="0" stop-color="#22aa00"/><stop offset="1" stop-color="#003f03"/></linearGradient></defs><g transform="translate(81.4985,23.46096)"><g data-paper-data="{&quot;isPaintingLayer&quot;:true}" fill-rule="nonzero" stroke="none" stroke-width="1" stroke-linecap="butt" stroke-linejoin="miter" stroke-miterlimit="10" stroke-dasharray="" stroke-dashoffset="0" style="mix-blend-mode: normal"><path d="M-79.4985,461.53904v-485h642v485z" fill="url(#color-1)"/><path d="M35.5015,122.53904c0,-23.19596 18.80404,-42 42,-42c23.19596,0 42,18.80404 42,42c0,23.19596 -18.80404,42 -42,42c-23.19596,0 -42,-18.80404 -42,-42z" fill="url(#color-2)"/><path d="M-81.4985,179.06244l305.79133,-67.69035c117.20666,-25.94525 239.88195,-1.3924 338.20867,67.69035v0v267.9766h-644z" fill="url(#color-3)"/></g></g></svg>