<svg version="1.1" xmlns="http://www.w3.org/2000/svg" xmlns:xlink="http://www.w3.org/1999/xlink" width="651.1769" height="642.92876" viewBox="0,0,651.1769,642.92876"><defs><linearGradient x1="240" y1="-62.5" x2="240" y2="422.5" gradientUnits="userSpaceOnUse" id="color-1"><stop offset="0" stop-color="#7abfff"/><stop offset="1" stop-color="#255995"/></linearGradient><linearGradient x1="233.57312" y1="202.29957" x2="233.57312" y2="578.67876" gradientUnits="userSpaceOnUse" id="color-2"><stop offset="0" stop-color="#22aa00"/><stop offset="1" stop-color="#003f03"/></linearGradient><linearGradient x1="163.72018" y1="159.04266" x2="172.7593" y2="206.14558" gradientUnits="userSpaceOnUse" id="color-3"><stop offset="0" stop-color="#c7c7c7" stop-opacity="0"/><stop offset="0.25" stop-color="#c8c8c8" stop-opacity="0"/><stop offset="0.15625" stop-color="#c2c2c2" stop-opacity="0"/><stop offset="0.45924" stop-color="#c2c2c2" stop-opacity="0.65"/><stop offset="0.85417" stop-color="#d9d9d9" stop-opacity="0"/></linearGradient></defs><g transform="translate(90.1769,62.5)"><g data-paper-data="{&quot;isPaintingLayer&quot;:true}" fill-rule="nonzero" stroke-linecap="butt" stroke-linejoin="miter" stroke-miterlimit="10" stroke-dasharray="" stroke-dashoffset="0" style="mix-blend-mode: normal"><path d="M-81,422.5v-485h642v485z" fill="url(#color-1)" stroke="none" stroke-width="1"/><path d="M-88.42689,310.70216l305.79133,-67.69035c117.20666,-25.94525 239.88195,-1.3924 338.20867,67.69035v0v267.9766h-644z" fill="url(#color-2)" stroke="#0d6902" stroke-width="3.5"/><path d="M157.49279,231.50223c-0.74542,0.19346 -1.52507,0.25529 -2.33883,0.18545c-0.79174,-0.07489 -1.59296,-0.27673 -2.40356,-0.60488c-0.81623,-0.34956 -1.58746,-0.88661 -2.31353,-1.61053c-0.7263,-0.72451 -1.26495,-1.67288 -1.61605,-2.8454l-1.81801,-7.00504c-0.15932,-0.6139 -0.07094,-1.1751 0.26512,-1.68353c0.35233,-0.53612 0.83546,-0.88377 1.44936,-1.0431c1.34393,-0.2318 2.24139,0.29582 2.69248,1.5829l1.74972,6.74193c0.15846,0.52041 0.3847,0.94139 0.67882,1.26307c0.28834,0.29965 0.5815,0.52747 0.87958,0.68408c0.29252,0.13518 0.57343,0.22566 0.843,0.27269c0.28599,0.01989 0.56038,-0.00492 0.82349,-0.07321c0.26311,-0.06828 0.51493,-0.18004 0.75516,-0.3365c0.2346,-0.17787 0.44702,-0.39639 0.63688,-0.65676c0.1843,-0.2818 0.32967,-0.62343 0.4359,-1.02548c0.10057,-0.42411 0.08257,-0.89915 -0.05396,-1.42524l-1.74972,-6.74193c-0.15932,-0.6139 -0.07094,-1.1751 0.26512,-1.68353c0.35233,-0.53612 0.83546,-0.88377 1.44936,-1.0431c1.34393,-0.2318 2.25242,0.29296 2.72536,1.57436l1.74972,6.74193c0.15846,0.52041 0.38184,0.93037 0.67024,1.23001c0.29412,0.32168 0.59015,0.56052 0.88816,0.71714c0.29252,0.13518 0.57343,0.22566 0.84307,0.27267c0.28599,0.01989 0.56032,-0.00491 0.82343,-0.07319c0.26311,-0.06828 0.51493,-0.18004 0.75516,-0.3365c0.23466,-0.17789 0.44708,-0.3964 0.63688,-0.65676c0.1843,-0.2818 0.32967,-0.62343 0.43596,-1.0255c0.10051,-0.4241 0.08257,-0.89915 -0.05396,-1.42524l-1.74972,-6.74193c-0.15932,-0.6139 -0.071,-1.17509 0.26512,-1.68353c0.35227,-0.5361 0.8354,-0.88376 1.4493,-1.04308c1.34399,-0.23182 2.25242,0.29296 2.72536,1.57436l1.81801,7.00504c0.30725,1.1839 0.30879,2.27166 0.00458,3.26362c-0.28246,0.98566 -0.69518,1.82998 -1.23834,2.53234c-0.5268,0.67524 -1.1288,1.24126 -1.80605,1.6974c-0.65523,0.45108 -1.36649,0.77618 -2.13389,0.97535c-0.74542,0.19346 -1.52501,0.25527 -2.33883,0.18545c-0.79168,-0.07491 -1.59582,-0.28775 -2.41198,-0.63733c-0.15441,-0.05404 -0.30062,-0.12131 -0.43866,-0.20247c-0.10314,0.14375 -0.19812,0.27362 -0.28484,0.39024c-0.54322,0.70238 -1.15326,1.28224 -1.83051,1.73838c-0.65523,0.45108 -1.36649,0.77618 -2.13389,0.97535zM195.99994,219.1917l-2.05701,-7.92595c-0.14226,-0.54814 -0.50126,-0.75919 -1.07701,-0.63317l-11.51065,2.98734c-0.41086,0.13003 -0.72432,0.41025 -0.94021,0.84077c-0.2216,0.40853 -0.34941,0.86292 -0.38335,1.36319c-0.01773,0.47261 0.03311,0.93919 0.15259,1.39958c0.11381,0.43853 0.29628,0.87089 0.5473,1.29721c0.26721,0.39853 0.59993,0.73372 0.99794,1.00491c0.39229,0.24915 0.79669,0.31934 1.21324,0.21124l8.41923,-2.18503c0.6139,-0.15932 1.18605,-0.07384 1.71654,0.25708c0.54653,0.30257 0.89944,0.76062 1.05883,1.37476c0.15939,0.61414 0.07376,1.186 -0.25665,1.71617c-0.30261,0.54713 -0.76098,0.90006 -1.37488,1.05939l-8.28771,2.15089c-1.54047,0.37627 -2.92303,0.2789 -4.14784,-0.2927c-1.20867,-0.59932 -2.16864,-1.36776 -2.88028,-2.30652c-0.6955,-0.96648 -1.19109,-2.01934 -1.48698,-3.15946c-0.28451,-1.09628 -0.34406,-2.22748 -0.17866,-3.39372c0.15966,-1.18809 0.62467,-2.32681 1.39513,-3.41598c0.76469,-1.11114 2.10322,-1.95 4.01553,-2.51649l13.8128,-3.58481c0.6139,-0.15932 1.19418,-0.08759 1.7407,0.21519c0.54085,0.28091 0.90194,0.7254 1.0833,1.33358l2.86787,11.05031c0.15939,0.61414 0.0628,1.18885 -0.28959,1.72472c-0.33591,0.50872 -0.81096,0.84245 -1.42486,1.00177c-1.34393,0.2318 -2.25246,-0.29314 -2.72533,-1.57424zM212.76854,217.12131c-0.59782,0.13162 -1.15639,0.05438 -1.6751,-0.23188c-0.52459,-0.30892 -0.87519,-0.7558 -1.05029,-1.34234l-1.15228,-4.4399l-3.78222,0.98159c-0.61414,0.15939 -1.19416,0.08765 -1.7407,-0.21519c-0.53078,-0.33025 -0.87553,-0.80244 -1.03485,-1.41634c-0.15932,-0.6139 -0.07384,-1.18605 0.25646,-1.71638c0.30317,-0.54675 0.76123,-0.8996 1.37537,-1.05899l3.78222,-0.98159c-0.27021,-1.31063 -0.37535,-2.61724 -0.31541,-3.91989c0.07994,-1.49502 0.49108,-2.84203 1.23282,-4.04087c0.75811,-1.22642 1.89332,-2.08263 3.4056,-2.56877l9.14236,-2.3727c0.59779,-0.13175 1.14822,-0.04056 1.65065,0.27365c0.51942,0.28647 0.86664,0.72286 1.04171,1.30928c0.15932,0.6139 0.08771,1.19415 -0.21485,1.74074c-0.28114,0.54097 -0.72532,0.90198 -1.33378,1.08329l-8.02429,2.08253c-0.82197,0.26012 -1.43015,0.75728 -1.82453,1.49149c-0.39438,0.7342 -0.56066,1.4911 -0.49884,2.27075c0.01557,0.51076 0.07463,1.0103 0.17839,1.49824l11.18135,-2.90188c0.61414,-0.15939 1.18599,-0.07383 1.71678,0.25649c0.54652,0.30277 0.89945,0.76114 1.05877,1.37504c0.15932,0.6139 0.08771,1.19415 -0.21548,1.74084c-0.33029,0.53039 -0.80222,0.87514 -1.41636,1.03453l-11.18135,2.90188l1.15228,4.4399c0.13734,0.61987 0.04076,1.19457 -0.28959,1.72472c-0.33591,0.50872 -0.81133,0.84255 -1.42486,1.00177zM238.54844,210.00981c-1.94654,0.4346 -3.52109,0.36353 -4.72379,-0.21381c-1.20888,-0.59862 -2.16919,-1.36762 -2.88061,-2.30578c-0.7173,-0.96082 -1.21816,-1.98918 -1.50268,-3.08546c-0.29589,-1.14012 -0.37221,-2.29036 -0.22836,-3.45101c0.15959,-1.18814 0.62479,-2.32684 1.39499,-3.41601c0.78657,-1.11675 1.94452,-1.88535 3.47327,-2.3055l12.4972,-3.24338c0.61414,-0.15939 1.18377,-0.08488 1.70825,0.22361c0.54085,0.28091 0.88523,0.70634 1.03317,1.2764c0.15364,0.59198 0.06531,1.15317 -0.265,1.6835c-0.31395,0.50269 -0.7783,0.83384 -1.39244,0.99323l-12.29942,3.19205c-0.4825,0.12522 -0.86721,0.40061 -1.15475,0.82626c-0.2655,0.41993 -0.41784,0.91577 -0.45639,1.48744c-0.01712,0.5661 0.04005,1.10116 0.17093,1.60546c0.14226,0.54814 0.35821,1.06545 0.6485,1.5519c0.31162,0.48052 0.68584,0.83958 1.12202,1.07734c0.45267,0.2106 0.92265,0.26378 1.41087,0.1606l12.29942,-3.19205c0.61414,-0.15939 1.18088,-0.09603 1.69974,0.19085c0.54075,0.28055 0.88232,0.69513 1.02454,1.24315c0.14795,0.57006 0.05396,1.10945 -0.28195,1.61817c-0.31403,0.50239 -0.77827,0.83396 -1.39241,0.99335zM250.30827,198.91902c0.10811,0.41655 0.01524,0.82677 -0.278,1.2305c-0.25484,0.37036 -0.63429,0.62066 -1.13883,0.75161l-10.75396,2.79096c-0.50454,0.13094 -0.96885,0.09962 -1.39367,-0.09435c-0.43051,-0.21589 -0.69952,-0.5322 -0.80763,-0.94875c-0.10243,-0.39469 -0.01835,-0.79093 0.25284,-1.18894c0.27688,-0.37609 0.66729,-0.62949 1.17183,-0.76043l10.75396,-2.79096c0.50454,-0.13094 0.97176,-0.08842 1.40227,0.12748c0.42483,0.19397 0.68875,0.4882 0.79119,0.88289zM254.3305,194.39995c0.14323,-1.16049 0.60026,-2.28538 1.37046,-3.37455c0.78657,-1.11675 1.94452,-1.88535 3.47388,-2.30566l12.36555,-3.20921c0.61414,-0.15939 1.186,-0.07376 1.71617,0.25665c0.54715,0.30267 0.90006,0.76098 1.05939,1.37488c0.15932,0.6139 0.07669,1.19701 -0.24853,1.74948c-0.30826,0.52461 -0.76915,0.86656 -1.3833,1.02595l-12.4972,3.24338c-0.41637,0.10806 -0.73273,0.37734 -0.94905,0.80797c-0.22141,0.40848 -0.36025,0.86573 -0.41588,1.37157c-0.03419,0.50034 0.00307,0.95868 0.11119,1.37529l1.49369,5.75538c0.2097,1.3494 -0.32908,2.24996 -1.61587,2.70091c-0.61414,0.15939 -1.20231,0.10159 -1.76526,-0.17385c-0.54647,-0.30259 -0.89932,-0.76065 -1.05871,-1.37479l-1.48515,-5.7225l0.03306,-0.00858c-0.29589,-1.14012 -0.36405,-2.30424 -0.20444,-3.49232zM293.49971,175.03748c1.12376,-0.26825 2.21225,-0.17633 3.2661,0.27568c1.05322,0.4521 1.96546,1.08123 2.73611,1.8875c0.79269,0.80054 1.45755,1.69276 1.99337,2.67702c0.53641,0.98404 0.94688,2.02423 1.2314,3.12051c0.37554,1.44701 0.51518,2.9319 0.41885,4.45444c-0.07991,1.49515 -0.49606,2.91352 -1.24769,4.25556c-0.72974,1.33571 -1.8507,2.24685 -3.36226,2.73326l-11.47771,2.97879c-1.55222,0.33226 -2.98295,0.09512 -4.29158,-0.71158c-1.3094,-0.80715 -2.36565,-1.85516 -3.16829,-3.14479c-0.7805,-1.29498 -1.35916,-2.66594 -1.7347,-4.11294c-0.37555,-1.44707 -0.52337,-2.91814 -0.44283,-4.41339c0.07425,-1.51694 0.47589,-2.94338 1.20615,-4.27962c0.74539,-1.36356 1.87738,-2.2775 3.39537,-2.74165l0.62455,-0.16209l10.22799,-2.65445zM296.27368,190.32423c0.82146,-0.25959 1.43237,-0.74622 1.83243,-1.45851c0.41655,-0.73944 0.64606,-1.5247 0.68814,-2.35472c0.0421,-0.82995 -0.03928,-1.63963 -0.24412,-2.42889c-0.20485,-0.78933 -0.53566,-1.52256 -0.99241,-2.19966c-0.44041,-0.70479 -1.01113,-1.28212 -1.71339,-1.73171c-0.70165,-0.44975 -1.47484,-0.58841 -2.31896,-0.41613l-9.34014,2.42403c-0.82197,0.26012 -1.43015,0.75728 -1.82453,1.49149c-0.39438,0.7342 -0.62395,1.51922 -0.68747,2.3548c-0.04779,0.80803 0.03075,1.60674 0.2356,2.39607c0.20484,0.78926 0.52747,1.53632 0.96787,2.24106c0.44041,0.70479 1.01119,1.28236 1.71272,1.73163c0.718,0.42211 1.49948,0.54738 2.34412,0.37457zM325.6434,169.04722c0.15932,0.6139 0.07383,1.18599 -0.25646,1.71638c-0.30257,0.54653 -0.76123,0.8996 -1.37476,1.05883l-13.15543,3.41421c-0.41068,0.12998 -0.73593,0.31968 -0.97513,0.569c-0.22347,0.22178 -0.37226,0.45933 -0.447,0.71277c-0.08044,0.23145 -0.0919,0.45676 -0.03499,0.67603c0.05691,0.21927 0.17931,0.42147 0.36787,0.60657c0.18286,0.16318 0.42838,0.29834 0.7372,0.40543c0.32455,0.07955 0.69817,0.07624 1.12023,-0.0099l9.34014,-2.42403c1.54643,-0.35455 2.90106,-0.32 4.06388,0.10366c1.17919,0.39608 2.09106,0.97845 2.73504,1.7474c0.66033,0.74131 1.10715,1.56143 1.34036,2.46005c0.22772,0.87744 0.23607,1.81115 0.02522,2.80176c-0.21641,0.96917 -0.73002,1.92137 -1.54006,2.85704c-0.81576,0.91362 -1.99116,1.56963 -3.52622,1.96802l-0.19716,0.05117c-0.12593,0.05621 -0.25471,0.1014 -0.38636,0.13556l-12.43107,3.22621c-0.61414,0.15939 -1.19415,0.08771 -1.74062,-0.21488c-0.53076,-0.33019 -0.87561,-0.80275 -1.03484,-1.41628c-0.15939,-0.61414 -0.07398,-1.1866 0.25637,-1.71675c0.3032,-0.54663 0.76126,-0.89948 1.37541,-1.05887l13.22095,-3.43121c0.42209,-0.08602 0.7419,-0.25136 0.95974,-0.49481c0.23912,-0.24963 0.39613,-0.50082 0.47089,-0.75419c0.06904,-0.27542 0.07194,-0.53367 0.00933,-0.77492c-0.03976,-0.1532 -0.15932,-0.34444 -0.35925,-0.57338c-0.20562,-0.25086 -0.47355,-0.42706 -0.80381,-0.52859c-0.3088,-0.10703 -0.67425,-0.11754 -1.09631,-0.0314l-9.34014,2.42403c-1.54643,0.35455 -2.90924,0.33382 -4.08841,-0.0622c-1.15713,-0.40173 -2.06333,-0.96225 -2.71797,-1.68163c-0.63827,-0.74697 -1.07183,-1.55883 -1.29944,-2.43583c-0.22192,-0.85509 -0.22179,-1.7561 0.00101,-2.70321c0.21651,-0.96881 0.73292,-1.91022 1.54864,-2.82397c0.81573,-0.91375 1.98543,-1.59174 3.50909,-2.03403l0.19716,-0.05117c0.12596,-0.05609 0.25476,-0.10121 0.38579,-0.13522l12.36616,-3.20937c0.61353,-0.15923 1.186,-0.07376 1.71617,0.25665c0.54654,0.30283 0.89947,0.7612 1.05879,1.3751z" fill="#ffffff" stroke="none" stroke-width="1"/><g fill="#ffffff" stroke="none" stroke-width="1"><path d="M300.11418,163.17874l-7.73405,-30.56342l9.24018,-2.33829l7.73406,30.56348z"/><path d="M292.5072,133.21825c-0.67268,-2.6574 0.86034,-5.3376 3.42321,-5.98614c2.56348,-0.6487 5.18662,0.97978 5.8593,3.6372c0.67208,2.6576 -0.86033,5.33763 -3.42381,5.98633c-2.56348,0.6487 -5.18601,-0.97994 -5.8587,-3.63738z"/><path d="M299.82476,162.32796c-0.67269,-2.65744 0.86033,-5.33763 3.42381,-5.98633c2.56285,-0.6486 5.18601,0.97994 5.85868,3.63732c0.67208,2.6576 -0.86033,5.33763 -3.4238,5.98639c-2.56287,0.64854 -5.18602,-0.98 -5.8587,-3.63738z"/><path d="M335.60573,158.3509l-30.56371,7.73419l-2.33795,-9.24014l30.56308,-7.73409z"/><path d="M336.25096,183.12329l-14.60334,-57.70668l9.24019,-2.33823l14.60263,57.70647z"/><path d="M321.7747,126.0196c-0.67269,-2.65744 0.86033,-5.33763 3.42381,-5.98633c2.56287,-0.64854 5.18601,0.97994 5.8587,3.63738c0.67267,2.65738 -0.86033,5.33763 -3.42381,5.98633c-2.56287,0.64854 -5.18601,-0.97994 -5.8587,-3.63738z"/><path d="M335.97713,181.98006c-0.67264,-2.65726 0.8603,-5.33775 3.42317,-5.98629c2.56348,-0.6487 5.1867,0.98008 5.85934,3.63734c0.67203,2.65742 -0.86041,5.33733 -3.42383,5.98627c-2.56342,0.64894 -5.18665,-0.9799 -5.85868,-3.63732z"/></g><g><path d="M150.89872,211.27455l-10.94642,-46.65542l43.13426,-10.12026l10.94642,46.65542z" fill="#ffffff" stroke="none" stroke-width="1"/><path d="M137.26994,203.32719l-5.78301,-24.64815l66.02183,-15.49021l5.78301,24.64816z" fill="#ffffff" stroke="none" stroke-width="1"/><path d="M168.58947,183.25878c-0.20521,-0.36794 -0.40821,-0.72648 -0.60901,-1.07564c-0.20521,-0.36794 -0.3944,-0.70989 -0.56762,-1.0259c-0.15884,-0.33918 -0.31106,-0.6502 -0.45668,-0.93305c-0.14561,-0.28285 -0.26144,-0.52316 -0.34746,-0.72092l-0.11268,0.02643c0.0109,0.21538 0.01405,0.48214 0.00943,0.80023c0.01417,0.31369 0.01615,0.65995 0.00597,1.0388c0.0086,0.37443 0.00282,0.77206 -0.01733,1.19287c-0.00578,0.39763 -0.02813,0.80904 -0.06705,1.23426l-0.7149,9.11345l-2.81693,0.66092l-7.6834,-14.12721l2.56341,-0.60143l3.97475,7.56735c0.27802,0.50936 0.54883,1.03031 0.81247,1.56285c0.25923,0.51376 0.49528,1.01316 0.70814,1.49817c0.22724,0.46184 0.40149,0.86675 0.52276,1.21474l0.11268,-0.02644c0.00346,-0.23858 0.0031,-0.53568 -0.00109,-0.89134c-0.0042,-0.35565 -0.01279,-0.73008 -0.0258,-1.1233c0.00578,-0.39763 0.01155,-0.79525 0.01733,-1.19287c0.02455,-0.40202 0.04853,-0.76428 0.07193,-1.08679l0.68012,-9.135l2.70426,-0.63448l4.58754,7.89909c0.2328,0.40108 0.47219,0.83035 0.71822,1.28777c0.26479,0.45302 0.5086,0.90105 0.73144,1.3441c0.21843,0.42427 0.38827,0.81041 0.50955,1.15841l0.11268,-0.02643c-0.03734,-0.32807 -0.06415,-0.73785 -0.0804,-1.22938c-0.00188,-0.51471 -0.00319,-1.06917 -0.00392,-1.6634c0.01364,-0.61742 0.0295,-1.22544 0.04755,-1.82408l0.22248,-8.55211l2.53524,-0.59482l-0.65472,16.08352l-2.90143,0.68074z" fill="#000000" stroke="none" stroke-width="1"/><path d="M168.06827,183.56149l-0.00262,-0.00453l-0.00262,-0.00459l0.52645,-0.29361zM167.45782,182.48369l-0.00174,-0.00349l-0.00205,-0.00346l0.52645,-0.2936zM166.88427,181.44697l-0.0092,-0.01679l-0.00809,-0.01732l0.54588,-0.25562zM166.42031,180.50009v0l0.53586,-0.27591zM166.47101,178.91641l0.48974,-0.1149l0.20079,0.46128l-0.55283,0.24048zM165.89393,179.56021l-0.02533,-0.50246l0.48974,-0.1149l0.13769,0.58686zM165.90321,180.35712l-0.00081,-0.01795l0.00043,-0.01802l0.60265,0.00879zM165.90882,181.38257l-0.00042,-0.01501l0.00049,-0.01504l0.60253,0.01621zM165.89145,182.55281l0.00012,-0.01002l0.00044,-0.01001l0.60208,0.02882zM165.82622,183.74868l0.00032,-0.00391l0.00032,-0.00391l0.60018,0.05499zM166.31299,192.95654l-0.03445,0.43902l-0.42871,0.10059l-0.13769,-0.58686zM163.0329,194.15707l-0.44756,0.10501l-0.21967,-0.40386l0.52955,-0.28801zM154.68227,179.73101l-0.37764,-0.69433l0.76949,-0.18054l0.13769,0.58687zM157.63753,178.2547l0.45435,-0.1066l0.217,0.41314l-0.53365,0.28031zM161.22085,186.69772l-0.00223,-0.00424l-0.00225,-0.00427l0.53359,-0.2803zM162.02434,188.24331l-0.0011,-0.00204l-0.0011,-0.00204l0.54031,-0.26747zM162.72968,189.73607l-0.00587,-0.01181l-0.0053,-0.01203l0.5521,-0.24229zM163.93106,191.27155l-0.52847,0.12399l-0.17847,-0.51259l0.56925,-0.19826zM164.50869,190.66701l-0.00662,0.47057l-0.45834,0.10753l-0.13769,-0.58686zM164.50761,189.75983v0l-0.60265,0.00707zM163.27673,188.66352l-0.00057,-0.01432l0.00034,-0.01439l0.60266,0.00879zM163.29385,187.44195l0.00012,-0.01399l0.00075,-0.01395l0.60178,0.03673zM163.36718,186.32031l0.00006,-0.0011l0.60118,0.04473zM164.04735,177.1842l0.03303,-0.44113l0.43046,-0.101l0.13769,0.58686zM167.21511,176.00759l0.43457,-0.10196l0.22432,0.38611l-0.5212,0.30271zM172.46154,184.19083l0.00004,0.00016l-0.52125,0.30256zM172.13801,186.08554l-0.00527,-0.00928l-0.005,-0.00944l0.53082,-0.2855zM172.85414,187.40132l-0.00151,-0.0025l-0.00122,-0.00255l0.53859,-0.27084zM174.03723,188.87069l-0.52847,0.12399l-0.17847,-0.51259l0.56925,-0.19826zM174.61108,188.18932l0.06054,0.53252l-0.52172,0.1224l-0.13769,-0.58686zM173.3294,187.04793l-0.00023,-0.00889l-0.00021,-0.00881l0.60285,-0.00223zM173.32503,185.36536l0.00019,-0.00707l-0.00008,-0.00697l0.60278,0.0133zM174.57818,183.55619l-0.00033,0.00256l-0.60239,-0.0182zM173.59522,174.97279l0.01225,-0.46499l0.45277,-0.10623l0.13769,0.58686zM176.59549,173.80674l0.77231,-0.18121l-0.0323,0.79259l-0.60232,-0.02453zM176.68079,190.50174l-0.01863,0.4576l-0.44602,0.10464l-0.13769,-0.58686zM173.3147,191.74473l-0.43457,0.10196l-0.22431,-0.38605l0.5212,-0.30277zM168.06303,183.55237c-0.20407,-0.36569 -0.4056,-0.72198 -0.60521,-1.06868l1.04529,-0.60109c0.20199,0.3516 0.40646,0.7124 0.61281,1.08258zM167.45402,182.47675c-0.20577,-0.369 -0.39589,-0.71226 -0.56976,-1.02977l1.05717,-0.57947c0.17254,0.31448 0.36083,0.65519 0.56548,1.02204zM166.86696,181.41286c-0.15626,-0.3335 -0.30503,-0.63768 -0.44665,-0.91277l1.07172,-0.5518c0.1496,0.29061 0.30529,0.60846 0.4667,0.95333zM166.42031,180.50009c-0.14906,-0.28959 -0.27124,-0.54246 -0.36445,-0.75634l1.10568,-0.48096c0.07884,0.18165 0.18831,0.40939 0.33049,0.6855zM166.7464,180.09013l-0.11268,0.02643l-0.27538,-1.17372l0.11268,-0.02644zM167.09813,179.4992c0.01164,0.23302 0.01468,0.51384 0.00998,0.83951l-1.2053,-0.01757c0.00455,-0.31052 0.00129,-0.56319 -0.00889,-0.76095zM167.10773,180.30274c0.01477,0.33076 0.01679,0.69172 0.00624,1.0822l-1.20507,-0.03242c0.00982,-0.36721 0.00786,-0.69878 -0.00569,-0.9954zM167.11403,181.3549c0.00892,0.3903 0.00279,0.80225 -0.01784,1.23552l-1.20418,-0.05765c0.01966,-0.40834 0.02509,-0.79164 0.01681,-1.1502zM167.09675,182.57038c-0.00594,0.4141 -0.02931,0.84098 -0.06953,1.28046l-1.20036,-0.11c0.03763,-0.41094 0.05897,-0.80689 0.06459,-1.18804zM167.02787,183.84301l-0.71488,9.11353l-1.20169,-0.09451l0.71492,-9.11335zM165.84983,193.49616l-2.81693,0.66092l-0.27538,-1.17373l2.81693,-0.66092zM162.36567,193.85823l-7.6834,-14.12721l1.0591,-0.57603l7.68345,14.1272zM155.07413,178.85613l2.56341,-0.60143l0.27538,1.17372l-2.56341,0.60143zM158.30887,178.56126l3.97469,7.56736l-1.06718,0.56059l-3.97481,-7.56733zM162.27908,186.1201c0.28188,0.5166 0.55653,1.04463 0.82367,1.58418l-1.08063,0.53495c-0.26014,-0.52553 -0.52712,-1.03939 -0.80128,-1.54151zM163.10056,187.70022c0.26377,0.52257 0.50459,1.03171 0.72213,1.52743l-1.10421,0.48457c-0.20818,-0.47432 -0.43947,-0.96396 -0.69416,-1.46891zM163.81153,189.2038c0.23395,0.47596 0.41927,0.90427 0.55107,1.28262l-1.13849,0.39652c-0.11075,-0.31765 -0.27395,-0.69916 -0.49447,-1.14687zM163.65567,190.09782l0.11268,-0.02643l0.27538,1.17372l-0.11268,0.02644zM163.3034,190.6495c0.00329,-0.23141 0.00299,-0.52297 -0.00109,-0.87552l1.20529,-0.01414c0.0043,0.35875 0.00473,0.66143 0.00109,0.90717zM163.30229,189.77397c-0.00432,-0.35092 -0.01283,-0.72105 -0.02556,-1.11045l1.20484,-0.03984c0.01327,0.39702 0.02196,0.77577 0.02602,1.13616zM163.2765,188.63481c0.00578,-0.39763 0.01155,-0.79524 0.01733,-1.19287l1.2053,0.01757c-0.00578,0.39763 -0.01155,0.79524 -0.01733,1.19287zM163.29471,187.41401c0.02475,-0.4038 0.0488,-0.76841 0.07248,-1.0937l1.20246,0.08724c-0.02311,0.31975 -0.04702,0.67967 -0.07138,1.07991zM163.36723,186.31921l0.68012,-9.135l1.20236,0.08947l-0.68013,9.13501zM164.51085,176.64207l2.70426,-0.63448l0.27538,1.17372l-2.70426,0.63448zM167.874,176.29174l4.58754,7.89909l-1.04241,0.60542l-4.58754,-7.89909zM172.46158,184.19099c0.23643,0.40733 0.47904,0.84233 0.72779,1.30484l-1.06163,0.57099c-0.24328,-0.45234 -0.47948,-0.87585 -0.70865,-1.2707zM173.17911,185.47709c0.27062,0.46335 0.52046,0.92254 0.74948,1.37748l-1.07718,0.54171c-0.21663,-0.43116 -0.45443,-0.86805 -0.71339,-1.31073zM173.92585,186.84952c0.22794,0.44241 0.41014,0.85483 0.54293,1.23605l-1.13849,0.39652c-0.10977,-0.31479 -0.26725,-0.67462 -0.47616,-1.08076zM173.76186,187.69696l0.11268,-0.02644l0.27538,1.17372l-0.11268,0.02644zM173.41336,188.32545c-0.03996,-0.34974 -0.06741,-0.77684 -0.08396,-1.27752l1.20484,-0.03985c0.01594,0.48224 0.04211,0.87485 0.07685,1.18124zM173.32896,187.03024c-0.00171,-0.5153 -0.00313,-1.07023 -0.00395,-1.66487l1.20579,-0.0015c0.00063,0.59382 0.00183,1.14783 0.00387,1.66193zM173.32514,185.35132c0.01389,-0.61902 0.02968,-1.22864 0.04795,-1.82897l1.20477,0.0364c-0.01783,0.59694 -0.03375,1.20337 -0.04715,1.81918zM173.37276,183.5249l0.22248,-8.55211l1.20542,0.03128l-0.22248,8.55211zM174.06025,174.40157l2.53524,-0.59482l0.27538,1.17372l-2.53524,0.59482zM177.3355,174.41813l-0.6547,16.08361l-1.20468,-0.04923l0.65474,-16.08343zM176.21616,191.06399l-2.90144,0.68075l-0.27538,-1.17373l2.90144,-0.68074zM172.65583,191.46064l-4.58756,-7.89915l1.04241,-0.60542l4.58754,7.89903z" fill="#000000" stroke="none" stroke-width="1"/><path d="M176.95225,166.61872c-1.31177,-5.59098 2.15721,-11.18674 7.74819,-12.49851c5.59098,-1.31177 11.18674,2.15721 12.49851,7.74818c1.31177,5.59098 -2.15721,11.18674 -7.74818,12.49852c-5.59098,1.31177 -11.18674,-2.15721 -12.49852,-7.74819z" fill="#ffffff" stroke="none" stroke-width="1"/><path d="M131.17712,177.3586c-1.31177,-5.59098 2.15721,-11.18674 7.74818,-12.49851c5.59098,-1.31177 11.18674,2.15721 12.49851,7.74818c1.31177,5.59098 -2.15721,11.18674 -7.74818,12.49851c-5.59098,1.31177 -11.18674,-2.15721 -12.49851,-7.74818z" fill="#ffffff" stroke="none" stroke-width="1"/><path d="M183.14834,193.02746c-1.31177,-5.59098 2.15721,-11.18674 7.74818,-12.49851c5.59098,-1.31177 11.18674,2.15721 12.49851,7.74818c1.31177,5.59098 -2.15721,11.18674 -7.74818,12.49852c-5.59098,1.31177 -11.18674,-2.15721 -12.49851,-7.74819z" fill="#ffffff" stroke="none" stroke-width="1"/><path d="M137.37322,203.76734c-1.31177,-5.59098 2.15721,-11.18674 7.74818,-12.49851c5.59098,-1.31177 11.18674,2.15721 12.49851,7.74818c1.31177,5.59098 -2.15721,11.18674 -7.74818,12.49852c-5.59098,1.31177 -11.18674,-2.15721 -12.49851,-7.74819z" fill="#ffffff" stroke="none" stroke-width="1"/><path d="M133.08485,185.42445l23.69902,-5.8699" fill="none" stroke="#000000" stroke-width="2"/><path d="M174.69146,175.3528l14.89348,-3.80386" fill="none" stroke="#000000" stroke-width="2.5"/><path d="M139.74836,213.89068l-10.94642,-46.65543l66.02183,-15.49021l10.94642,46.65542z" fill="url(#color-3)" stroke="none" stroke-width="1"/></g></g></g></svg>