<svg version="1.1" xmlns="http://www.w3.org/2000/svg" xmlns:xlink="http://www.w3.org/1999/xlink" width="827" height="589" viewBox="0,0,827,589"><g transform="translate(173.5,127.5)"><g data-paper-data="{&quot;isPaintingLayer&quot;:true}" fill-rule="nonzero" stroke="#000000" stroke-linecap="butt" stroke-linejoin="miter" stroke-miterlimit="10" stroke-dasharray="" stroke-dashoffset="0" style="mix-blend-mode: normal"><path d="M-172.5,460.5v-561h825v561z" fill="#0080ff" stroke-width="2"/><path d="M17,145.5v-132h119v132z" fill-opacity="0.3309" fill="#fffefd" stroke-width="0"/><path d="M17,291.5v-132h119v132z" fill-opacity="0.3309" fill="#fffefd" stroke-width="0"/><path d="M148,232.5v-72h119v72z" fill-opacity="0.3309" fill="#fffefd" stroke-width="0"/><path d="M148,374.5v-132h119v132z" fill-opacity="0.3309" fill="#fffefd" stroke-width="0"/><path d="M283,376.5v-72h119v72z" fill-opacity="0.3309" fill="#fffefd" stroke-width="0"/><path d="M281,293.5v-132h119v132z" fill-opacity="0.3309" fill="#fffefd" stroke-width="0"/><path d="M148,145.5v-72h54v72z" fill-opacity="0.3309" fill="#fffefd" stroke-width="0"/><path d="M212,144.5v-72h54v72z" fill-opacity="0.3309" fill="#fffefd" stroke-width="0"/><path d="M147,58.5v-46h119v46z" fill-opacity="0.3309" fill="#fffefd" stroke-width="0"/><path d="M276,144.5v-132h119v132z" fill-opacity="0.3309" fill="#fffefd" stroke-width="0"/><path d="M15,377.5v-72h119v72z" fill-opacity="0.3309" fill="#fffefd" stroke-width="0"/><path d="M411,87.5v-72h54v72z" fill-opacity="0.3309" fill="#fffefd" stroke-width="0"/><path d="M411,173.5v-72h54v72z" fill-opacity="0.3309" fill="#fffefd" stroke-width="0"/><path d="M417,363.5v-176h54v176z" fill-opacity="0.3309" fill="#fffefd" stroke-width="0"/><path d="M-46,147.5v-134h54v134z" fill-opacity="0.3309" fill="#fffefd" stroke-width="0"/><path d="M-48,377.5v-219h54v219z" fill-opacity="0.3309" fill="#fffefd" stroke-width="0"/><path d="M-4,4.5v-72h54v72z" fill-opacity="0.3309" fill="#fffefd" stroke-width="0"/><path d="M65,4.5v-46h119v46z" fill-opacity="0.3309" fill="#fffefd" stroke-width="0"/><path d="M282,4.5v-132h119v132z" fill-opacity="0.3309" fill="#fffefd" stroke-width="0"/><path d="M194,3.5v-46h76v46z" fill-opacity="0.3309" fill="#fffefd" stroke-width="0"/><path d="M481,364.5v-176h54v176z" fill-opacity="0.3309" fill="#fffefd" stroke-width="0"/></g></g></svg>