<svg xmlns="http://www.w3.org/2000/svg" fill="none" viewBox="0 0 642 485" height="485" width="642">
<rect fill="url(#paint0_linear_613_2)" height="485" width="642"></rect>
<path fill="white" d="M226.16 261C225.749 261 225.432 260.888 225.208 260.664C224.984 260.403 224.872 260.085 224.872 259.712V223.144C224.872 222.733 224.984 222.416 225.208 222.192C225.432 221.931 225.749 221.8 226.16 221.8H249.288C249.699 221.8 250.016 221.931 250.24 222.192C250.464 222.416 250.576 222.733 250.576 223.144V225.272C250.576 225.683 250.464 226 250.24 226.224C250.016 226.448 249.699 226.56 249.288 226.56H230.248V238.824H248.056C248.467 238.824 248.784 238.955 249.008 239.216C249.232 239.44 249.344 239.757 249.344 240.168V242.24C249.344 242.613 249.232 242.931 249.008 243.192C248.784 243.416 248.467 243.528 248.056 243.528H230.248V256.24H249.736C250.147 256.24 250.464 256.352 250.688 256.576C250.912 256.8 251.024 257.117 251.024 257.528V259.712C251.024 260.085 250.912 260.403 250.688 260.664C250.464 260.888 250.147 261 249.736 261H226.16ZM269.537 261.56C266.886 261.56 264.59 261.056 262.649 260.048C260.745 259.003 259.27 257.528 258.225 255.624C257.179 253.683 256.619 251.368 256.545 248.68C256.507 248.12 256.489 247.373 256.489 246.44C256.489 245.507 256.507 244.76 256.545 244.2C256.619 241.512 257.179 239.216 258.225 237.312C259.27 235.371 260.745 233.896 262.649 232.888C264.59 231.843 266.886 231.32 269.537 231.32C271.702 231.32 273.55 231.619 275.081 232.216C276.649 232.813 277.937 233.579 278.945 234.512C279.953 235.445 280.699 236.453 281.185 237.536C281.707 238.619 281.987 239.645 282.025 240.616C282.062 240.989 281.95 241.288 281.689 241.512C281.427 241.736 281.11 241.848 280.737 241.848H278.049C277.675 241.848 277.395 241.773 277.209 241.624C277.022 241.437 276.835 241.139 276.649 240.728C275.977 238.899 275.062 237.611 273.905 236.864C272.747 236.117 271.31 235.744 269.593 235.744C267.353 235.744 265.523 236.435 264.105 237.816C262.723 239.197 261.977 241.419 261.865 244.48C261.827 245.824 261.827 247.131 261.865 248.4C261.977 251.499 262.723 253.739 264.105 255.12C265.523 256.464 267.353 257.136 269.593 257.136C271.31 257.136 272.747 256.763 273.905 256.016C275.062 255.269 275.977 253.981 276.649 252.152C276.835 251.741 277.022 251.461 277.209 251.312C277.395 251.125 277.675 251.032 278.049 251.032H280.737C281.11 251.032 281.427 251.144 281.689 251.368C281.95 251.592 282.062 251.891 282.025 252.264C281.987 253.048 281.819 253.851 281.521 254.672C281.222 255.493 280.737 256.333 280.065 257.192C279.43 258.013 278.627 258.76 277.657 259.432C276.686 260.067 275.51 260.589 274.129 261C272.785 261.373 271.254 261.56 269.537 261.56ZM290.019 261C289.646 261 289.329 260.888 289.067 260.664C288.843 260.403 288.731 260.085 288.731 259.712V222.528C288.731 222.155 288.843 221.856 289.067 221.632C289.329 221.371 289.646 221.24 290.019 221.24H292.651C293.062 221.24 293.379 221.371 293.603 221.632C293.827 221.856 293.939 222.155 293.939 222.528V259.712C293.939 260.085 293.827 260.403 293.603 260.664C293.379 260.888 293.062 261 292.651 261H290.019ZM304.127 261C303.754 261 303.437 260.888 303.175 260.664C302.951 260.403 302.839 260.085 302.839 259.712V233.168C302.839 232.795 302.951 232.496 303.175 232.272C303.437 232.011 303.754 231.88 304.127 231.88H306.815C307.189 231.88 307.487 232.011 307.711 232.272C307.935 232.496 308.047 232.795 308.047 233.168V259.712C308.047 260.085 307.935 260.403 307.711 260.664C307.487 260.888 307.189 261 306.815 261H304.127ZM303.679 226.448C303.306 226.448 302.989 226.336 302.727 226.112C302.503 225.851 302.391 225.533 302.391 225.16V222.136C302.391 221.763 302.503 221.464 302.727 221.24C302.989 220.979 303.306 220.848 303.679 220.848H307.207C307.581 220.848 307.879 220.979 308.103 221.24C308.365 221.464 308.495 221.763 308.495 222.136V225.16C308.495 225.533 308.365 225.851 308.103 226.112C307.879 226.336 307.581 226.448 307.207 226.448H303.679ZM318.293 271.64C317.919 271.64 317.602 271.509 317.341 271.248C317.117 271.024 317.005 270.725 317.005 270.352V233.168C317.005 232.795 317.117 232.496 317.341 232.272C317.602 232.011 317.919 231.88 318.293 231.88H320.869C321.242 231.88 321.541 232.011 321.765 232.272C322.026 232.496 322.157 232.795 322.157 233.168V235.632C323.053 234.4 324.247 233.373 325.741 232.552C327.234 231.731 329.101 231.32 331.341 231.32C333.431 231.32 335.205 231.675 336.661 232.384C338.154 233.093 339.367 234.064 340.301 235.296C341.271 236.528 341.999 237.928 342.485 239.496C342.97 241.064 343.231 242.744 343.269 244.536C343.306 245.133 343.325 245.768 343.325 246.44C343.325 247.112 343.306 247.747 343.269 248.344C343.231 250.099 342.97 251.779 342.485 253.384C341.999 254.952 341.271 256.352 340.301 257.584C339.367 258.779 338.154 259.749 336.661 260.496C335.205 261.205 333.431 261.56 331.341 261.56C329.175 261.56 327.346 261.168 325.853 260.384C324.397 259.563 323.202 258.555 322.269 257.36V270.352C322.269 270.725 322.157 271.024 321.933 271.248C321.709 271.509 321.391 271.64 320.981 271.64H318.293ZM330.165 257.024C332.106 257.024 333.618 256.613 334.701 255.792C335.821 254.933 336.623 253.832 337.109 252.488C337.594 251.107 337.874 249.632 337.949 248.064C337.986 246.981 337.986 245.899 337.949 244.816C337.874 243.248 337.594 241.792 337.109 240.448C336.623 239.067 335.821 237.965 334.701 237.144C333.618 236.285 332.106 235.856 330.165 235.856C328.335 235.856 326.842 236.285 325.685 237.144C324.565 238.003 323.725 239.104 323.165 240.448C322.642 241.755 322.343 243.099 322.269 244.48C322.231 245.077 322.213 245.787 322.213 246.608C322.213 247.429 322.231 248.157 322.269 248.792C322.306 250.099 322.605 251.387 323.165 252.656C323.762 253.925 324.639 254.971 325.797 255.792C326.954 256.613 328.41 257.024 330.165 257.024ZM360.388 261.56C358.297 261.56 356.505 261.299 355.012 260.776C353.519 260.253 352.305 259.619 351.372 258.872C350.439 258.125 349.729 257.379 349.244 256.632C348.796 255.885 348.553 255.288 348.516 254.84C348.479 254.429 348.609 254.112 348.908 253.888C349.207 253.664 349.505 253.552 349.804 253.552H352.268C352.492 253.552 352.66 253.589 352.772 253.664C352.921 253.701 353.108 253.851 353.332 254.112C353.817 254.635 354.359 255.157 354.956 255.68C355.553 256.203 356.281 256.632 357.14 256.968C358.036 257.304 359.137 257.472 360.444 257.472C362.348 257.472 363.916 257.117 365.148 256.408C366.38 255.661 366.996 254.579 366.996 253.16C366.996 252.227 366.735 251.48 366.212 250.92C365.727 250.36 364.831 249.856 363.524 249.408C362.255 248.96 360.5 248.493 358.26 248.008C356.02 247.485 354.247 246.851 352.94 246.104C351.633 245.32 350.7 244.405 350.14 243.36C349.58 242.277 349.3 241.064 349.3 239.72C349.3 238.339 349.711 237.013 350.532 235.744C351.353 234.437 352.548 233.373 354.116 232.552C355.721 231.731 357.719 231.32 360.108 231.32C362.049 231.32 363.711 231.563 365.092 232.048C366.473 232.533 367.612 233.149 368.508 233.896C369.404 234.605 370.076 235.315 370.524 236.024C370.972 236.733 371.215 237.331 371.252 237.816C371.289 238.189 371.177 238.507 370.916 238.768C370.655 238.992 370.356 239.104 370.02 239.104H367.668C367.407 239.104 367.183 239.048 366.996 238.936C366.847 238.824 366.697 238.693 366.548 238.544C366.175 238.059 365.727 237.573 365.204 237.088C364.719 236.603 364.065 236.211 363.244 235.912C362.46 235.576 361.415 235.408 360.108 235.408C358.241 235.408 356.841 235.8 355.908 236.584C354.975 237.368 354.508 238.357 354.508 239.552C354.508 240.261 354.713 240.896 355.124 241.456C355.535 242.016 356.319 242.52 357.476 242.968C358.633 243.416 360.351 243.901 362.628 244.424C365.092 244.909 367.033 245.563 368.452 246.384C369.871 247.205 370.879 248.157 371.476 249.24C372.073 250.323 372.372 251.573 372.372 252.992C372.372 254.56 371.905 255.997 370.972 257.304C370.076 258.611 368.732 259.656 366.94 260.44C365.185 261.187 363.001 261.56 360.388 261.56ZM390.447 261.56C386.602 261.56 383.54 260.384 381.263 258.032C378.986 255.643 377.735 252.395 377.511 248.288C377.474 247.803 377.455 247.187 377.455 246.44C377.455 245.656 377.474 245.021 377.511 244.536C377.66 241.885 378.276 239.571 379.359 237.592C380.442 235.576 381.916 234.027 383.783 232.944C385.687 231.861 387.908 231.32 390.447 231.32C393.284 231.32 395.655 231.917 397.559 233.112C399.5 234.307 400.975 236.005 401.983 238.208C402.991 240.411 403.495 242.987 403.495 245.936V246.888C403.495 247.299 403.364 247.616 403.103 247.84C402.879 248.064 402.58 248.176 402.207 248.176H382.831C382.831 248.213 382.831 248.288 382.831 248.4C382.831 248.512 382.831 248.605 382.831 248.68C382.906 250.211 383.242 251.648 383.839 252.992C384.436 254.299 385.295 255.363 386.415 256.184C387.535 257.005 388.879 257.416 390.447 257.416C391.791 257.416 392.911 257.211 393.807 256.8C394.703 256.389 395.431 255.941 395.991 255.456C396.551 254.933 396.924 254.541 397.111 254.28C397.447 253.795 397.708 253.515 397.895 253.44C398.082 253.328 398.38 253.272 398.791 253.272H401.479C401.852 253.272 402.151 253.384 402.375 253.608C402.636 253.795 402.748 254.075 402.711 254.448C402.674 255.008 402.375 255.699 401.815 256.52C401.255 257.304 400.452 258.088 399.407 258.872C398.362 259.656 397.092 260.309 395.599 260.832C394.106 261.317 392.388 261.56 390.447 261.56ZM382.831 244.312H398.175V244.144C398.175 242.464 397.858 240.971 397.223 239.664C396.626 238.357 395.748 237.331 394.591 236.584C393.434 235.8 392.052 235.408 390.447 235.408C388.842 235.408 387.46 235.8 386.303 236.584C385.183 237.331 384.324 238.357 383.727 239.664C383.13 240.971 382.831 242.464 382.831 244.144V244.312ZM411.087 261C410.714 261 410.396 260.888 410.135 260.664C409.911 260.403 409.799 260.085 409.799 259.712V255.68C409.799 255.307 409.911 255.008 410.135 254.784C410.396 254.523 410.714 254.392 411.087 254.392H415.119C415.492 254.392 415.791 254.523 416.015 254.784C416.276 255.008 416.407 255.307 416.407 255.68V259.712C416.407 260.085 416.276 260.403 416.015 260.664C415.791 260.888 415.492 261 415.119 261H411.087Z"></path>
<defs>
<linearGradient gradientUnits="userSpaceOnUse" y2="485" x2="321" y1="0" x1="321" id="paint0_linear_613_2">
<stop stop-color="#7ABFFF"></stop>
<stop stop-color="#255995" offset="1"></stop>
</linearGradient>
</defs>
</svg>
