<svg version="1.1" xmlns="http://www.w3.org/2000/svg" xmlns:xlink="http://www.w3.org/1999/xlink" width="642" height="485" viewBox="0,0,642,485"><defs><linearGradient x1="241.5015" y1="-23.46096" x2="241.5015" y2="461.53904" gradientUnits="userSpaceOnUse" id="color-1"><stop offset="0" stop-color="#1a83e3"/><stop offset="1" stop-color="#000000"/></linearGradient><linearGradient x1="241.5015" y1="78.53904" x2="241.5015" y2="358.03904" gradientUnits="userSpaceOnUse" id="color-2"><stop offset="0" stop-color="#22aa00"/><stop offset="1" stop-color="#003f03"/></linearGradient><linearGradient x1="77.5015" y1="36.53904" x2="77.5015" y2="120.53904" gradientUnits="userSpaceOnUse" id="color-3"><stop offset="0" stop-color="#ffc700"/><stop offset="1" stop-color="#ffc700"/></linearGradient></defs><g transform="translate(79.4985,23.46096)"><g data-paper-data="{&quot;isPaintingLayer&quot;:true}" fill-rule="nonzero" stroke="none" stroke-width="1" stroke-linecap="butt" stroke-linejoin="miter" stroke-miterlimit="10" stroke-dasharray="" stroke-dashoffset="0" style="mix-blend-mode: normal"><path d="M-79.4985,461.53904v-485h642v485z" fill="url(#color-1)"/><path d="M1.5015,159.03904l227.919,-50.267c87.359,-19.267 178.794,-1.034 252.081,50.267v0v199h-480z" fill="url(#color-2)"/><path d="M35.5015,78.53904c0,-23.19596 18.80404,-42 42,-42c23.19596,0 42,18.80404 42,42c0,23.19596 -18.80404,42 -42,42c-23.19596,0 -42,-18.80404 -42,-42z" fill="url(#color-3)"/></g></g></svg>