<svg version="1.1" xmlns="http://www.w3.org/2000/svg" xmlns:xlink="http://www.w3.org/1999/xlink" width="127.7419" height="18.71329" viewBox="0,0,127.7419,18.71329"><defs><linearGradient x1="185.5" y1="180.00003" x2="294.5" y2="180.00003" gradientUnits="userSpaceOnUse" id="color-1"><stop offset="0" stop-color="#002678"/><stop offset="1" stop-color="#ffffff"/></linearGradient><linearGradient x1="176.66433" y1="179.95733" x2="195.53123" y2="179.95733" gradientUnits="userSpaceOnUse" id="color-2"><stop offset="0" stop-color="#002678"/><stop offset="1" stop-color="#183a85"/></linearGradient><linearGradient x1="285.53933" y1="179.98858" x2="304.40623" y2="179.98858" gradientUnits="userSpaceOnUse" id="color-3"><stop offset="0" stop-color="#eaedf4"/><stop offset="1" stop-color="#ffffff"/></linearGradient></defs><g transform="translate(-176.66433,-170.62008)"><g data-paper-data="{&quot;isPaintingLayer&quot;:true}" fill-rule="nonzero" stroke-width="0" stroke-linecap="butt" stroke-linejoin="miter" stroke-miterlimit="10" stroke-dasharray="" stroke-dashoffset="0" style="mix-blend-mode: normal"><path d="M185.5,189.33337v-18.66667h109v18.66667z" fill="url(#color-1)" stroke="none"/><path d="M195.53123,179.95733c0,5.15682 -4.2235,9.33725 -9.43345,9.33725c-5.20995,0 -9.43345,-4.18043 -9.43345,-9.33725c0,-5.15682 4.2235,-9.33725 9.43345,-9.33725c5.20995,0 9.43345,4.18043 9.43345,9.33725z" fill="url(#color-2)" stroke="#000000"/><path d="M304.40623,179.98858c0,5.13957 -4.2235,9.30601 -9.43345,9.30601c-5.20995,0 -9.43345,-4.16644 -9.43345,-9.30601c0,-5.13957 4.2235,-9.306 9.43345,-9.306c5.20995,0 9.43345,4.16644 9.43345,9.306z" fill="url(#color-3)" stroke="#000000"/></g></g></svg>