<svg version="1.1" xmlns="http://www.w3.org/2000/svg" xmlns:xlink="http://www.w3.org/1999/xlink" width="918" height="666" viewBox="0,0,918,666"><g transform="translate(219,153)"><g data-paper-data="{&quot;isPaintingLayer&quot;:true}" fill-rule="nonzero" stroke-linecap="butt" stroke-linejoin="miter" stroke-miterlimit="10" stroke-dasharray="" stroke-dashoffset="0" style="mix-blend-mode: normal"><path d="M-218,512v-664h916v664z" fill="#000000" stroke="#000000" stroke-width="2"/><text transform="translate(383.25,155.665) scale(0.28783,-0.28783)" font-size="40" xml:space="preserve" data-paper-data="{&quot;index&quot;:null}" fill="#ffffff" fill-rule="nonzero" stroke="#ffffff" stroke-width="2" stroke-linecap="butt" stroke-linejoin="miter" stroke-miterlimit="10" stroke-dasharray="" stroke-dashoffset="0" font-family="Sans Serif" font-weight="normal" text-anchor="start" style="mix-blend-mode: normal"><tspan x="0" dy="0">MT</tspan></text><path d="M116.00561,205.01882l-12.86657,-12.86657l36.99139,-36.99139l12.86657,12.86657z" fill="#ffffff" stroke="none" stroke-width="1"/><path d="M108.07843,169.19608v-18.19608h38.66667v18.19608z" fill="#ffffff" stroke="none" stroke-width="1"/><path d="M103.13916,205.01807c-3.553,-3.553 -3.553,-9.31356 0,-12.86656c3.553,-3.553 9.31356,-3.553 12.86656,0c3.553,3.553 3.553,9.31356 0,12.86656c-3.553,3.553 -9.31356,3.553 -12.86656,0z" fill="#ffffff" stroke="none" stroke-width="1"/><path d="M140.13054,168.0262c-3.553,-3.553 -3.553,-9.31356 0,-12.86656c3.553,-3.553 9.31356,-3.553 12.86656,0c3.553,3.553 3.553,9.31356 0,12.86656c-3.553,3.553 -9.31356,3.553 -12.86656,0z" fill="#ffffff" stroke="none" stroke-width="1"/><path d="M98.98039,160.09804c0,-5.02471 4.07333,-9.09804 9.09804,-9.09804c5.02471,0 9.09804,4.07333 9.09804,9.09804c0,5.02471 -4.07333,9.09804 -9.09804,9.09804c-5.02471,0 -9.09804,-4.07333 -9.09804,-9.09804z" fill="#ffffff" stroke="none" stroke-width="1"/><path d="M137.64706,160.09804c0,-5.02471 4.07333,-9.09804 9.09804,-9.09804c5.02471,0 9.09804,4.07333 9.09804,9.09804c0,5.02471 -4.07333,9.09804 -9.09804,9.09804c-5.02471,0 -9.09804,-4.07333 -9.09804,-9.09804z" fill="#ffffff" stroke="none" stroke-width="1"/><path d="M110.35294,207.86275v-18.19608h38.66667v18.19608z" fill="#ffffff" stroke="none" stroke-width="1"/><path d="M101.2549,198.76471c0,-5.02471 4.07333,-9.09804 9.09804,-9.09804c5.02471,0 9.09804,4.07333 9.09804,9.09804c0,5.02471 -4.07333,9.09804 -9.09804,9.09804c-5.02471,0 -9.09804,-4.07333 -9.09804,-9.09804z" fill="#ffffff" stroke="none" stroke-width="1"/><path d="M139.92157,198.76471c0,-5.02471 4.07333,-9.09804 9.09804,-9.09804c5.02471,0 9.09804,4.07333 9.09804,9.09804c0,5.02471 -4.07333,9.09804 -9.09804,9.09804c-5.02471,0 -9.09804,-4.07333 -9.09804,-9.09804z" fill="#ffffff" stroke="none" stroke-width="1"/><path d="M164.94118,170.33333v-18.19608h38.66667v18.19608z" fill="#ffffff" stroke="none" stroke-width="1"/><path d="M193.37255,201.03922h-18.19608v-47.76471h18.19608z" fill="#ffffff" stroke="none" stroke-width="1"/><path d="M194.5098,161.23529c0,-5.02471 4.07333,-9.09804 9.09804,-9.09804c5.02471,0 9.09804,4.07333 9.09804,9.09804c0,5.02471 -4.07333,9.09804 -9.09804,9.09804c-5.02471,0 -9.09804,-4.07333 -9.09804,-9.09804z" fill="#ffffff" stroke="none" stroke-width="1"/><path d="M155.84314,161.23529c0,-5.02471 4.07333,-9.09804 9.09804,-9.09804c5.02471,0 9.09804,4.07333 9.09804,9.09804c0,5.02471 -4.07333,9.09804 -9.09804,9.09804c-5.02471,0 -9.09804,-4.07333 -9.09804,-9.09804z" fill="#ffffff" stroke="none" stroke-width="1"/><path d="M184.27451,209c-5.02471,0 -9.09804,-4.07333 -9.09804,-9.09804c0,-5.02471 4.07333,-9.09804 9.09804,-9.09804c5.02471,0 9.09804,4.07333 9.09804,9.09804c0,5.02471 -4.07333,9.09804 -9.09804,9.09804z" fill="#ffffff" stroke="none" stroke-width="1"/><path d="M221.80392,165.78431v-13.64706h38.66667v13.64706z" fill="#ffffff" stroke="none" stroke-width="1"/><path d="M221.80392,186.2549v-13.64706h38.66667v13.64706z" fill="#ffffff" stroke="none" stroke-width="1"/><path d="M221.80392,209v-13.64706h38.66667v13.64706z" fill="#ffffff" stroke="none" stroke-width="1"/><path d="M230.90196,198.76471h-18.19608v-38.66667h18.19608z" fill="#ffffff" stroke="none" stroke-width="1"/><path d="M253.64706,158.96078c0,-3.76853 3.055,-6.82353 6.82353,-6.82353c3.76853,0 6.82353,3.055 6.82353,6.82353c0,3.76853 -3.055,6.82353 -6.82353,6.82353c-3.76853,0 -6.82353,-3.055 -6.82353,-6.82353z" fill="#ffffff" stroke="none" stroke-width="1"/><path d="M253.64706,179.43137c0,-3.76853 3.055,-6.82353 6.82353,-6.82353c3.76853,0 6.82353,3.055 6.82353,6.82353c0,3.76853 -3.055,6.82353 -6.82353,6.82353c-3.76853,0 -6.82353,-3.055 -6.82353,-6.82353z" fill="#ffffff" stroke="none" stroke-width="1"/><path d="M253.64706,202.17647c0,-3.76853 3.055,-6.82353 6.82353,-6.82353c3.76853,0 6.82353,3.055 6.82353,6.82353c0,3.76853 -3.055,6.82353 -6.82353,6.82353c-3.76853,0 -6.82353,-3.055 -6.82353,-6.82353z" fill="#ffffff" stroke="none" stroke-width="1"/><path d="M212.70588,161.23529c0,-5.02471 4.07333,-9.09804 9.09804,-9.09804c5.02471,0 9.09804,4.07333 9.09804,9.09804c0,5.02471 -4.07333,9.09804 -9.09804,9.09804c-5.02471,0 -9.09804,-4.07333 -9.09804,-9.09804z" fill="#ffffff" stroke="none" stroke-width="1"/><path d="M221.80392,209c-5.02471,0 -9.09804,-4.07333 -9.09804,-9.09804c0,-5.02471 4.07333,-9.09804 9.09804,-9.09804c5.02471,0 9.09804,4.07333 9.09804,9.09804c0,5.02471 -4.07333,9.09804 -9.09804,9.09804z" fill="#ffffff" stroke="none" stroke-width="1"/><path d="M276.39216,170.33333v-18.19608h38.66667v18.19608z" fill="#ffffff" stroke="none" stroke-width="1"/><path d="M276.39216,209v-18.19608h38.66667v18.19608z" fill="#ffffff" stroke="none" stroke-width="1"/><path d="M285.4902,198.76471h-18.19608v-38.66667h18.19608z" fill="#ffffff" stroke="none" stroke-width="1"/><path d="M305.96078,161.23529c0,-5.02471 4.07333,-9.09804 9.09804,-9.09804c5.02471,0 9.09804,4.07333 9.09804,9.09804c0,5.02471 -4.07333,9.09804 -9.09804,9.09804c-5.02471,0 -9.09804,-4.07333 -9.09804,-9.09804z" fill="#ffffff" stroke="none" stroke-width="1"/><path d="M305.96078,199.90196c0,-5.02471 4.07333,-9.09804 9.09804,-9.09804c5.02471,0 9.09804,4.07333 9.09804,9.09804c0,5.02471 -4.07333,9.09804 -9.09804,9.09804c-5.02471,0 -9.09804,-4.07333 -9.09804,-9.09804z" fill="#ffffff" stroke="none" stroke-width="1"/><path d="M267.29412,161.23529c0,-5.02471 4.07333,-9.09804 9.09804,-9.09804c5.02471,0 9.09804,4.07333 9.09804,9.09804c0,5.02471 -4.07333,9.09804 -9.09804,9.09804c-5.02471,0 -9.09804,-4.07333 -9.09804,-9.09804z" fill="#ffffff" stroke="none" stroke-width="1"/><path d="M276.39216,209c-5.02471,0 -9.09804,-4.07333 -9.09804,-9.09804c0,-5.02471 4.07333,-9.09804 9.09804,-9.09804c5.02471,0 9.09804,4.07333 9.09804,9.09804c0,5.02471 -4.07333,9.09804 -9.09804,9.09804z" fill="#ffffff" stroke="none" stroke-width="1"/><path d="M333.2549,190.80392v-18.19608h38.66667v18.19608z" fill="#ffffff" stroke="none" stroke-width="1"/><path d="M342.35294,198.76471h-18.19608v-38.66667h18.19608z" fill="#ffffff" stroke="none" stroke-width="1"/><path d="M381.01961,198.76471h-18.19608v-38.66667h18.19608z" fill="#ffffff" stroke="none" stroke-width="1"/><path d="M362.82353,161.23529c0,-5.02471 4.07333,-9.09804 9.09804,-9.09804c5.02471,0 9.09804,4.07333 9.09804,9.09804c0,5.02471 -4.07333,9.09804 -9.09804,9.09804c-5.02471,0 -9.09804,-4.07333 -9.09804,-9.09804z" fill="#ffffff" stroke="none" stroke-width="1"/><path d="M362.82353,199.90196c0,-5.02471 4.07333,-9.09804 9.09804,-9.09804c5.02471,0 9.09804,4.07333 9.09804,9.09804c0,5.02471 -4.07333,9.09804 -9.09804,9.09804c-5.02471,0 -9.09804,-4.07333 -9.09804,-9.09804z" fill="#ffffff" stroke="none" stroke-width="1"/><path d="M324.15686,161.23529c0,-5.02471 4.07333,-9.09804 9.09804,-9.09804c5.02471,0 9.09804,4.07333 9.09804,9.09804c0,5.02471 -4.07333,9.09804 -9.09804,9.09804c-5.02471,0 -9.09804,-4.07333 -9.09804,-9.09804z" fill="#ffffff" stroke="none" stroke-width="1"/><path d="M333.2549,209c-5.02471,0 -9.09804,-4.07333 -9.09804,-9.09804c0,-5.02471 4.07333,-9.09804 9.09804,-9.09804c5.02471,0 9.09804,4.07333 9.09804,9.09804c0,5.02471 -4.07333,9.09804 -9.09804,9.09804z" fill="#ffffff" stroke="none" stroke-width="1"/></g></g></svg>