<svg version="1.1" xmlns="http://www.w3.org/2000/svg" xmlns:xlink="http://www.w3.org/1999/xlink" width="918" height="666" viewBox="0,0,918,666"><defs><linearGradient x1="244.63612" y1="123.29668" x2="240" y2="236.70334" gradientUnits="userSpaceOnUse" id="color-1"><stop offset="0" stop-color="#c7c7c7" stop-opacity="0"/><stop offset="0.25" stop-color="#c8c8c8" stop-opacity="0"/><stop offset="0.15625" stop-color="#c2c2c2" stop-opacity="0"/><stop offset="0.45924" stop-color="#c2c2c2" stop-opacity="0.65"/><stop offset="0.85417" stop-color="#d9d9d9" stop-opacity="0"/></linearGradient></defs><g transform="translate(102.5,45)"><g data-paper-data="{&quot;isPaintingLayer&quot;:true}" fill-rule="nonzero" stroke-linecap="butt" stroke-linejoin="miter" stroke-miterlimit="10" stroke-dasharray="" stroke-dashoffset="0" style="mix-blend-mode: normal"><path d="M-101.5,620v-664h916v664z" fill="#000000" stroke="#000000" stroke-width="2"/><path d="M186.86291,236.70333v-113.40667h104.84767v113.40667z" fill="#d9d9d9" stroke="none" stroke-width="1"/><path d="M159.75943,211.02635v-59.91296h160.48113v59.91296z" fill="#d9d9d9" stroke="none" stroke-width="1"/><path d="M242.76455,181.72036c-0.27389,-0.95861 -0.54778,-1.89439 -0.82166,-2.80735c-0.27389,-0.95861 -0.52495,-1.84874 -0.75319,-2.67041c-0.18259,-0.86731 -0.36518,-1.66615 -0.54778,-2.39652c-0.18259,-0.73037 -0.31954,-1.34662 -0.41083,-1.84874h-0.27389c-0.0913,0.50213 -0.22824,1.11838 -0.41083,1.84874c-0.13694,0.73037 -0.31954,1.52921 -0.54778,2.39652c-0.18259,0.86731 -0.41083,1.78027 -0.68472,2.73888c-0.22824,0.91296 -0.50213,1.84874 -0.82166,2.80735l-6.57331,20.61006h-6.84719l-10.06538,-36.70097h6.23095l5.06692,19.58298c0.36518,1.32379 0.70754,2.67041 1.02708,4.03985c0.31954,1.32379 0.59342,2.60193 0.82166,3.83443c0.27389,1.18685 0.45648,2.21393 0.54778,3.08124h0.27389c0.13694,-0.54778 0.29671,-1.2325 0.4793,-2.05416c0.18259,-0.82166 0.36518,-1.68897 0.54778,-2.60193c0.22824,-0.91296 0.45648,-1.82592 0.68472,-2.73888c0.27389,-0.91296 0.52495,-1.73462 0.75319,-2.46499l6.50484,-20.67853h6.57331l6.29942,20.67853c0.31954,1.0499 0.63907,2.16828 0.95861,3.35513c0.36518,1.18685 0.68472,2.35087 0.95861,3.49207c0.27389,1.09555 0.45648,2.07698 0.54778,2.94429h0.27389c0.0913,-0.77602 0.25106,-1.73462 0.4793,-2.87582c0.27389,-1.18685 0.5706,-2.46499 0.89014,-3.83443c0.36518,-1.41509 0.73037,-2.80735 1.09555,-4.17679l5.1354,-19.58298h6.16248l-10.20232,36.70097h-7.05261z" fill="#000000" stroke="none" stroke-width="1"/><path d="M241.40011,182.13604l-0.00357,-0.01184l-0.00357,-0.01198l1.37158,-0.39186zM240.57631,179.32291l-0.00214,-0.00899l-0.00285,-0.00906l1.37158,-0.39186zM239.81527,176.6244l-0.01213,-0.04365l-0.00927,-0.04429l1.39583,-0.29386zM239.25822,174.19208v0l1.3837,-0.346zM240.23109,170.57084h1.19041l0.21326,1.1713l-1.40367,0.2552zM238.55353,171.74214l0.21326,-1.1713h1.19041v1.4265zM238.14412,173.58318l0.00785,-0.0418l0.0107,-0.0413l1.3837,0.346zM237.60277,175.94874l0.00713,-0.03481l0.00927,-0.03438l1.37942,0.36304zM236.93017,178.63548l0.00571,-0.02304l0.00642,-0.02282l1.37158,0.39186zM236.13347,181.35539l0.00285,-0.00884l0.00285,-0.00884l1.35303,0.45113zM232.27765,202.83254l-0.31668,0.99284h-1.04206v-1.4265zM224.07171,203.82539h-1.08792l-0.2878,-1.04919l1.37572,-0.37731zM212.63062,166.07523l-0.49471,-1.80381h1.87043v1.4265zM220.23728,164.27142h1.1044l0.2766,1.06916l-1.38099,0.35734zM223.92906,185.66028l-0.00285,-0.01098l-0.00285,-0.01106l1.38085,-0.35734zM224.94473,189.65547l-0.00143,-0.00528l-0.00143,-0.00528l1.38941,-0.32417zM225.76283,193.47592l-0.00713,-0.03038l-0.00571,-0.0306l1.40296,-0.25977zM227.70073,197.66291h-1.28456l-0.13409,-1.27743l1.41865,-0.14907zM229.35832,196.58234l-0.26961,1.08057h-1.1141v-1.4265zM229.84618,194.49173v0l-1.39226,-0.30948zM227.60301,191.30058l0.00642,-0.03331l0.00856,-0.03295l1.3837,0.346zM228.30271,188.49544l0.00785,-0.03217l0.00927,-0.03174l1.36659,0.4099zM229.07801,185.95093l0.00071,-0.0025l1.36088,0.42802zM235.58356,165.2699l0.31454,-0.99848h1.04634v1.4265zM243.51775,164.27142h1.05632l0.30812,1.01082l-1.36445,0.41568zM251.18161,185.96077v0.00036l-1.36445,0.41533zM249.41204,190.15111l-0.00713,-0.02425l-0.00642,-0.02446l1.37728,-0.37082zM250.35068,193.56964l-0.00214,-0.00656l-0.00143,-0.00656l1.38727,-0.33287zM252.28216,197.59444h-1.28456l-0.13409,-1.27743l1.41865,-0.14907zM253.97256,196.33484l-0.14836,1.2596h-1.26816v-1.4265zM251.63667,193.01238l0.00428,-0.02061l0.00428,-0.0204l1.39012,0.32075zM252.53607,189.13352l0.00428,-0.01619l0.00357,-0.01612l1.38156,0.35648zM256.40117,185.64273l-0.00214,0.00571l-1.378,-0.36754zM258.77629,165.33609l0.27959,-1.06467h1.10054v1.4265zM266.31891,164.27142h1.87727l-0.50284,1.80859l-1.37443,-0.38209zM257.49102,202.78119l-0.29029,1.0442h-1.08414v-1.4265zM249.06397,203.82539h-1.05632l-0.30812,-1.01067l1.36445,-0.41582zM241.39298,182.11222c-0.27246,-0.95283 -0.54421,-1.88262 -0.81667,-2.7893l2.73317,-0.81981c0.27531,0.91924 0.55134,1.86101 0.82666,2.8254zM240.57131,179.30487c-0.2746,-0.96139 -0.52709,-1.85495 -0.75604,-2.68046l2.74886,-0.7636c0.22753,0.81781 0.47716,1.70452 0.75034,2.66035zM239.79387,176.53646c-0.17974,-0.85283 -0.35805,-1.63405 -0.53565,-2.34438l2.76741,-0.69199c0.18758,0.75041 0.37446,1.56687 0.5599,2.44866zM239.25822,174.19208c-0.18687,-0.74777 -0.33166,-1.3964 -0.4308,-1.93954l2.80735,-0.5104c0.08345,0.46112 0.21255,1.04498 0.39086,1.75795zM240.23109,173.42384h-0.27389v-2.853h0.27389zM241.36088,172.25254c-0.09914,0.54314 -0.24393,1.19177 -0.4308,1.93954l-2.76741,-0.69199c0.17831,-0.71296 0.30741,-1.29683 0.39086,-1.75795zM240.94862,174.10899c-0.14479,0.77002 -0.33523,1.60274 -0.5706,2.49666l-2.75885,-0.72609c0.22111,-0.84071 0.39585,-1.60567 0.52495,-2.29638zM240.39443,176.53646c-0.19044,0.90404 -0.42724,1.84981 -0.70897,2.83688l-2.74316,-0.78372c0.26604,-0.93015 0.48572,-1.8103 0.66047,-2.64088zM239.69758,179.32748c-0.23751,0.95083 -0.5221,1.92171 -0.85233,2.91248l-2.70607,-0.90226c0.30884,-0.92644 0.57203,-1.82713 0.79099,-2.70222zM238.85096,182.22227l-6.57331,20.61027l-2.71748,-0.86731l6.57331,-20.60984zM230.91891,203.82539h-6.84719v-2.853h6.84719zM222.696,202.7762l-10.06538,-36.70097l2.75143,-0.75462l10.06552,36.70097zM214.00634,164.27142h6.23095v2.853h-6.23095zM221.61828,165.34058l5.06678,19.58298l-2.7617,0.71468l-5.06707,-19.58298zM226.67935,184.90152c0.37018,1.34255 0.71753,2.70757 1.04134,4.09505l-2.77882,0.64834c-0.31526,-1.35139 -0.65262,-2.67961 -1.01281,-3.98464zM227.71784,188.98602c0.32524,1.34654 0.60484,2.64972 0.83807,3.90939l-2.80592,0.51953c-0.22325,-1.20532 -0.49143,-2.45843 -0.80526,-3.75947zM228.54307,192.83443c0.28173,1.22301 0.47716,2.31 0.57631,3.25292l-2.83731,0.29814c-0.08345,-0.79171 -0.2532,-1.75887 -0.51925,-2.90956zM227.70073,194.80991h0.27389v2.853h-0.27389zM226.59091,195.89049c0.13266,-0.53137 0.28958,-1.20325 0.47074,-2.01771l2.78453,0.61896c-0.18402,0.82887 -0.34664,1.52643 -0.48786,2.09061zM227.06165,193.87277c0.17974,-0.81082 0.36019,-1.66815 0.54136,-2.57219l2.79736,0.55947c-0.18402,0.92187 -0.36875,1.79917 -0.55419,2.63168zM227.61799,191.23432c0.22824,-0.91296 0.45648,-1.82592 0.68472,-2.73888l2.76741,0.69199c-0.22824,0.91296 -0.45648,1.82592 -0.68472,2.73888zM228.31983,188.43154c0.27531,-0.91695 0.5278,-1.74397 0.75818,-2.48061l2.72319,0.85098c-0.2261,0.72416 -0.47574,1.54048 -0.7482,2.44944zM229.07872,185.94843l6.50484,-20.67853l2.72176,0.85604l-6.50484,20.67853zM236.94444,164.27142h6.57331v2.853h-6.57331zM244.88219,165.28224l6.29942,20.67853l-2.72889,0.83136l-6.29942,-20.67853zM251.18161,185.96113c0.32453,1.06624 0.64834,2.19959 0.97145,3.39963l-2.75457,0.74164c-0.31597,-1.17365 -0.63123,-2.27705 -0.94577,-3.31062zM252.13951,189.31204c0.37303,1.21381 0.70041,2.40679 0.98214,3.57873l-2.77454,0.66575c-0.26604,-1.11046 -0.57773,-2.24552 -0.93507,-3.40541zM253.11808,192.87765c0.28601,1.14248 0.48287,2.19117 0.58272,3.14122l-2.83731,0.29814c-0.08274,-0.78457 -0.25106,-1.69875 -0.51283,-2.74737zM252.28216,194.74144h0.27389v2.853h-0.27389zM251.13953,196.00104c0.097,-0.82737 0.26462,-1.8262 0.49713,-2.98866l2.79736,0.55947c-0.22396,1.11966 -0.37588,2.03832 -0.46147,2.76299zM251.64522,192.97137c0.2746,-1.18813 0.57131,-2.46742 0.89085,-3.83785l2.77882,0.64834c-0.31954,1.36844 -0.61625,2.64544 -0.88942,3.83101zM252.54392,189.10121c0.36661,-1.41865 0.73251,-2.81463 1.09912,-4.18784l2.756,0.73507c-0.36376,1.36566 -0.72823,2.75421 -1.09198,4.16573zM253.6409,184.91907l5.1354,-19.58298l2.76028,0.72366l-5.1354,19.58298zM260.15643,164.27142h6.16248v2.853h-6.16248zM267.69334,166.08001l-10.20232,36.70118l-2.74886,-0.7646l10.20232,-36.70075zM256.11659,203.82539h-7.05261v-2.853h7.05261zM247.69953,202.81471l-6.29942,-20.67867l2.72889,-0.83136l6.29942,20.67839z" fill="#000000" stroke="none" stroke-width="1"/><path d="M271.02635,147.90377c0,-13.59013 11.01698,-24.60711 24.60711,-24.60711c13.59013,0 24.60711,11.01698 24.60711,24.60711c0,13.59013 -11.01698,24.60711 -24.60711,24.60711c-13.59013,0 -24.60711,-11.01698 -24.60711,-24.60711z" fill="#d9d9d9" stroke="none" stroke-width="1"/><path d="M159.75943,147.90377c0,-13.59013 11.01698,-24.60711 24.60711,-24.60711c13.59013,0 24.60711,11.01698 24.60711,24.60711c0,13.59013 -11.01698,24.60711 -24.60711,24.60711c-13.59013,0 -24.60711,-11.01698 -24.60711,-24.60711z" fill="#d9d9d9" stroke="none" stroke-width="1"/><path d="M271.02635,212.09623c0,-13.59013 11.01698,-24.60711 24.60711,-24.60711c13.59013,0 24.60711,11.01698 24.60711,24.60711c0,13.59013 -11.01698,24.60711 -24.60711,24.60711c-13.59013,0 -24.60711,-11.01698 -24.60711,-24.60711z" fill="#d9d9d9" stroke="none" stroke-width="1"/><path d="M159.75943,212.09623c0,-13.59013 11.01698,-24.60711 24.60711,-24.60711c13.59013,0 24.60711,11.01698 24.60711,24.60711c0,13.59013 -11.01698,24.60711 -24.60711,24.60711c-13.59013,0 -24.60711,-11.01698 -24.60711,-24.60711z" fill="#d9d9d9" stroke="none" stroke-width="1"/><path d="M217.56788,166.80467l-57.77321,0.71325" fill="none" stroke="#000000" stroke-width="5"/><path d="M297.4658,166.09106l-36.3693,0.71311" fill="none" stroke="#000000" stroke-width="5"/><path d="M159.75944,236.70334v-113.40667h160.48113v113.40667z" fill="url(#color-1)" stroke="none" stroke-width="1"/></g></g></svg>