<svg version="1.1" xmlns="http://www.w3.org/2000/svg" xmlns:xlink="http://www.w3.org/1999/xlink" width="65.94765" height="65.94765" viewBox="0,0,65.94765,65.94765"><defs><linearGradient x1="240" y1="147.02618" x2="240" y2="212.97382" gradientUnits="userSpaceOnUse" id="color-1"><stop offset="0" stop-color="#ffffff"/><stop offset="1" stop-color="#808080"/></linearGradient><linearGradient x1="239.99999" y1="162.15703" x2="239.99999" y2="175.28946" gradientUnits="userSpaceOnUse" id="color-2"><stop offset="0" stop-color="#444444"/><stop offset="1" stop-color="#8c8c8c"/></linearGradient><linearGradient x1="225.29738" y1="162.15703" x2="225.29738" y2="174.71848" gradientUnits="userSpaceOnUse" id="color-3"><stop offset="0" stop-color="#444444"/><stop offset="1" stop-color="#8b8b8b"/></linearGradient><linearGradient x1="239.99999" y1="182.42666" x2="239.99999" y2="195.55908" gradientUnits="userSpaceOnUse" id="color-4"><stop offset="0" stop-color="#8d8d8d"/><stop offset="1" stop-color="#464646"/></linearGradient><linearGradient x1="255.02909" y1="182.75313" x2="255.02909" y2="195.31458" gradientUnits="userSpaceOnUse" id="color-5"><stop offset="0" stop-color="#8d8d8d"/><stop offset="1" stop-color="#444444"/></linearGradient></defs><g transform="translate(-207.02618,-147.02618)"><g data-paper-data="{&quot;isPaintingLayer&quot;:true}" fill-rule="nonzero" stroke="none" stroke-width="1" stroke-linecap="butt" stroke-linejoin="miter" stroke-miterlimit="10" stroke-dasharray="" stroke-dashoffset="0" style="mix-blend-mode: normal"><path d="M207.02618,180c0,-18.21094 14.76289,-32.97382 32.97382,-32.97382c18.21094,0 32.97382,14.76289 32.97382,32.97382c0,18.21094 -14.76289,32.97382 -32.97382,32.97382c-18.21094,0 -32.97382,-14.76289 -32.97382,-32.97382z" fill="url(#color-1)"/><path d="M225.29738,175.28946v-13.13243h29.40523v13.13243z" fill="url(#color-2)"/><path d="M248.42189,168.43775c0,-3.46875 2.81198,-6.28072 6.28073,-6.28072c3.46875,0 6.28072,2.81197 6.28072,6.28072c0,3.46875 -2.81197,6.28073 -6.28072,6.28073c-3.46875,0 -6.28073,-2.81198 -6.28073,-6.28073z" fill="#e60000"/><path d="M219.01666,168.43775c0,-3.46875 2.81198,-6.28072 6.28072,-6.28072c3.46875,0 6.28072,2.81197 6.28072,6.28072c0,3.46875 -2.81197,6.28073 -6.28072,6.28073c-3.46875,0 -6.28072,-2.81198 -6.28072,-6.28073z" fill="url(#color-3)"/><path d="M225.29738,195.55908v-13.13243h29.40523v13.13243z" fill="url(#color-4)"/><path d="M248.74836,189.03385c0,-3.46875 2.81198,-6.28072 6.28073,-6.28072c3.46875,0 6.28072,2.81197 6.28072,6.28072c0,3.46875 -2.81197,6.28073 -6.28072,6.28073c-3.46875,0 -6.28073,-2.81198 -6.28073,-6.28073z" fill="url(#color-5)"/><path d="M219.01666,188.70738c0,-3.46875 2.81198,-6.28072 6.28072,-6.28072c3.46875,0 6.28072,2.81197 6.28072,6.28072c0,3.46875 -2.81197,6.28073 -6.28072,6.28073c-3.46875,0 -6.28072,-2.81198 -6.28072,-6.28073z" fill="#00dd09"/></g></g></svg>