<svg version="1.1" xmlns="http://www.w3.org/2000/svg" xmlns:xlink="http://www.w3.org/1999/xlink" width="62.77644" height="65.10934" viewBox="0,0,62.77644,65.10934"><defs><linearGradient x1="240" y1="147.44533" x2="240" y2="212.55467" gradientUnits="userSpaceOnUse" id="color-1"><stop offset="0" stop-color="#0099d9"/><stop offset="1" stop-color="#0057d9"/></linearGradient><linearGradient x1="214.83333" y1="180" x2="265.16667" y2="180" gradientUnits="userSpaceOnUse" id="color-2"><stop offset="0" stop-color="#257900"/><stop offset="1" stop-color="#ffffff"/></linearGradient></defs><g transform="translate(-208.61178,-147.44533)"><g data-paper-data="{&quot;isPaintingLayer&quot;:true}" fill-rule="nonzero" stroke="#000000" stroke-width="0" stroke-linecap="butt" stroke-linejoin="miter" stroke-miterlimit="10" stroke-dasharray="" stroke-dashoffset="0" style="mix-blend-mode: normal"><path d="M240,212.55467c-17.33523,0 -31.38822,-14.57522 -31.38822,-32.55467c0,-17.97945 14.05298,-32.55467 31.38822,-32.55467c17.33523,0 31.38822,14.57522 31.38822,32.55467c0,17.97945 -14.05298,32.55467 -31.38822,32.55467z" fill="url(#color-1)"/><path d="M214.83333,180c0,-13.89917 11.2675,-25.16667 25.16667,-25.16667c13.89917,0 25.16667,11.2675 25.16667,25.16667c0,13.89917 -11.2675,25.16667 -25.16667,25.16667c-13.89917,0 -25.16667,-11.2675 -25.16667,-25.16667z" fill="url(#color-2)"/></g></g></svg>