<svg version="1.1" xmlns="http://www.w3.org/2000/svg" xmlns:xlink="http://www.w3.org/1999/xlink" width="224.42635" height="48.17533" viewBox="0,0,224.42635,48.17533"><g transform="translate(-166.61228,-130.48589)"><g data-paper-data="{&quot;isPaintingLayer&quot;:true}" fill-rule="nonzero" stroke="none" stroke-linecap="butt" stroke-linejoin="miter" stroke-miterlimit="10" stroke-dasharray="" stroke-dashoffset="0" style="mix-blend-mode: normal"><path d="M166.61228,178.37302v-44.72222h44.72222v44.72222z" fill="#ffffff" stroke-width="0"/><text transform="translate(214.43976,147.83543) scale(0.39884,0.39884)" font-size="40" xml:space="preserve" fill="#ffffff" fill-rule="nonzero" stroke="none" stroke-width="1" stroke-linecap="butt" stroke-linejoin="miter" stroke-miterlimit="10" stroke-dasharray="" stroke-dashoffset="0" font-family="Sans Serif" font-weight="normal" text-anchor="start" style="mix-blend-mode: normal"><tspan x="0" dy="0">AMDIN APP OHMAGAD</tspan></text><text transform="translate(215.68976,159.06031) scale(0.18434,0.18434)" font-size="40" xml:space="preserve" fill="#ffffff" fill-rule="nonzero" stroke="none" stroke-width="1" stroke-linecap="butt" stroke-linejoin="miter" stroke-miterlimit="10" stroke-dasharray="" stroke-dashoffset="0" font-family="Sans Serif" font-weight="normal" text-anchor="start" style="mix-blend-mode: normal"><tspan x="0" dy="0">by zTech</tspan></text><path d="M225.06225,178.56359v-14.80342h62.53632v14.80342z" fill="#2eda00" stroke-width="0"/><path d="M217.64466,171.12724c0,-4.09331 3.31829,-7.4116 7.4116,-7.4116c4.09331,0 7.4116,3.31829 7.4116,7.4116c0,4.09331 -3.31829,7.4116 -7.4116,7.4116c-4.09331,0 -7.4116,-3.31829 -7.4116,-7.4116z" fill="#2eda00" stroke-width="0"/><path d="M280.17681,171.24962c0,-4.09331 3.31829,-7.4116 7.4116,-7.4116c4.09331,0 7.41159,3.31829 7.41159,7.4116c0,4.09331 -3.31829,7.4116 -7.41159,7.4116c-4.09331,0 -7.4116,-3.31829 -7.4116,-7.4116z" fill="#2eda00" stroke-width="0"/><text transform="translate(238.56735,173.79) scale(0.22779,0.22779)" font-size="40" xml:space="preserve" fill="#ffffff" fill-rule="nonzero" stroke="none" stroke-width="1" stroke-linecap="butt" stroke-linejoin="miter" stroke-miterlimit="10" stroke-dasharray="" stroke-dashoffset="0" font-family="Sans Serif" font-weight="normal" text-anchor="start" style="mix-blend-mode: normal"><tspan x="0" dy="0">INSTALL</tspan></text><path d="M175.75094,146.0499c0,-0.82843 0.67157,-1.5 1.5,-1.5c0.82843,0 1.5,0.67157 1.5,1.5c0,0.82843 -0.67157,1.5 -1.5,1.5c-0.82843,0 -1.5,-0.67157 -1.5,-1.5z" fill="#9966ff" stroke-width="0.5"/><path d="M203.32237,145.47848c0,-0.82843 0.67157,-1.5 1.5,-1.5c0.82843,0 1.5,0.67157 1.5,1.5c0,0.82843 -0.67157,1.5 -1.5,1.5c-0.82843,0 -1.5,-0.67157 -1.5,-1.5z" fill="#9966ff" stroke-width="0.5"/><path d="M174.1068,173.63889c-1.5,0 -1.5,-1.5 -1.5,-1.5l0.05472,-0.83004c0.07636,-0.27469 0.15537,-0.54472 0.23706,-0.81046c-0.26386,-0.00156 -0.52779,-0.00236 -0.79178,-0.00236h-0.42857c0,0 -1.5,0 -1.5,-1.5c0,-1.5 1.5,-1.5 1.5,-1.5h0.42857c0.63131,0 1.26225,0.00467 1.89288,0.01339c1.33577,-3.07923 3.12445,-5.68244 5.37993,-8.6124c5.15958,-5.58137 16.29901,-6.87679 21.56919,-0.60433c2.21589,2.6373 2.90458,6.707 3.25328,10.19727c0.93617,-0.03098 1.87317,-0.07493 2.81114,-0.13386c0,0 1.49708,-0.09357 1.59064,1.40351c0.09357,1.49708 -1.40351,1.59064 -1.40351,1.59064c-10.44639,0.64962 -20.76814,-0.5288 -31.16553,-0.80027c-0.17189,0.50202 -0.33276,1.02139 -0.48276,1.5618l0.05472,0.02711c0,0 0,1.5 -1.5,1.5zM198.69336,160.27081c-3.50502,-4.14851 -8.52666,-3.44633 -12.89879,-1.73439c-1.63244,0.63919 -2.97896,0.92433 -4.10345,2.27292c-1.8068,2.35068 -3.27528,4.43048 -4.42846,6.7782c7.98977,0.26441 15.94044,1.00772 23.94079,0.95982c-0.26652,-2.82153 -0.78708,-6.23721 -2.51009,-8.27655z" fill="#9966ff" stroke-width="0.5"/><path d="M247.6148,160.27179v-7.67442h32.7907v7.67442z" fill="#ffffff" stroke-width="0"/><text transform="translate(250.76333,158.22408) scale(0.14886,0.14886)" font-size="40" xml:space="preserve" fill="#000000" fill-rule="nonzero" stroke="none" stroke-width="1" stroke-linecap="butt" stroke-linejoin="miter" stroke-miterlimit="10" stroke-dasharray="" stroke-dashoffset="0" font-family="Sans Serif" font-weight="normal" text-anchor="start" style="mix-blend-mode: normal"><tspan x="0" dy="0">OFFICIAL</tspan></text><path d="M171.90295,150.0954c0.50259,2.36711 7.57051,-2.12156 7.37705,1.36066c-0.1738,3.12848 -7.22744,2.74287 -8.99981,1.25987c-2.91489,-2.43899 -1.08645,-9.11628 1.60513,-11.20144c0.43668,-0.33829 2.66395,-2.16551 3.33074,-1.87717c0.05464,-0.00603 0.11016,-0.00913 0.1664,-0.00913c0.82843,0 1.5,0.67157 1.5,1.5c0,0.74299 -0.54019,1.35981 -1.24925,1.47913c-1.37014,1.70907 -4.57937,3.4889 -3.73026,7.48808z" fill="#9966ff" stroke-width="0.5"/><path d="M204.22057,141.40483c0.48616,-0.85079 1.19533,-1.30573 1.95497,-1.42976c1.41349,-0.23079 3.0017,0.68417 3.65307,2.32656c1.04723,2.64056 0.77905,6.62639 0.20898,8.90668c-0.79728,3.18912 -8.32229,2.1683 -6.48722,-0.58431c0.66447,-0.9967 3.2809,0.49229 3.52881,-0.67967c0.45662,-2.15858 0.9826,-4.69172 -0.09252,-6.6184c-0.4395,-0.78761 -1.67385,-0.0097 -2.02739,-0.62839z" fill="#9966ff" stroke-width="0.5"/></g></g></svg>