<svg version="1.1" xmlns="http://www.w3.org/2000/svg" xmlns:xlink="http://www.w3.org/1999/xlink" width="75.15901" height="118.3598" viewBox="0,0,75.15901,118.3598"><defs><linearGradient x1="240" y1="145.72419" x2="240" y2="214.27581" gradientUnits="userSpaceOnUse" id="color-1"><stop offset="0" stop-color="#0024a4"/><stop offset="1" stop-color="#0035f2" stop-opacity="0.46"/></linearGradient><linearGradient x1="221.77892" y1="186.99196" x2="259.49462" y2="186.99196" gradientUnits="userSpaceOnUse" id="color-2"><stop offset="0" stop-color="#ffffff"/><stop offset="1" stop-color="#727272"/></linearGradient><linearGradient x1="223.81932" y1="165.19956" x2="256.97239" y2="165.19956" gradientUnits="userSpaceOnUse" id="color-3"><stop offset="0" stop-color="#ffffff"/><stop offset="1" stop-color="#727272"/></linearGradient></defs><g transform="translate(-199.1168,-123.13545)"><g data-paper-data="{&quot;isPaintingLayer&quot;:true}" fill-rule="nonzero" stroke-linejoin="miter" stroke-miterlimit="10" stroke-dasharray="" stroke-dashoffset="0" style="mix-blend-mode: normal"><text transform="translate(214.57469,235.24525) scale(0.5,0.5)" font-size="40" xml:space="preserve" fill="#000000" fill-rule="nonzero" stroke="none" stroke-width="1" stroke-linecap="butt" stroke-linejoin="miter" stroke-miterlimit="10" stroke-dasharray="" stroke-dashoffset="0" font-family="Sans Serif" font-weight="normal" text-anchor="start" style="mix-blend-mode: normal"><tspan x="0" dy="0">Store</tspan></text><path d="M205.72419,180c0,-18.93 15.3458,-34.27581 34.27581,-34.27581c18.93,0 34.27581,15.3458 34.27581,34.27581c0,18.93 -15.3458,34.27581 -34.27581,34.27581c-18.93,0 -34.27581,-15.3458 -34.27581,-34.27581z" fill="url(#color-1)" stroke="none" stroke-width="1" stroke-linecap="butt"/><path d="M221.77892,202.15813v-30.33235h37.7157v30.33235z" fill="url(#color-2)" stroke="none" stroke-width="0" stroke-linecap="butt"/><path d="M223.81932,171.75545c0,0 0.32055,-5.66344 5.02693,-9.54612c2.75155,-2.26998 9.73798,-3.67073 11.79745,-3.66458c2.3471,0.00701 8.163,1.27406 11.21264,4.0732c4.05311,3.72019 5.11606,9.23648 5.11606,9.23648" fill="none" stroke="url(#color-3)" stroke-width="4.5" stroke-linecap="round"/><text transform="translate(199.3668,144.88545) scale(0.5,0.5)" font-size="40" xml:space="preserve" fill="#000000" fill-rule="nonzero" stroke="none" stroke-width="1" stroke-linecap="butt" stroke-linejoin="miter" stroke-miterlimit="10" stroke-dasharray="" stroke-dashoffset="0" font-family="Sans Serif" font-weight="normal" text-anchor="start" style="mix-blend-mode: normal"><tspan x="0" dy="0"> </tspan></text></g></g></svg>