<svg version="1.1" xmlns="http://www.w3.org/2000/svg" xmlns:xlink="http://www.w3.org/1999/xlink" width="65.20281" height="65.20281" viewBox="0,0,65.20281,65.20281"><defs><linearGradient x1="240" y1="147.39859" x2="240" y2="212.60141" gradientUnits="userSpaceOnUse" id="color-1"><stop offset="0" stop-color="#006bff"/><stop offset="1" stop-color="#006180"/></linearGradient><linearGradient x1="233.61189" y1="185.507" x2="233.61189" y2="203.12937" gradientUnits="userSpaceOnUse" id="color-2"><stop offset="0" stop-color="#ffffff"/><stop offset="1" stop-color="#ffffff"/></linearGradient></defs><g transform="translate(-207.39859,-147.39859)"><g data-paper-data="{&quot;isPaintingLayer&quot;:true}" fill-rule="nonzero" stroke-linecap="butt" stroke-linejoin="miter" stroke-miterlimit="10" stroke-dasharray="" stroke-dashoffset="0" style="mix-blend-mode: normal"><path d="M207.39859,180c0,-18.00526 14.59614,-32.60141 32.60141,-32.60141c18.00526,0 32.60141,14.59614 32.60141,32.60141c0,18.00526 -14.59614,32.60141 -32.60141,32.60141c-18.00526,0 -32.60141,-14.59614 -32.60141,-32.60141z" fill="url(#color-1)" stroke="none" stroke-width="1"/><path d="M242.42307,194.31818c0,4.8662 -3.94499,8.81118 -8.81118,8.81118c-4.8662,0 -8.81118,-3.94499 -8.81118,-8.81118c0,-4.8662 3.94499,-8.81118 8.81118,-8.81118c4.8662,0 8.81118,3.94499 8.81118,8.81118z" fill="url(#color-2)" stroke="none" stroke-width="1"/><path d="M239.13822,192.6014l0.44056,-30.83917" fill="none" stroke="#ffffff" stroke-width="6"/><path d="M236.9281,162.34638h17.62238" fill="none" stroke="#ffffff" stroke-width="6"/></g></g></svg>