<svg version="1.1" xmlns="http://www.w3.org/2000/svg" xmlns:xlink="http://www.w3.org/1999/xlink" width="557" height="423.99997" viewBox="0,0,557,423.99997"><defs><linearGradient x1="240.1436" y1="244.92782" x2="240.1436" y2="274" gradientUnits="userSpaceOnUse" id="color-1"><stop offset="0" stop-color="#000000"/><stop offset="1" stop-color="#616161"/></linearGradient><linearGradient x1="272.15949" y1="242.58941" x2="272.15949" y2="273.43962" gradientUnits="userSpaceOnUse" id="color-2"><stop offset="0" stop-color="#000000"/><stop offset="1" stop-color="#616161"/></linearGradient><linearGradient x1="303.85357" y1="242.25059" x2="303.85357" y2="273.1008" gradientUnits="userSpaceOnUse" id="color-3"><stop offset="0" stop-color="#000000"/><stop offset="1" stop-color="#616161"/></linearGradient></defs><g transform="translate(38.00751,32.36769)"><g data-paper-data="{&quot;isPaintingLayer&quot;:true}" fill-rule="nonzero" stroke-linejoin="miter" stroke-miterlimit="10" stroke-dasharray="" stroke-dashoffset="0" style="mix-blend-mode: normal"><path d="M-9.25751,363.63228v-88.5h488.5v88.5z" fill="#75baff" stroke="none" stroke-width="0" stroke-linecap="butt"/><path d="M-0.25751,356.05911v-74.92683h72v74.92683z" fill="#42a0ff" stroke="none" stroke-width="0" stroke-linecap="butt"/><path d="M79.74249,356.0957v-74.92683h72v74.92683z" fill="#42a0ff" stroke="none" stroke-width="0" stroke-linecap="butt"/><path d="M159.24249,356.55911v-74.92683h72v74.92683z" fill="#42a0ff" stroke="none" stroke-width="0" stroke-linecap="butt"/><path d="M239.24249,356.5957v-74.92683h72v74.92683z" fill="#42a0ff" stroke="none" stroke-width="0" stroke-linecap="butt"/><path d="M320.74249,356.55911v-74.92683h72v74.92683z" fill="#42a0ff" stroke="none" stroke-width="0" stroke-linecap="butt"/><path d="M400.74249,356.5957v-74.92683h72v74.92683z" fill="#42a0ff" stroke="none" stroke-width="0" stroke-linecap="butt"/><path d="M-38.00751,391.63228v-5h541v5z" fill-opacity="0.45968" fill="#000000" stroke="none" stroke-width="0" stroke-linecap="butt"/><path d="M-5.17718,274.48458h482.32733" fill="none" stroke="#ffffff" stroke-width="2" stroke-linecap="round"/><path d="M225.17109,274l14.97251,-29.07218l14.97251,29.07218z" fill="url(#color-1)" stroke="#fffee0" stroke-width="2" stroke-linecap="butt"/><path d="M256.73438,273.43962v-30.85022h30.85022v30.85022z" fill="url(#color-2)" stroke="#ffffff" stroke-width="2" stroke-linecap="butt"/><path d="M288.42846,273.1008v-30.85022h30.85022v30.85022z" fill="url(#color-3)" stroke="#ffffff" stroke-width="2" stroke-linecap="butt"/><path d="M-22.00751,-27.36769v-5h541v5z" fill-opacity="0.45968" fill="#000000" stroke="none" stroke-width="0" stroke-linecap="butt"/></g></g></svg>