<svg version="1.1" xmlns="http://www.w3.org/2000/svg" xmlns:xlink="http://www.w3.org/1999/xlink" width="551.74249" height="424.8677" viewBox="0,0,551.74249,424.8677"><defs><linearGradient x1="237.3543" y1="242.69223" x2="237.3543" y2="273.54245" gradientUnits="userSpaceOnUse" id="color-1"><stop offset="0" stop-color="#000000"/><stop offset="1" stop-color="#616161"/></linearGradient><linearGradient x1="269.72517" y1="242.82114" x2="269.72517" y2="273.67136" gradientUnits="userSpaceOnUse" id="color-2"><stop offset="0" stop-color="#000000"/><stop offset="1" stop-color="#616161"/></linearGradient><linearGradient x1="302.328" y1="242.48614" x2="302.328" y2="273.33636" gradientUnits="userSpaceOnUse" id="color-3"><stop offset="0" stop-color="#000000"/><stop offset="1" stop-color="#616161"/></linearGradient><linearGradient x1="335.16279" y1="242.61505" x2="335.16279" y2="273.46527" gradientUnits="userSpaceOnUse" id="color-4"><stop offset="0" stop-color="#000000"/><stop offset="1" stop-color="#616161"/></linearGradient><linearGradient x1="335.21742" y1="225.04203" x2="335.21742" y2="241.12464" gradientUnits="userSpaceOnUse" id="color-5"><stop offset="0" stop-color="#000000"/><stop offset="1" stop-color="#616161"/></linearGradient></defs><g transform="translate(32.75,32.36769)"><g data-paper-data="{&quot;isPaintingLayer&quot;:true}" fill-rule="nonzero" stroke-linejoin="miter" stroke-miterlimit="10" stroke-dasharray="" stroke-dashoffset="0" style="mix-blend-mode: normal"><path d="M-32.75,392.5v-5h541v5z" fill-opacity="0.45968" fill="#000000" stroke="none" stroke-width="0" stroke-linecap="butt"/><path d="M-4,364.5v-88.5h488.5v88.5z" fill="#75baff" stroke="none" stroke-width="0" stroke-linecap="butt"/><path d="M5,356.92683v-74.92683h72v74.92683z" fill="#42a0ff" stroke="none" stroke-width="0" stroke-linecap="butt"/><path d="M85,356.96342v-74.92683h72v74.92683z" fill="#42a0ff" stroke="none" stroke-width="0" stroke-linecap="butt"/><path d="M164.5,357.42683v-74.92683h72v74.92683z" fill="#42a0ff" stroke="none" stroke-width="0" stroke-linecap="butt"/><path d="M244.5,357.46342v-74.92683h72v74.92683z" fill="#42a0ff" stroke="none" stroke-width="0" stroke-linecap="butt"/><path d="M326,357.42683v-74.92683h72v74.92683z" fill="#42a0ff" stroke="none" stroke-width="0" stroke-linecap="butt"/><path d="M406,357.46342v-74.92683h72v74.92683z" fill="#42a0ff" stroke="none" stroke-width="0" stroke-linecap="butt"/><path d="M0.08033,275.3523h482.32733" fill="none" stroke="#ffffff" stroke-width="2" stroke-linecap="round"/><path d="M221.92919,273.54245v-30.85022h30.85022v30.85022z" fill="url(#color-1)" stroke="#ffffff" stroke-width="2" stroke-linecap="butt"/><path d="M254.30006,273.67136v-30.85022h30.85022v30.85022z" fill="url(#color-2)" stroke="#ffffff" stroke-width="2" stroke-linecap="butt"/><path d="M286.90289,273.33636v-30.85022h30.85022v30.85022z" fill="url(#color-3)" stroke="#ffffff" stroke-width="2" stroke-linecap="butt"/><path d="M319.73768,273.46527v-30.85022h30.85022v30.85022z" fill="url(#color-4)" stroke="#ffffff" stroke-width="2" stroke-linecap="butt"/><path d="M320.24491,241.12464l14.97251,-16.08261l14.97251,16.08261z" fill="url(#color-5)" stroke="#fffee0" stroke-width="2" stroke-linecap="butt"/><path d="M-22.00751,-27.36769v-5h541v5z" fill-opacity="0.45968" fill="#000000" stroke="none" stroke-width="0" stroke-linecap="butt"/></g></g></svg>