<svg xmlns="http://www.w3.org/2000/svg" fill="none" viewBox="0 0 409 72" height="72" width="409">
<g filter="url(#filter0_d_661_12)">
<mask fill="black" height="68" width="404" y="2" x="2" maskUnits="userSpaceOnUse" id="path-1-outside-1_661_12">
<rect height="68" width="404" y="2" x="2" fill="white"></rect>
<path d="M16.9219 15.8203V42.6094C16.9219 43.7812 17.5312 44.3906 18.75 44.4375H43.3594C44.25 44.3906 45.0234 44.0156 45.6797 43.3125C46.3359 42.5625 46.8047 41.7188 47.0859 40.7812C47.4141 39.7969 47.5781 38.8125 47.5781 37.8281C47.5781 36.8906 47.4141 35.9531 47.0859 35.0156C46.8047 34.0312 46.3359 33.1875 45.6797 32.4844C45.0234 31.7344 44.25 31.3594 43.3594 31.3594H25.3594C24.0469 31.3594 22.9219 30.9141 21.9844 30.0234C21.0938 29.0859 20.6484 27.9609 20.6484 26.6484C20.6484 25.3359 21.1172 24.2344 22.0547 23.3438C22.9453 22.4062 24.0469 21.9375 25.3594 21.9375H43.0781C46.3594 21.9844 49.0547 22.9219 51.1641 24.75C53.3203 26.5312 54.8438 28.5703 55.7344 30.8672C56.6719 33.1172 57.1406 35.4609 57.1406 37.8984C57.1406 40.2422 56.6719 42.5625 55.7344 44.8594C54.7969 47.1094 53.2734 49.1484 51.1641 50.9766C49.0547 52.7578 45.9375 53.7188 41.8125 53.8594H12.2812C10.9688 53.8594 9.84375 53.4375 8.90625 52.5938C7.96875 51.7031 7.47656 50.6016 7.42969 49.2891V15.8203C7.42969 14.5078 7.89844 13.4297 8.83594 12.5859C9.82031 11.6953 10.9688 11.25 12.2812 11.25C15.0938 11.4844 16.6406 13.0078 16.9219 15.8203ZM79.1484 53.8594C75.0234 53.7188 71.9062 52.7578 69.7969 50.9766C67.6875 49.1484 66.1641 47.1094 65.2266 44.8594C64.2891 42.5625 63.8203 40.2422 63.8203 37.8984C63.8203 35.4609 64.2656 33.1172 65.1562 30.8672C66.0938 28.5703 67.6172 26.5312 69.7266 24.75C71.8828 22.9219 74.6016 21.9844 77.8828 21.9375H104.602C105.914 21.9375 107.016 22.3828 107.906 23.2734C108.844 24.1172 109.312 25.1484 109.312 26.3672C109.312 27.6328 108.844 28.7109 107.906 29.6016C107.016 30.4453 105.914 30.8672 104.602 30.8672H78.3047C77.2734 30.8672 76.3594 31.2188 75.5625 31.9219C74.8125 32.625 74.25 33.5391 73.875 34.6641C73.5469 35.7891 73.3828 36.8906 73.3828 37.9688C73.3828 39.1406 73.5469 40.2891 73.875 41.4141C74.25 42.5391 74.8125 43.4531 75.5625 44.1562C76.3594 44.8125 77.2734 45.1641 78.3047 45.2109H104.602C105.914 45.2109 107.016 45.6328 107.906 46.4766C108.844 47.3203 109.312 48.3281 109.312 49.5C109.312 50.7188 108.844 51.75 107.906 52.5938C107.016 53.4375 105.914 53.8594 104.602 53.8594H79.1484ZM108.469 37.7578C108.469 38.6484 108.07 39.4219 107.273 40.0781C106.57 40.6875 105.68 40.9922 104.602 40.9922H81.6094C80.5312 40.9922 79.6172 40.6875 78.8672 40.0781C78.1172 39.4219 77.7422 38.6484 77.7422 37.7578C77.7422 36.9141 78.1172 36.1641 78.8672 35.5078C79.6172 34.8984 80.5312 34.5938 81.6094 34.5938H104.602C105.68 34.5938 106.594 34.9219 107.344 35.5781C108.094 36.1875 108.469 36.9141 108.469 37.7578ZM116.344 26.6484C116.344 25.3359 116.789 24.2344 117.68 23.3438C118.617 22.4062 119.742 21.9375 121.055 21.9375H160.289C161.602 21.9375 162.727 22.3828 163.664 23.2734C164.555 24.2109 165 25.3359 165 26.6484C165 27.9609 164.625 28.9453 163.875 29.6016C163.172 30.2109 162.469 30.7266 161.766 31.1484L137.93 44.4375H160.289C161.602 44.4375 162.727 44.8828 163.664 45.7734C164.555 46.7109 165 47.8359 165 49.1484C165 50.4609 164.531 51.5859 163.594 52.5234C162.703 53.4141 161.602 53.8594 160.289 53.8594H121.055C119.742 53.8594 118.641 53.3906 117.75 52.4531C116.812 51.5625 116.344 50.4609 116.344 49.1484C116.344 47.8359 116.812 46.7109 117.75 45.7734C117.938 45.5859 118.125 45.4219 118.312 45.2812L118.453 45.2109L143.555 31.3594H121.055C119.742 31.3594 118.641 30.8906 117.75 29.9531C116.812 29.0625 116.344 27.9609 116.344 26.6484ZM187.148 53.8594C183.023 53.7188 179.906 52.7578 177.797 50.9766C175.688 49.1484 174.164 47.1094 173.227 44.8594C172.289 42.5625 171.82 40.2422 171.82 37.8984C171.82 35.4609 172.266 33.1172 173.156 30.8672C174.094 28.5703 175.617 26.5312 177.727 24.75C179.883 22.9219 182.602 21.9844 185.883 21.9375H212.602C213.914 21.9375 215.016 22.3828 215.906 23.2734C216.844 24.1172 217.312 25.1484 217.312 26.3672C217.312 27.6328 216.844 28.7109 215.906 29.6016C215.016 30.4453 213.914 30.8672 212.602 30.8672H186.305C185.273 30.8672 184.359 31.2188 183.562 31.9219C182.812 32.625 182.25 33.5391 181.875 34.6641C181.547 35.7891 181.383 36.8906 181.383 37.9688C181.383 39.1406 181.547 40.2891 181.875 41.4141C182.25 42.5391 182.812 43.4531 183.562 44.1562C184.359 44.8125 185.273 45.1641 186.305 45.2109H212.602C213.914 45.2109 215.016 45.6328 215.906 46.4766C216.844 47.3203 217.312 48.3281 217.312 49.5C217.312 50.7188 216.844 51.75 215.906 52.5938C215.016 53.4375 213.914 53.8594 212.602 53.8594H187.148ZM216.469 37.7578C216.469 38.6484 216.07 39.4219 215.273 40.0781C214.57 40.6875 213.68 40.9922 212.602 40.9922H189.609C188.531 40.9922 187.617 40.6875 186.867 40.0781C186.117 39.4219 185.742 38.6484 185.742 37.7578C185.742 36.9141 186.117 36.1641 186.867 35.5078C187.617 34.8984 188.531 34.5938 189.609 34.5938H212.602C213.68 34.5938 214.594 34.9219 215.344 35.5781C216.094 36.1875 216.469 36.9141 216.469 37.7578ZM234.891 59.9766C234.609 62.7891 233.062 64.3125 230.25 64.5469C228.938 64.5469 227.789 64.1016 226.805 63.2109C225.867 62.3672 225.398 61.2891 225.398 59.9766V26.5078C225.445 25.1953 225.938 24.1172 226.875 23.2734C227.812 22.3828 228.938 21.9375 230.25 21.9375H259.781C263.906 22.0781 267.023 23.0625 269.133 24.8906C271.242 26.6719 272.766 28.7109 273.703 31.0078C274.641 33.2578 275.109 35.5547 275.109 37.8984C275.109 40.3359 274.641 42.7031 273.703 45C272.812 47.25 271.289 49.2891 269.133 51.1172C267.023 52.8984 264.328 53.8125 261.047 53.8594H243.328C242.016 53.8594 240.914 53.3906 240.023 52.4531C239.086 51.5625 238.617 50.4609 238.617 49.1484C238.617 47.8359 239.062 46.7344 239.953 45.8438C240.891 44.9062 242.016 44.4375 243.328 44.4375H261.328C262.219 44.4375 262.992 44.0859 263.648 43.3828C264.305 42.6328 264.773 41.7891 265.055 40.8516C265.383 39.8672 265.547 38.9062 265.547 37.9688C265.547 36.9844 265.383 36.0234 265.055 35.0859C264.773 34.1016 264.305 33.2578 263.648 32.5547C262.992 31.8047 262.219 31.4062 261.328 31.3594H236.719C235.5 31.4062 234.891 32.0156 234.891 33.1875V59.9766ZM288.539 21.2344C289.805 21.2812 290.883 21.75 291.773 22.6406C292.664 23.4844 293.133 24.5391 293.18 25.8047V50.1328C292.898 52.9453 291.352 54.4688 288.539 54.7031C287.227 54.7031 286.078 54.2812 285.094 53.4375C284.156 52.5469 283.688 51.4453 283.688 50.1328V25.8047C283.734 24.4922 284.227 23.4141 285.164 22.5703C286.102 21.6797 287.227 21.2344 288.539 21.2344ZM282.633 12.0938C282.633 10.7813 283.195 9.65625 284.32 8.71875C285.445 7.78125 286.805 7.3125 288.398 7.3125C289.992 7.3125 291.352 7.78125 292.477 8.71875C293.602 9.65625 294.164 10.7813 294.164 12.0938C294.164 13.4531 293.602 14.6016 292.477 15.5391C291.352 16.4766 289.992 16.9453 288.398 16.9453C286.805 16.9453 285.445 16.4766 284.32 15.5391C283.195 14.6016 282.633 13.4531 282.633 12.0938ZM306.609 11.25C307.875 11.2969 308.953 11.7656 309.844 12.6562C310.734 13.5 311.203 14.5547 311.25 15.8203V50.2734C310.969 53.0859 309.422 54.6094 306.609 54.8438C305.297 54.8438 304.148 54.4219 303.164 53.5781C302.227 52.6875 301.758 51.5859 301.758 50.2734V15.8203C301.805 14.5078 302.297 13.4297 303.234 12.5859C304.172 11.6953 305.297 11.25 306.609 11.25ZM315.539 30.8672C316.898 28.6641 319.5 27.0469 323.344 26.0156L341.414 21.1641C342.68 20.7891 343.875 20.9062 345 21.5156C346.172 22.0781 346.945 22.9922 347.32 24.2578C347.742 25.4766 347.648 26.6719 347.039 27.8438C346.477 28.9688 345.562 29.7422 344.297 30.1641L325.031 35.1562C323.672 35.6719 323.016 36.5625 323.062 37.8281C323.016 39.0938 323.672 39.9844 325.031 40.5L344.297 45.4922C345.562 45.9141 346.477 46.7109 347.039 47.8828C347.648 49.0078 347.742 50.1797 347.32 51.3984C346.945 52.6641 346.172 53.5781 345 54.1406C343.875 54.75 342.68 54.8672 341.414 54.4922L323.344 49.6406C319.453 48.5625 316.828 46.9219 315.469 44.7188C314.156 42.5156 313.5 40.2188 313.5 37.8281C313.5 35.4375 314.18 33.1172 315.539 30.8672ZM359.766 11.25C361.031 11.2969 362.109 11.7656 363 12.6562C363.891 13.5 364.359 14.5547 364.406 15.8203V50.2734C364.125 53.0859 362.578 54.6094 359.766 54.8438C358.453 54.8438 357.305 54.4219 356.32 53.5781C355.383 52.6875 354.914 51.5859 354.914 50.2734V15.8203C354.961 14.5078 355.453 13.4297 356.391 12.5859C357.328 11.6953 358.453 11.25 359.766 11.25ZM368.695 30.8672C370.055 28.6641 372.656 27.0469 376.5 26.0156L394.57 21.1641C395.836 20.7891 397.031 20.9062 398.156 21.5156C399.328 22.0781 400.102 22.9922 400.477 24.2578C400.898 25.4766 400.805 26.6719 400.195 27.8438C399.633 28.9688 398.719 29.7422 397.453 30.1641L378.188 35.1562C376.828 35.6719 376.172 36.5625 376.219 37.8281C376.172 39.0938 376.828 39.9844 378.188 40.5L397.453 45.4922C398.719 45.9141 399.633 46.7109 400.195 47.8828C400.805 49.0078 400.898 50.1797 400.477 51.3984C400.102 52.6641 399.328 53.5781 398.156 54.1406C397.031 54.75 395.836 54.8672 394.57 54.4922L376.5 49.6406C372.609 48.5625 369.984 46.9219 368.625 44.7188C367.312 42.5156 366.656 40.2188 366.656 37.8281C366.656 35.4375 367.336 33.1172 368.695 30.8672Z"></path>
</mask>
<path fill="white" d="M16.9219 15.8203V42.6094C16.9219 43.7812 17.5312 44.3906 18.75 44.4375H43.3594C44.25 44.3906 45.0234 44.0156 45.6797 43.3125C46.3359 42.5625 46.8047 41.7188 47.0859 40.7812C47.4141 39.7969 47.5781 38.8125 47.5781 37.8281C47.5781 36.8906 47.4141 35.9531 47.0859 35.0156C46.8047 34.0312 46.3359 33.1875 45.6797 32.4844C45.0234 31.7344 44.25 31.3594 43.3594 31.3594H25.3594C24.0469 31.3594 22.9219 30.9141 21.9844 30.0234C21.0938 29.0859 20.6484 27.9609 20.6484 26.6484C20.6484 25.3359 21.1172 24.2344 22.0547 23.3438C22.9453 22.4062 24.0469 21.9375 25.3594 21.9375H43.0781C46.3594 21.9844 49.0547 22.9219 51.1641 24.75C53.3203 26.5312 54.8438 28.5703 55.7344 30.8672C56.6719 33.1172 57.1406 35.4609 57.1406 37.8984C57.1406 40.2422 56.6719 42.5625 55.7344 44.8594C54.7969 47.1094 53.2734 49.1484 51.1641 50.9766C49.0547 52.7578 45.9375 53.7188 41.8125 53.8594H12.2812C10.9688 53.8594 9.84375 53.4375 8.90625 52.5938C7.96875 51.7031 7.47656 50.6016 7.42969 49.2891V15.8203C7.42969 14.5078 7.89844 13.4297 8.83594 12.5859C9.82031 11.6953 10.9688 11.25 12.2812 11.25C15.0938 11.4844 16.6406 13.0078 16.9219 15.8203ZM79.1484 53.8594C75.0234 53.7188 71.9062 52.7578 69.7969 50.9766C67.6875 49.1484 66.1641 47.1094 65.2266 44.8594C64.2891 42.5625 63.8203 40.2422 63.8203 37.8984C63.8203 35.4609 64.2656 33.1172 65.1562 30.8672C66.0938 28.5703 67.6172 26.5312 69.7266 24.75C71.8828 22.9219 74.6016 21.9844 77.8828 21.9375H104.602C105.914 21.9375 107.016 22.3828 107.906 23.2734C108.844 24.1172 109.312 25.1484 109.312 26.3672C109.312 27.6328 108.844 28.7109 107.906 29.6016C107.016 30.4453 105.914 30.8672 104.602 30.8672H78.3047C77.2734 30.8672 76.3594 31.2188 75.5625 31.9219C74.8125 32.625 74.25 33.5391 73.875 34.6641C73.5469 35.7891 73.3828 36.8906 73.3828 37.9688C73.3828 39.1406 73.5469 40.2891 73.875 41.4141C74.25 42.5391 74.8125 43.4531 75.5625 44.1562C76.3594 44.8125 77.2734 45.1641 78.3047 45.2109H104.602C105.914 45.2109 107.016 45.6328 107.906 46.4766C108.844 47.3203 109.312 48.3281 109.312 49.5C109.312 50.7188 108.844 51.75 107.906 52.5938C107.016 53.4375 105.914 53.8594 104.602 53.8594H79.1484ZM108.469 37.7578C108.469 38.6484 108.07 39.4219 107.273 40.0781C106.57 40.6875 105.68 40.9922 104.602 40.9922H81.6094C80.5312 40.9922 79.6172 40.6875 78.8672 40.0781C78.1172 39.4219 77.7422 38.6484 77.7422 37.7578C77.7422 36.9141 78.1172 36.1641 78.8672 35.5078C79.6172 34.8984 80.5312 34.5938 81.6094 34.5938H104.602C105.68 34.5938 106.594 34.9219 107.344 35.5781C108.094 36.1875 108.469 36.9141 108.469 37.7578ZM116.344 26.6484C116.344 25.3359 116.789 24.2344 117.68 23.3438C118.617 22.4062 119.742 21.9375 121.055 21.9375H160.289C161.602 21.9375 162.727 22.3828 163.664 23.2734C164.555 24.2109 165 25.3359 165 26.6484C165 27.9609 164.625 28.9453 163.875 29.6016C163.172 30.2109 162.469 30.7266 161.766 31.1484L137.93 44.4375H160.289C161.602 44.4375 162.727 44.8828 163.664 45.7734C164.555 46.7109 165 47.8359 165 49.1484C165 50.4609 164.531 51.5859 163.594 52.5234C162.703 53.4141 161.602 53.8594 160.289 53.8594H121.055C119.742 53.8594 118.641 53.3906 117.75 52.4531C116.812 51.5625 116.344 50.4609 116.344 49.1484C116.344 47.8359 116.812 46.7109 117.75 45.7734C117.938 45.5859 118.125 45.4219 118.312 45.2812L118.453 45.2109L143.555 31.3594H121.055C119.742 31.3594 118.641 30.8906 117.75 29.9531C116.812 29.0625 116.344 27.9609 116.344 26.6484ZM187.148 53.8594C183.023 53.7188 179.906 52.7578 177.797 50.9766C175.688 49.1484 174.164 47.1094 173.227 44.8594C172.289 42.5625 171.82 40.2422 171.82 37.8984C171.82 35.4609 172.266 33.1172 173.156 30.8672C174.094 28.5703 175.617 26.5312 177.727 24.75C179.883 22.9219 182.602 21.9844 185.883 21.9375H212.602C213.914 21.9375 215.016 22.3828 215.906 23.2734C216.844 24.1172 217.312 25.1484 217.312 26.3672C217.312 27.6328 216.844 28.7109 215.906 29.6016C215.016 30.4453 213.914 30.8672 212.602 30.8672H186.305C185.273 30.8672 184.359 31.2188 183.562 31.9219C182.812 32.625 182.25 33.5391 181.875 34.6641C181.547 35.7891 181.383 36.8906 181.383 37.9688C181.383 39.1406 181.547 40.2891 181.875 41.4141C182.25 42.5391 182.812 43.4531 183.562 44.1562C184.359 44.8125 185.273 45.1641 186.305 45.2109H212.602C213.914 45.2109 215.016 45.6328 215.906 46.4766C216.844 47.3203 217.312 48.3281 217.312 49.5C217.312 50.7188 216.844 51.75 215.906 52.5938C215.016 53.4375 213.914 53.8594 212.602 53.8594H187.148ZM216.469 37.7578C216.469 38.6484 216.07 39.4219 215.273 40.0781C214.57 40.6875 213.68 40.9922 212.602 40.9922H189.609C188.531 40.9922 187.617 40.6875 186.867 40.0781C186.117 39.4219 185.742 38.6484 185.742 37.7578C185.742 36.9141 186.117 36.1641 186.867 35.5078C187.617 34.8984 188.531 34.5938 189.609 34.5938H212.602C213.68 34.5938 214.594 34.9219 215.344 35.5781C216.094 36.1875 216.469 36.9141 216.469 37.7578ZM234.891 59.9766C234.609 62.7891 233.062 64.3125 230.25 64.5469C228.938 64.5469 227.789 64.1016 226.805 63.2109C225.867 62.3672 225.398 61.2891 225.398 59.9766V26.5078C225.445 25.1953 225.938 24.1172 226.875 23.2734C227.812 22.3828 228.938 21.9375 230.25 21.9375H259.781C263.906 22.0781 267.023 23.0625 269.133 24.8906C271.242 26.6719 272.766 28.7109 273.703 31.0078C274.641 33.2578 275.109 35.5547 275.109 37.8984C275.109 40.3359 274.641 42.7031 273.703 45C272.812 47.25 271.289 49.2891 269.133 51.1172C267.023 52.8984 264.328 53.8125 261.047 53.8594H243.328C242.016 53.8594 240.914 53.3906 240.023 52.4531C239.086 51.5625 238.617 50.4609 238.617 49.1484C238.617 47.8359 239.062 46.7344 239.953 45.8438C240.891 44.9062 242.016 44.4375 243.328 44.4375H261.328C262.219 44.4375 262.992 44.0859 263.648 43.3828C264.305 42.6328 264.773 41.7891 265.055 40.8516C265.383 39.8672 265.547 38.9062 265.547 37.9688C265.547 36.9844 265.383 36.0234 265.055 35.0859C264.773 34.1016 264.305 33.2578 263.648 32.5547C262.992 31.8047 262.219 31.4062 261.328 31.3594H236.719C235.5 31.4062 234.891 32.0156 234.891 33.1875V59.9766ZM288.539 21.2344C289.805 21.2812 290.883 21.75 291.773 22.6406C292.664 23.4844 293.133 24.5391 293.18 25.8047V50.1328C292.898 52.9453 291.352 54.4688 288.539 54.7031C287.227 54.7031 286.078 54.2812 285.094 53.4375C284.156 52.5469 283.688 51.4453 283.688 50.1328V25.8047C283.734 24.4922 284.227 23.4141 285.164 22.5703C286.102 21.6797 287.227 21.2344 288.539 21.2344ZM282.633 12.0938C282.633 10.7813 283.195 9.65625 284.32 8.71875C285.445 7.78125 286.805 7.3125 288.398 7.3125C289.992 7.3125 291.352 7.78125 292.477 8.71875C293.602 9.65625 294.164 10.7813 294.164 12.0938C294.164 13.4531 293.602 14.6016 292.477 15.5391C291.352 16.4766 289.992 16.9453 288.398 16.9453C286.805 16.9453 285.445 16.4766 284.32 15.5391C283.195 14.6016 282.633 13.4531 282.633 12.0938ZM306.609 11.25C307.875 11.2969 308.953 11.7656 309.844 12.6562C310.734 13.5 311.203 14.5547 311.25 15.8203V50.2734C310.969 53.0859 309.422 54.6094 306.609 54.8438C305.297 54.8438 304.148 54.4219 303.164 53.5781C302.227 52.6875 301.758 51.5859 301.758 50.2734V15.8203C301.805 14.5078 302.297 13.4297 303.234 12.5859C304.172 11.6953 305.297 11.25 306.609 11.25ZM315.539 30.8672C316.898 28.6641 319.5 27.0469 323.344 26.0156L341.414 21.1641C342.68 20.7891 343.875 20.9062 345 21.5156C346.172 22.0781 346.945 22.9922 347.32 24.2578C347.742 25.4766 347.648 26.6719 347.039 27.8438C346.477 28.9688 345.562 29.7422 344.297 30.1641L325.031 35.1562C323.672 35.6719 323.016 36.5625 323.062 37.8281C323.016 39.0938 323.672 39.9844 325.031 40.5L344.297 45.4922C345.562 45.9141 346.477 46.7109 347.039 47.8828C347.648 49.0078 347.742 50.1797 347.32 51.3984C346.945 52.6641 346.172 53.5781 345 54.1406C343.875 54.75 342.68 54.8672 341.414 54.4922L323.344 49.6406C319.453 48.5625 316.828 46.9219 315.469 44.7188C314.156 42.5156 313.5 40.2188 313.5 37.8281C313.5 35.4375 314.18 33.1172 315.539 30.8672ZM359.766 11.25C361.031 11.2969 362.109 11.7656 363 12.6562C363.891 13.5 364.359 14.5547 364.406 15.8203V50.2734C364.125 53.0859 362.578 54.6094 359.766 54.8438C358.453 54.8438 357.305 54.4219 356.32 53.5781C355.383 52.6875 354.914 51.5859 354.914 50.2734V15.8203C354.961 14.5078 355.453 13.4297 356.391 12.5859C357.328 11.6953 358.453 11.25 359.766 11.25ZM368.695 30.8672C370.055 28.6641 372.656 27.0469 376.5 26.0156L394.57 21.1641C395.836 20.7891 397.031 20.9062 398.156 21.5156C399.328 22.0781 400.102 22.9922 400.477 24.2578C400.898 25.4766 400.805 26.6719 400.195 27.8438C399.633 28.9688 398.719 29.7422 397.453 30.1641L378.188 35.1562C376.828 35.6719 376.172 36.5625 376.219 37.8281C376.172 39.0938 376.828 39.9844 378.188 40.5L397.453 45.4922C398.719 45.9141 399.633 46.7109 400.195 47.8828C400.805 49.0078 400.898 50.1797 400.477 51.3984C400.102 52.6641 399.328 53.5781 398.156 54.1406C397.031 54.75 395.836 54.8672 394.57 54.4922L376.5 49.6406C372.609 48.5625 369.984 46.9219 368.625 44.7188C367.312 42.5156 366.656 40.2188 366.656 37.8281C366.656 35.4375 367.336 33.1172 368.695 30.8672Z"></path>
<path mask="url(#path-1-outside-1_661_12)" fill="black" d="M16.9219 15.8203H21.9219V15.5709L21.8971 15.3228L16.9219 15.8203ZM18.75 44.4375L18.5578 49.4338L18.6539 49.4375H18.75V44.4375ZM43.3594 44.4375V49.4375H43.4909L43.6222 49.4306L43.3594 44.4375ZM45.6797 43.3125L49.335 46.7241L49.3897 46.6654L49.4426 46.605L45.6797 43.3125ZM47.0859 40.7812L42.3425 39.2001L42.3186 39.272L42.2968 39.3445L47.0859 40.7812ZM47.0859 35.0156L42.2783 36.3892L42.3184 36.5296L42.3666 36.6674L47.0859 35.0156ZM45.6797 32.4844L41.9168 35.7769L41.9697 35.8373L42.0244 35.896L45.6797 32.4844ZM21.9844 30.0234L18.3594 33.4672L18.4477 33.5601L18.5406 33.6484L21.9844 30.0234ZM22.0547 23.3438L25.4984 26.9687L25.5914 26.8804L25.6797 26.7875L22.0547 23.3438ZM43.0781 21.9375L43.1495 16.938L43.1138 16.9375H43.0781V21.9375ZM51.1641 24.75L47.8894 28.5284L47.9341 28.5672L47.9797 28.6048L51.1641 24.75ZM55.7344 30.8672L51.0726 32.6748L51.0951 32.7328L51.119 32.7903L55.7344 30.8672ZM55.7344 44.8594L60.3498 46.7825L60.3567 46.7657L60.3636 46.7489L55.7344 44.8594ZM51.1641 50.9766L54.39 54.7967L54.4145 54.776L54.4387 54.755L51.1641 50.9766ZM41.8125 53.8594V58.8594H41.8977L41.9829 58.8565L41.8125 53.8594ZM8.90625 52.5938L5.4625 56.2187L5.51135 56.2652L5.56143 56.3102L8.90625 52.5938ZM7.42969 49.2891H2.42969V49.3783L2.43287 49.4675L7.42969 49.2891ZM8.83594 12.5859L12.1808 16.3024L12.1905 16.2936L8.83594 12.5859ZM12.2812 11.25L12.6965 6.26727L12.4892 6.25H12.2812V11.25ZM11.9219 15.8203V42.6094H21.9219V15.8203H11.9219ZM11.9219 42.6094C11.9219 44.0319 12.3039 45.9414 13.8434 47.4808C15.3499 48.9873 17.2121 49.382 18.5578 49.4338L18.9422 39.4412C19.0692 39.4461 20.0173 39.5127 20.9144 40.4098C21.8446 41.3399 21.9219 42.3587 21.9219 42.6094H11.9219ZM18.75 49.4375H43.3594V39.4375H18.75V49.4375ZM43.6222 49.4306C45.913 49.31 47.8714 48.2922 49.335 46.7241L42.0244 39.9009C42.0667 39.8556 42.1967 39.7332 42.4261 39.622C42.6621 39.5076 42.9014 39.4547 43.0966 39.4444L43.6222 49.4306ZM49.4426 46.605C50.5608 45.327 51.3845 43.8531 51.8751 42.218L42.2968 39.3445C42.2248 39.5844 42.111 39.798 41.9168 40.02L49.4426 46.605ZM51.8294 42.3624C52.3182 40.8959 52.5781 39.3784 52.5781 37.8281H42.5781C42.5781 38.2466 42.5099 38.6978 42.3425 39.2001L51.8294 42.3624ZM52.5781 37.8281C52.5781 36.2955 52.308 34.8005 51.8052 33.3639L42.3666 36.6674C42.5201 37.1058 42.5781 37.4858 42.5781 37.8281H52.5781ZM51.8936 33.642C51.4093 31.947 50.5658 30.3916 49.335 29.0728L42.0244 35.896C42.1061 35.9834 42.2001 36.1155 42.2783 36.3892L51.8936 33.642ZM49.4426 29.1919C47.9631 27.501 45.873 26.3594 43.3594 26.3594V36.3594C43.0772 36.3594 42.7441 36.2939 42.4261 36.1397C42.1218 35.9922 41.9601 35.8264 41.9168 35.7769L49.4426 29.1919ZM43.3594 26.3594H25.3594V36.3594H43.3594V26.3594ZM25.3594 26.3594C25.3149 26.3594 25.3 26.3557 25.3087 26.3573C25.3183 26.359 25.3412 26.3644 25.3715 26.3764C25.4019 26.3884 25.426 26.4017 25.4409 26.4113C25.4552 26.4206 25.4505 26.4197 25.4281 26.3984L18.5406 33.6484C20.4228 35.4365 22.7866 36.3594 25.3594 36.3594V26.3594ZM25.6094 26.5797C25.5881 26.5574 25.5872 26.5526 25.5965 26.5669C25.6061 26.5818 25.6194 26.606 25.6315 26.6363C25.6434 26.6666 25.6488 26.6895 25.6505 26.6991C25.6521 26.7078 25.6484 26.6929 25.6484 26.6484H15.6484C15.6484 29.2212 16.5713 31.585 18.3594 33.4672L25.6094 26.5797ZM25.6484 26.6484C25.6484 26.6188 25.651 26.6241 25.6447 26.6567C25.6381 26.6903 25.6248 26.7392 25.6008 26.7957C25.5767 26.8522 25.549 26.8997 25.5243 26.9347C25.5002 26.9689 25.4873 26.9794 25.4984 26.9687L18.6109 19.7188C16.663 21.5693 15.6484 23.9887 15.6484 26.6484H25.6484ZM25.6797 26.7875C25.6903 26.7763 25.6798 26.7892 25.6456 26.8134C25.6106 26.8381 25.5632 26.8658 25.5066 26.8898C25.4502 26.9138 25.4013 26.9272 25.3676 26.9337C25.3351 26.94 25.3298 26.9375 25.3594 26.9375V16.9375C22.6996 16.9375 20.2802 17.9521 18.4297 19.9L25.6797 26.7875ZM25.3594 26.9375H43.0781V16.9375H25.3594V26.9375ZM43.0067 26.937C45.3271 26.9701 46.8221 27.6034 47.8894 28.5284L54.4387 20.9716C51.2873 18.2403 47.3917 16.9986 43.1495 16.938L43.0067 26.937ZM47.9797 28.6048C49.567 29.9161 50.5311 31.2783 51.0726 32.6748L60.3962 29.0595C59.1564 25.8623 57.0736 23.1464 54.3485 20.8952L47.9797 28.6048ZM51.119 32.7903C51.8026 34.4309 52.1406 36.1211 52.1406 37.8984H62.1406C62.1406 34.8008 61.5412 31.8035 60.3498 28.9441L51.119 32.7903ZM52.1406 37.8984C52.1406 39.5569 51.8123 41.2373 51.1051 42.9699L60.3636 46.7489C61.5314 43.8877 62.1406 40.9274 62.1406 37.8984H52.1406ZM51.119 42.9363C50.5194 44.3753 49.4995 45.8027 47.8894 47.1981L54.4387 54.755C57.0473 52.4942 59.0743 49.8434 60.3498 46.7825L51.119 42.9363ZM47.9382 47.1564C47.0194 47.9322 45.177 48.7418 41.6421 48.8623L41.9829 58.8565C46.698 58.6957 51.0899 57.5834 54.39 54.7967L47.9382 47.1564ZM41.8125 48.8594H12.2812V58.8594H41.8125V48.8594ZM12.2812 48.8594C12.2216 48.8594 12.1913 48.8546 12.1847 48.8535C12.1812 48.8529 12.1822 48.8529 12.1871 48.8543C12.192 48.8556 12.1995 48.8578 12.2087 48.8613C12.218 48.8648 12.2276 48.8689 12.237 48.8735C12.2463 48.8781 12.254 48.8824 12.2596 48.8858C12.2652 48.8893 12.2676 48.8911 12.2666 48.8904C12.2656 48.8896 12.2604 48.8856 12.2511 48.8773L5.56143 56.3102C7.45718 58.0164 9.78862 58.8594 12.2812 58.8594V48.8594ZM12.35 48.9688C12.3313 48.9509 12.3345 48.951 12.3488 48.971C12.3636 48.9917 12.3822 49.0223 12.399 49.0599C12.4158 49.0974 12.4245 49.1278 12.4282 49.1442C12.4316 49.1598 12.4279 49.1509 12.4265 49.1106L2.43287 49.4675C2.52564 52.0649 3.55975 54.4111 5.4625 56.2187L12.35 48.9688ZM12.4297 49.2891V15.8203H2.42969V49.2891H12.4297ZM12.4297 15.8203C12.4297 15.77 12.4359 15.8615 12.3666 16.021C12.3345 16.0948 12.2955 16.161 12.2559 16.2152C12.2168 16.2686 12.1871 16.2967 12.1808 16.3024L5.49111 8.86947C3.45244 10.7043 2.42969 13.1557 2.42969 15.8203H12.4297ZM12.1905 16.2936C12.231 16.257 12.2543 16.2419 12.2592 16.2388C12.2634 16.2362 12.2574 16.2403 12.2432 16.2458C12.2368 16.2483 12.2308 16.2502 12.2256 16.2517C12.2204 16.2532 12.2176 16.2537 12.2179 16.2536C12.2183 16.2535 12.223 16.2527 12.2329 16.2518C12.2428 16.251 12.2587 16.25 12.2812 16.25V6.25C9.71344 6.25 7.37344 7.16639 5.48137 8.87826L12.1905 16.2936ZM11.866 16.2327C12.1666 16.2578 12.2857 16.3056 12.2835 16.3047C12.2805 16.3035 12.2501 16.2908 12.2022 16.2599C12.1536 16.2286 12.0979 16.1855 12.0423 16.1308C11.9868 16.0761 11.9431 16.0212 11.9113 15.9736C11.88 15.9267 11.8672 15.8972 11.8664 15.8951C11.8663 15.8948 11.9164 16.0153 11.9467 16.3178L21.8971 15.3228C21.6759 13.1107 20.8877 10.8067 19.0592 9.00594C17.2299 7.20432 14.9133 6.45201 12.6965 6.26727L11.866 16.2327ZM79.1484 53.8594L78.9781 58.8565L79.0632 58.8594H79.1484V53.8594ZM69.7969 50.9766L66.5222 54.755L66.5465 54.776L66.571 54.7967L69.7969 50.9766ZM65.2266 44.8594L60.5973 46.7489L60.6042 46.7657L60.6112 46.7825L65.2266 44.8594ZM65.1562 30.8672L60.527 28.9777L60.517 29.0023L60.5072 29.0269L65.1562 30.8672ZM69.7266 24.75L72.9525 28.5702L72.96 28.5638L69.7266 24.75ZM77.8828 21.9375V16.9375H77.8471L77.8114 16.938L77.8828 21.9375ZM107.906 23.2734L104.371 26.809L104.464 26.9019L104.561 26.9899L107.906 23.2734ZM107.906 29.6016L111.345 33.2313L111.35 33.2266L107.906 29.6016ZM75.5625 31.9219L72.2544 28.1727L72.1978 28.2226L72.1428 28.2742L75.5625 31.9219ZM73.875 34.6641L69.1316 33.0829L69.1016 33.173L69.075 33.2641L73.875 34.6641ZM73.875 41.4141L69.075 42.8141L69.1016 42.9052L69.1316 42.9952L73.875 41.4141ZM75.5625 44.1562L72.1428 47.8039L72.26 47.9138L72.384 48.0159L75.5625 44.1562ZM78.3047 45.2109L78.0776 50.2058L78.1911 50.2109H78.3047V45.2109ZM107.906 46.4766L104.468 50.1063L104.514 50.1503L104.561 50.193L107.906 46.4766ZM107.906 52.5938L104.561 48.8773L104.514 48.92L104.468 48.964L107.906 52.5938ZM107.273 40.0781L104.095 36.2185L104.046 36.2585L103.999 36.2997L107.273 40.0781ZM78.8672 40.0781L75.5747 43.841L75.6434 43.9011L75.7142 43.9587L78.8672 40.0781ZM78.8672 35.5078L75.7142 31.6272L75.6434 31.6848L75.5747 31.7449L78.8672 35.5078ZM107.344 35.5781L104.051 39.341L104.12 39.4011L104.191 39.4587L107.344 35.5781ZM79.3188 48.8623C75.784 48.7418 73.9415 47.9322 73.0228 47.1564L66.571 54.7967C69.871 57.5834 74.2629 58.6957 78.9781 58.8565L79.3188 48.8623ZM73.0715 47.1981C71.4614 45.8027 70.4415 44.3753 69.8419 42.9363L60.6112 46.7825C61.8866 49.8434 63.9136 52.4942 66.5222 54.755L73.0715 47.1981ZM69.8558 42.9699C69.1486 41.2373 68.8203 39.5569 68.8203 37.8984H58.8203C58.8203 40.9274 59.4295 43.8877 60.5973 46.7489L69.8558 42.9699ZM68.8203 37.8984C68.8203 36.0863 69.1483 34.3672 69.8053 32.7074L60.5072 29.0269C59.383 31.8671 58.8203 34.8356 58.8203 37.8984H68.8203ZM69.7855 32.7567C70.3848 31.2884 71.3892 29.8903 72.9525 28.5701L66.5007 20.9299C63.8452 23.1722 61.8027 25.8522 60.527 28.9777L69.7855 32.7567ZM72.96 28.5638C74.0928 27.6034 75.6365 26.9701 77.9542 26.937L77.8114 16.938C73.5666 16.9986 69.6728 18.2404 66.4931 20.9362L72.96 28.5638ZM77.8828 26.9375H104.602V16.9375H77.8828V26.9375ZM104.602 26.9375C104.646 26.9375 104.657 26.9412 104.639 26.938C104.621 26.9347 104.585 26.9259 104.538 26.907C104.491 26.888 104.448 26.8648 104.414 26.8417C104.38 26.819 104.366 26.8045 104.371 26.809L111.442 19.7379C109.57 17.8665 107.178 16.9375 104.602 16.9375V26.9375ZM104.561 26.9899C104.577 27.0039 104.49 26.927 104.409 26.7487C104.326 26.5663 104.312 26.4166 104.312 26.3672H114.312C114.312 23.6757 113.2 21.3113 111.251 19.557L104.561 26.9899ZM104.312 26.3672C104.312 26.3736 104.312 26.3489 104.322 26.3007C104.332 26.2514 104.349 26.1927 104.376 26.1314C104.434 25.9967 104.494 25.9466 104.463 25.9766L111.35 33.2266C113.257 31.4151 114.312 29.0366 114.312 26.3672H104.312ZM104.468 25.9718C104.468 25.9718 104.469 25.9708 104.471 25.9688C104.473 25.9668 104.476 25.9641 104.481 25.9607C104.49 25.9537 104.502 25.9448 104.518 25.9349C104.55 25.9141 104.587 25.8955 104.624 25.8815C104.66 25.8676 104.683 25.8632 104.686 25.8627C104.687 25.8624 104.661 25.8672 104.602 25.8672V35.8672C107.095 35.8672 109.457 35.0201 111.345 33.2313L104.468 25.9718ZM104.602 25.8672H78.3047V35.8672H104.602V25.8672ZM78.3047 25.8672C76.015 25.8672 73.9342 26.6905 72.2544 28.1727L78.8706 35.6711C78.8613 35.6793 78.784 35.7424 78.6406 35.7976C78.4949 35.8536 78.3698 35.8672 78.3047 35.8672V25.8672ZM72.1428 28.2742C70.6994 29.6273 69.7287 31.2917 69.1316 33.0829L78.6184 36.2452C78.7713 35.7864 78.9256 35.6227 78.9822 35.5696L72.1428 28.2742ZM69.075 33.2641C68.6257 34.8046 68.3828 36.3776 68.3828 37.9688H78.3828C78.3828 37.4037 78.4681 36.7735 78.675 36.0641L69.075 33.2641ZM68.3828 37.9688C68.3828 39.6144 68.6142 41.2342 69.075 42.8141L78.675 40.0141C78.4795 39.3439 78.3828 38.6668 78.3828 37.9688H68.3828ZM69.1316 42.9952C69.7287 44.7864 70.6994 46.4508 72.1428 47.8039L78.9822 40.5086C78.9256 40.4555 78.7713 40.2917 78.6184 39.8329L69.1316 42.9952ZM72.384 48.0159C74.016 49.3599 75.9657 50.1098 78.0776 50.2058L78.5317 40.2161C78.5245 40.2158 78.5339 40.2157 78.5565 40.2203C78.5794 40.225 78.6085 40.2331 78.6406 40.2454C78.6727 40.2577 78.6997 40.2713 78.7198 40.2832C78.7397 40.2949 78.7466 40.3012 78.741 40.2966L72.384 48.0159ZM78.3047 50.2109H104.602V40.2109H78.3047V50.2109ZM104.602 50.2109C104.661 50.2109 104.687 50.2157 104.686 50.2154C104.683 50.2149 104.66 50.2105 104.624 50.1966C104.587 50.1826 104.55 50.164 104.518 50.1432C104.502 50.1333 104.49 50.1244 104.481 50.1175C104.476 50.114 104.473 50.1113 104.471 50.1093C104.469 50.1074 104.468 50.1063 104.468 50.1063L111.345 42.8468C109.457 41.058 107.095 40.2109 104.602 40.2109V50.2109ZM104.561 50.193C104.597 50.225 104.513 50.1575 104.427 49.9739C104.338 49.7815 104.312 49.6021 104.312 49.5H114.312C114.312 46.7935 113.152 44.4707 111.251 42.7601L104.561 50.193ZM104.312 49.5C104.312 49.4506 104.326 49.3009 104.409 49.1185C104.49 48.9402 104.577 48.8633 104.561 48.8773L111.251 56.3102C113.2 54.5559 114.312 52.1914 114.312 49.5H104.312ZM104.468 48.964C104.468 48.964 104.469 48.9629 104.471 48.961C104.473 48.959 104.476 48.9563 104.481 48.9529C104.49 48.9459 104.502 48.937 104.518 48.9271C104.55 48.9063 104.587 48.8877 104.624 48.8737C104.66 48.8598 104.683 48.8554 104.686 48.8549C104.687 48.8546 104.661 48.8594 104.602 48.8594V58.8594C107.095 58.8594 109.457 58.0123 111.345 56.2235L104.468 48.964ZM104.602 48.8594H79.1484V58.8594H104.602V48.8594ZM103.469 37.7578C103.469 37.4261 103.551 37.0547 103.725 36.7161C103.889 36.3972 104.065 36.2429 104.095 36.2185L110.452 43.9378C112.197 42.5006 113.469 40.3893 113.469 37.7578H103.469ZM103.999 36.2997C104.139 36.1784 104.304 36.0861 104.46 36.0329C104.605 35.9832 104.669 35.9922 104.602 35.9922V45.9922C106.68 45.9922 108.794 45.3769 110.548 43.8566L103.999 36.2997ZM104.602 35.9922H81.6094V45.9922H104.602V35.9922ZM81.6094 35.9922C81.5445 35.9922 81.5868 35.9837 81.6964 36.0203C81.8127 36.059 81.9289 36.1234 82.0202 36.1976L75.7142 43.9587C77.4591 45.3764 79.5239 45.9922 81.6094 45.9922V35.9922ZM82.1597 36.3152C82.2092 36.3586 82.375 36.5202 82.5225 36.8245C82.6767 37.1426 82.7422 37.4756 82.7422 37.7578H72.7422C72.7422 40.2715 73.8838 42.3615 75.5747 43.841L82.1597 36.3152ZM82.7422 37.7578C82.7422 38.1071 82.6575 38.4748 82.4956 38.7986C82.3435 39.1027 82.183 39.2503 82.1597 39.2707L75.5747 31.7449C73.9557 33.1616 72.7422 35.208 72.7422 37.7578H82.7422ZM82.0202 39.3884C81.9289 39.4625 81.8127 39.5269 81.6964 39.5657C81.5868 39.6022 81.5445 39.5938 81.6094 39.5938V29.5938C79.5239 29.5938 77.4591 30.2095 75.7142 31.6272L82.0202 39.3884ZM81.6094 39.5938H104.602V29.5938H81.6094V39.5938ZM104.602 39.5938C104.628 39.5938 104.548 39.5965 104.406 39.5458C104.259 39.493 104.134 39.4138 104.051 39.341L110.636 31.8152C108.897 30.2936 106.784 29.5938 104.602 29.5938V39.5938ZM104.191 39.4587C104.127 39.4068 103.925 39.2234 103.744 38.8733C103.554 38.5045 103.469 38.1074 103.469 37.7578H113.469C113.469 35.1786 112.224 33.1013 110.497 31.6976L104.191 39.4587ZM163.664 23.2734L167.289 19.8297L167.201 19.7367L167.108 19.6484L163.664 23.2734ZM163.875 29.6016L167.15 33.38L167.159 33.3722L167.168 33.3644L163.875 29.6016ZM161.766 31.1484L164.2 35.5156L164.27 35.4768L164.338 35.4359L161.766 31.1484ZM137.93 44.4375L135.495 40.0704L118.694 49.4375H137.93V44.4375ZM163.664 45.7734L167.289 42.3297L167.201 42.2367L167.108 42.1484L163.664 45.7734ZM117.75 52.4531L121.375 49.0094L121.287 48.9164L121.194 48.8281L117.75 52.4531ZM118.312 45.2812L116.076 40.8091L115.673 41.0107L115.312 41.2812L118.312 45.2812ZM118.453 45.2109L120.689 49.6831L120.78 49.6377L120.869 49.5886L118.453 45.2109ZM143.555 31.3594L145.97 35.7371L143.555 26.3594V31.3594ZM117.75 29.9531L121.375 26.5094L121.287 26.4164L121.194 26.3281L117.75 29.9531ZM121.344 26.6484C121.344 26.6037 121.347 26.5934 121.344 26.6106C121.341 26.6289 121.332 26.6651 121.313 26.7118C121.294 26.7589 121.271 26.8016 121.248 26.836C121.225 26.8699 121.211 26.8838 121.215 26.8793L114.144 19.8082C112.273 21.6796 111.344 24.072 111.344 26.6484H121.344ZM121.215 26.8793C121.243 26.8518 121.25 26.8492 121.235 26.8597C121.219 26.8706 121.189 26.8879 121.15 26.9044C121.11 26.9211 121.074 26.9307 121.05 26.9354C121.026 26.94 121.025 26.9375 121.055 26.9375V16.9375C118.401 16.9375 116.009 17.9437 114.144 19.8082L121.215 26.8793ZM121.055 26.9375H160.289V16.9375H121.055V26.9375ZM160.289 26.9375C160.334 26.9375 160.348 26.9412 160.34 26.9396C160.33 26.9378 160.307 26.9325 160.277 26.9205C160.247 26.9085 160.222 26.8952 160.208 26.8855C160.193 26.8763 160.198 26.8772 160.22 26.8984L167.108 19.6484C165.226 17.8604 162.862 16.9375 160.289 16.9375V26.9375ZM160.039 26.7172C160.06 26.7395 160.061 26.7442 160.052 26.73C160.042 26.7151 160.029 26.6909 160.017 26.6606C160.005 26.6303 160 26.6073 159.998 26.5978C159.996 26.5891 160 26.6039 160 26.6484H170C170 24.0756 169.077 21.7118 167.289 19.8297L160.039 26.7172ZM160 26.6484C160 26.8404 159.971 26.788 160.046 26.5911C160.133 26.3644 160.307 26.0796 160.582 25.8387L167.168 33.3644C169.321 31.4804 170 28.9181 170 26.6484H160ZM160.6 25.8231C160.087 26.2676 159.617 26.6064 159.193 26.861L164.338 35.4359C165.32 34.8467 166.256 34.1542 167.15 33.38L160.6 25.8231ZM159.331 26.7813L135.495 40.0704L140.364 48.8046L164.2 35.5156L159.331 26.7813ZM137.93 49.4375H160.289V39.4375H137.93V49.4375ZM160.289 49.4375C160.334 49.4375 160.348 49.4412 160.34 49.4396C160.33 49.4378 160.307 49.4325 160.277 49.4205C160.247 49.4085 160.222 49.3952 160.208 49.3855C160.193 49.3763 160.198 49.3772 160.22 49.3984L167.108 42.1484C165.226 40.3604 162.862 39.4375 160.289 39.4375V49.4375ZM160.039 49.2172C160.06 49.2395 160.061 49.2442 160.052 49.23C160.042 49.2151 160.029 49.1909 160.017 49.1606C160.005 49.1303 160 49.1073 159.998 49.0978C159.996 49.0891 160 49.1039 160 49.1484H170C170 46.5756 169.077 44.2118 167.289 42.3297L160.039 49.2172ZM160 49.1484C160 49.1778 159.998 49.1772 160.002 49.1534C160.007 49.1288 160.016 49.0933 160.033 49.0535C160.05 49.0137 160.067 48.9845 160.078 48.9685C160.088 48.9532 160.086 48.9604 160.058 48.9879L167.129 56.059C168.994 54.1945 170 51.8021 170 49.1484H160ZM160.058 48.9879C160.054 48.9924 160.068 48.9779 160.101 48.9552C160.136 48.9321 160.179 48.9089 160.226 48.8898C160.272 48.8709 160.309 48.8622 160.327 48.8588C160.344 48.8557 160.334 48.8594 160.289 48.8594V58.8594C162.865 58.8594 165.258 57.9304 167.129 56.059L160.058 48.9879ZM160.289 48.8594H121.055V58.8594H160.289V48.8594ZM121.055 48.8594C121.025 48.8594 121.03 48.8568 121.063 48.8632C121.097 48.8697 121.145 48.883 121.202 48.907C121.258 48.9311 121.306 48.9588 121.341 48.9835C121.375 49.0077 121.386 49.0205 121.375 49.0094L114.125 55.8969C115.976 57.8448 118.395 58.8594 121.055 58.8594V48.8594ZM121.194 48.8281C121.183 48.8175 121.195 48.828 121.22 48.8622C121.244 48.8972 121.272 48.9447 121.296 49.0012C121.32 49.0576 121.333 49.1065 121.34 49.1402C121.346 49.1728 121.344 49.178 121.344 49.1484H111.344C111.344 51.8082 112.358 54.2276 114.306 56.0781L121.194 48.8281ZM121.344 49.1484C121.344 49.1191 121.346 49.1197 121.342 49.1435C121.337 49.1681 121.327 49.2035 121.311 49.2434C121.294 49.2832 121.277 49.3123 121.266 49.3284C121.255 49.3437 121.258 49.3364 121.286 49.309L114.214 42.2379C112.35 44.1024 111.344 46.4948 111.344 49.1484H121.344ZM121.286 49.309C121.306 49.2887 121.319 49.2771 121.324 49.2726C121.329 49.2682 121.325 49.2717 121.312 49.2812L115.312 41.2812C114.913 41.5809 114.548 41.9044 114.214 42.2379L121.286 49.309ZM120.549 49.7534L120.689 49.6831L116.217 40.7388L116.076 40.8091L120.549 49.7534ZM120.869 49.5886L145.97 35.7371L141.139 26.9817L116.037 40.8332L120.869 49.5886ZM143.555 26.3594H121.055V36.3594H143.555V26.3594ZM121.055 26.3594C121.025 26.3594 121.03 26.3568 121.063 26.3632C121.097 26.3697 121.145 26.383 121.202 26.407C121.258 26.4311 121.306 26.4588 121.341 26.4835C121.375 26.5077 121.386 26.5205 121.375 26.5094L114.125 33.3969C115.976 35.3448 118.395 36.3594 121.055 36.3594V26.3594ZM121.194 26.3281C121.183 26.3175 121.195 26.328 121.22 26.3622C121.244 26.3972 121.272 26.4447 121.296 26.5012C121.32 26.5576 121.333 26.6065 121.34 26.6402C121.346 26.6728 121.344 26.678 121.344 26.6484H111.344C111.344 29.3082 112.358 31.7276 114.306 33.5781L121.194 26.3281ZM187.148 53.8594L186.978 58.8565L187.063 58.8594H187.148V53.8594ZM177.797 50.9766L174.522 54.755L174.546 54.776L174.571 54.7967L177.797 50.9766ZM173.227 44.8594L168.597 46.7489L168.604 46.7657L168.611 46.7825L173.227 44.8594ZM173.156 30.8672L168.527 28.9777L168.517 29.0023L168.507 29.0269L173.156 30.8672ZM177.727 24.75L180.952 28.5702L180.96 28.5638L177.727 24.75ZM185.883 21.9375V16.9375H185.847L185.811 16.938L185.883 21.9375ZM215.906 23.2734L212.371 26.809L212.464 26.9019L212.561 26.9899L215.906 23.2734ZM215.906 29.6016L219.345 33.2313L219.35 33.2266L215.906 29.6016ZM183.562 31.9219L180.254 28.1727L180.198 28.2226L180.143 28.2742L183.562 31.9219ZM181.875 34.6641L177.132 33.0829L177.102 33.173L177.075 33.2641L181.875 34.6641ZM181.875 41.4141L177.075 42.8141L177.102 42.9052L177.132 42.9952L181.875 41.4141ZM183.562 44.1562L180.143 47.8039L180.26 47.9138L180.384 48.0159L183.562 44.1562ZM186.305 45.2109L186.078 50.2058L186.191 50.2109H186.305V45.2109ZM215.906 46.4766L212.468 50.1063L212.514 50.1503L212.561 50.193L215.906 46.4766ZM215.906 52.5938L212.561 48.8773L212.514 48.92L212.468 48.964L215.906 52.5938ZM215.273 40.0781L212.095 36.2185L212.046 36.2585L211.999 36.2997L215.273 40.0781ZM186.867 40.0781L183.575 43.841L183.643 43.9011L183.714 43.9587L186.867 40.0781ZM186.867 35.5078L183.714 31.6272L183.643 31.6848L183.575 31.7449L186.867 35.5078ZM215.344 35.5781L212.051 39.341L212.12 39.4011L212.191 39.4587L215.344 35.5781ZM187.319 48.8623C183.784 48.7418 181.942 47.9322 181.023 47.1564L174.571 54.7967C177.871 57.5834 182.263 58.6957 186.978 58.8565L187.319 48.8623ZM181.072 47.1981C179.461 45.8027 178.442 44.3753 177.842 42.9363L168.611 46.7825C169.887 49.8434 171.914 52.4942 174.522 54.755L181.072 47.1981ZM177.856 42.9699C177.149 41.2373 176.82 39.5569 176.82 37.8984H166.82C166.82 40.9274 167.43 43.8877 168.597 46.7489L177.856 42.9699ZM176.82 37.8984C176.82 36.0863 177.148 34.3672 177.805 32.7074L168.507 29.0269C167.383 31.8671 166.82 34.8356 166.82 37.8984H176.82ZM177.785 32.7567C178.385 31.2884 179.389 29.8903 180.952 28.5701L174.501 20.9299C171.845 23.1722 169.803 25.8522 168.527 28.9777L177.785 32.7567ZM180.96 28.5638C182.093 27.6034 183.637 26.9701 185.954 26.937L185.811 16.938C181.567 16.9986 177.673 18.2404 174.493 20.9362L180.96 28.5638ZM185.883 26.9375H212.602V16.9375H185.883V26.9375ZM212.602 26.9375C212.646 26.9375 212.657 26.9412 212.639 26.938C212.621 26.9347 212.585 26.9259 212.538 26.907C212.491 26.888 212.448 26.8648 212.414 26.8417C212.38 26.819 212.366 26.8045 212.371 26.809L219.442 19.7379C217.57 17.8665 215.178 16.9375 212.602 16.9375V26.9375ZM212.561 26.9899C212.577 27.0039 212.49 26.927 212.409 26.7487C212.326 26.5663 212.312 26.4166 212.312 26.3672H222.312C222.312 23.6757 221.2 21.3113 219.251 19.557L212.561 26.9899ZM212.312 26.3672C212.312 26.3736 212.312 26.3489 212.322 26.3007C212.332 26.2514 212.349 26.1927 212.376 26.1314C212.434 25.9967 212.494 25.9466 212.463 25.9766L219.35 33.2266C221.257 31.4151 222.312 29.0366 222.312 26.3672H212.312ZM212.468 25.9718C212.468 25.9718 212.469 25.9708 212.471 25.9688C212.473 25.9668 212.476 25.9641 212.481 25.9607C212.49 25.9537 212.502 25.9448 212.518 25.9349C212.55 25.9141 212.587 25.8955 212.624 25.8815C212.66 25.8676 212.683 25.8632 212.686 25.8627C212.687 25.8624 212.661 25.8672 212.602 25.8672V35.8672C215.095 35.8672 217.457 35.0201 219.345 33.2313L212.468 25.9718ZM212.602 25.8672H186.305V35.8672H212.602V25.8672ZM186.305 25.8672C184.015 25.8672 181.934 26.6905 180.254 28.1727L186.871 35.6711C186.861 35.6793 186.784 35.7424 186.641 35.7976C186.495 35.8536 186.37 35.8672 186.305 35.8672V25.8672ZM180.143 28.2742C178.699 29.6273 177.729 31.2917 177.132 33.0829L186.618 36.2452C186.771 35.7864 186.926 35.6227 186.982 35.5696L180.143 28.2742ZM177.075 33.2641C176.626 34.8046 176.383 36.3776 176.383 37.9688H186.383C186.383 37.4037 186.468 36.7735 186.675 36.0641L177.075 33.2641ZM176.383 37.9688C176.383 39.6144 176.614 41.2342 177.075 42.8141L186.675 40.0141C186.48 39.3439 186.383 38.6668 186.383 37.9688H176.383ZM177.132 42.9952C177.729 44.7864 178.699 46.4508 180.143 47.8039L186.982 40.5086C186.926 40.4555 186.771 40.2917 186.618 39.8329L177.132 42.9952ZM180.384 48.0159C182.016 49.3599 183.966 50.1098 186.078 50.2058L186.532 40.2161C186.524 40.2158 186.534 40.2157 186.556 40.2203C186.579 40.225 186.609 40.2331 186.641 40.2454C186.673 40.2577 186.7 40.2713 186.72 40.2832C186.74 40.2949 186.747 40.3012 186.741 40.2966L180.384 48.0159ZM186.305 50.2109H212.602V40.2109H186.305V50.2109ZM212.602 50.2109C212.661 50.2109 212.687 50.2157 212.686 50.2154C212.683 50.2149 212.66 50.2105 212.624 50.1966C212.587 50.1826 212.55 50.164 212.518 50.1432C212.502 50.1333 212.49 50.1244 212.481 50.1175C212.476 50.114 212.473 50.1113 212.471 50.1093C212.469 50.1074 212.468 50.1063 212.468 50.1063L219.345 42.8468C217.457 41.058 215.095 40.2109 212.602 40.2109V50.2109ZM212.561 50.193C212.597 50.225 212.513 50.1575 212.427 49.9739C212.338 49.7815 212.312 49.6021 212.312 49.5H222.312C222.312 46.7935 221.152 44.4707 219.251 42.7601L212.561 50.193ZM212.312 49.5C212.312 49.4506 212.326 49.3009 212.409 49.1185C212.49 48.9402 212.577 48.8633 212.561 48.8773L219.251 56.3102C221.2 54.5559 222.312 52.1914 222.312 49.5H212.312ZM212.468 48.964C212.468 48.964 212.469 48.9629 212.471 48.961C212.473 48.959 212.476 48.9563 212.481 48.9529C212.49 48.9459 212.502 48.937 212.518 48.9271C212.55 48.9063 212.587 48.8877 212.624 48.8737C212.66 48.8598 212.683 48.8554 212.686 48.8549C212.687 48.8546 212.661 48.8594 212.602 48.8594V58.8594C215.095 58.8594 217.457 58.0123 219.345 56.2235L212.468 48.964ZM212.602 48.8594H187.148V58.8594H212.602V48.8594ZM211.469 37.7578C211.469 37.4261 211.551 37.0547 211.725 36.7161C211.889 36.3972 212.065 36.2429 212.095 36.2185L218.452 43.9378C220.197 42.5006 221.469 40.3893 221.469 37.7578H211.469ZM211.999 36.2997C212.139 36.1784 212.304 36.0861 212.46 36.0329C212.605 35.9832 212.669 35.9922 212.602 35.9922V45.9922C214.68 45.9922 216.794 45.3769 218.548 43.8566L211.999 36.2997ZM212.602 35.9922H189.609V45.9922H212.602V35.9922ZM189.609 35.9922C189.544 35.9922 189.587 35.9837 189.696 36.0203C189.813 36.059 189.929 36.1234 190.02 36.1976L183.714 43.9587C185.459 45.3764 187.524 45.9922 189.609 45.9922V35.9922ZM190.16 36.3152C190.209 36.3586 190.375 36.5202 190.523 36.8245C190.677 37.1426 190.742 37.4756 190.742 37.7578H180.742C180.742 40.2715 181.884 42.3615 183.575 43.841L190.16 36.3152ZM190.742 37.7578C190.742 38.1071 190.657 38.4748 190.496 38.7986C190.343 39.1027 190.183 39.2503 190.16 39.2707L183.575 31.7449C181.956 33.1616 180.742 35.208 180.742 37.7578H190.742ZM190.02 39.3884C189.929 39.4625 189.813 39.5269 189.696 39.5657C189.587 39.6022 189.544 39.5938 189.609 39.5938V29.5938C187.524 29.5938 185.459 30.2095 183.714 31.6272L190.02 39.3884ZM189.609 39.5938H212.602V29.5938H189.609V39.5938ZM212.602 39.5938C212.628 39.5938 212.548 39.5965 212.406 39.5458C212.259 39.493 212.134 39.4138 212.051 39.341L218.636 31.8152C216.897 30.2936 214.784 29.5938 212.602 29.5938V39.5938ZM212.191 39.4587C212.127 39.4068 211.925 39.2234 211.744 38.8733C211.554 38.5045 211.469 38.1074 211.469 37.7578H221.469C221.469 35.1786 220.224 33.1013 218.497 31.6976L212.191 39.4587ZM234.891 59.9766L239.866 60.4741L239.891 60.2259V59.9766H234.891ZM230.25 64.5469V69.5469H230.458L230.665 69.5296L230.25 64.5469ZM226.805 63.2109L230.159 59.5032L230.15 59.4945L226.805 63.2109ZM225.398 26.5078L220.402 26.3294L220.398 26.4186V26.5078H225.398ZM226.875 23.2734L230.22 26.9899L230.27 26.9448L230.319 26.8984L226.875 23.2734ZM259.781 21.9375L259.952 16.9404L259.866 16.9375H259.781V21.9375ZM269.133 24.8906L265.858 28.6691L265.882 28.6901L265.907 28.7108L269.133 24.8906ZM273.703 31.0078L269.074 32.8973L269.081 32.9141L269.088 32.9309L273.703 31.0078ZM273.703 45L269.074 43.1105L269.064 43.1351L269.054 43.1598L273.703 45ZM269.133 51.1172L272.359 54.9373L272.366 54.931L269.133 51.1172ZM261.047 53.8594V58.8594H261.083L261.118 58.8589L261.047 53.8594ZM240.023 52.4531L243.648 49.0094L243.56 48.9164L243.467 48.8281L240.023 52.4531ZM263.648 43.3828L267.304 46.7944L267.358 46.7357L267.411 46.6753L263.648 43.3828ZM265.055 40.8516L260.311 39.2704L260.287 39.3423L260.266 39.4148L265.055 40.8516ZM265.055 35.0859L260.247 36.4595L260.287 36.5999L260.335 36.7377L265.055 35.0859ZM263.648 32.5547L259.886 35.8472L259.938 35.9076L259.993 35.9663L263.648 32.5547ZM261.328 31.3594L261.591 26.3663L261.46 26.3594H261.328V31.3594ZM236.719 31.3594V26.3594H236.623L236.527 26.3631L236.719 31.3594ZM229.915 59.479C229.885 59.7816 229.835 59.9021 229.835 59.9017C229.836 59.8997 229.849 59.8702 229.88 59.8233C229.912 59.7756 229.956 59.7208 230.011 59.6661C230.067 59.6114 230.122 59.5683 230.171 59.5369C230.219 59.5061 230.249 59.4934 230.252 59.4922C230.254 59.4913 230.135 59.5391 229.835 59.5641L230.665 69.5296C232.882 69.3449 235.199 68.5926 237.028 66.7909C238.856 64.9902 239.645 62.6862 239.866 60.4741L229.915 59.479ZM230.25 59.5469C230.227 59.5469 230.212 59.5459 230.202 59.5451C230.192 59.5442 230.187 59.5433 230.187 59.5433C230.186 59.5432 230.189 59.5437 230.194 59.5452C230.2 59.5466 230.206 59.5486 230.212 59.5511C230.226 59.5566 230.232 59.5607 230.228 59.558C230.223 59.555 230.2 59.5399 230.159 59.5033L223.45 66.9186C225.342 68.6305 227.682 69.5469 230.25 69.5469V59.5469ZM230.15 59.4945C230.156 59.5002 230.186 59.5283 230.225 59.5816C230.264 59.6359 230.303 59.7021 230.335 59.7759C230.405 59.9354 230.398 60.0269 230.398 59.9766H220.398C220.398 62.6412 221.421 65.0926 223.46 66.9274L230.15 59.4945ZM230.398 59.9766V26.5078H220.398V59.9766H230.398ZM230.395 26.6863C230.397 26.6463 230.4 26.6425 230.395 26.6672C230.389 26.693 230.376 26.7371 230.351 26.7913C230.326 26.8459 230.297 26.8949 230.267 26.9345C230.238 26.9735 230.218 26.9912 230.22 26.9899L223.53 19.557C221.54 21.3485 220.495 23.725 220.402 26.3294L230.395 26.6863ZM230.319 26.8984C230.341 26.8772 230.346 26.8763 230.332 26.8855C230.317 26.8952 230.292 26.9085 230.262 26.9205C230.232 26.9325 230.209 26.9378 230.199 26.9396C230.191 26.9412 230.206 26.9375 230.25 26.9375V16.9375C227.677 16.9375 225.313 17.8604 223.431 19.6484L230.319 26.8984ZM230.25 26.9375H259.781V16.9375H230.25V26.9375ZM259.611 26.9346C263.12 27.0542 264.943 27.8756 265.858 28.6691L272.407 21.1122C269.104 18.2494 264.692 17.102 259.952 16.9404L259.611 26.9346ZM265.907 28.7108C267.47 30.0309 268.475 31.429 269.074 32.8973L278.332 29.1183C277.057 25.9928 275.014 23.3129 272.359 21.0705L265.907 28.7108ZM269.088 32.9309C269.782 34.5964 270.109 36.2412 270.109 37.8984H280.109C280.109 34.8682 279.5 31.9192 278.319 29.0847L269.088 32.9309ZM270.109 37.8984C270.109 39.6763 269.771 41.4026 269.074 43.1105L278.332 46.8895C279.51 44.0037 280.109 40.9955 280.109 37.8984H270.109ZM269.054 43.1598C268.513 44.5263 267.534 45.9171 265.899 47.3034L272.366 54.931C275.044 52.661 277.112 49.9737 278.352 46.8402L269.054 43.1598ZM265.907 47.297C264.841 48.1976 263.328 48.8263 260.975 48.8599L261.118 58.8589C265.328 58.7987 269.206 57.5993 272.359 54.9373L265.907 47.297ZM261.047 48.8594H243.328V58.8594H261.047V48.8594ZM243.328 48.8594C243.299 48.8594 243.304 48.8568 243.336 48.8632C243.37 48.8697 243.419 48.883 243.475 48.907C243.532 48.9311 243.579 48.9588 243.614 48.9835C243.649 49.0077 243.659 49.0205 243.648 49.0094L236.398 55.8969C238.249 57.8448 240.668 58.8594 243.328 58.8594V48.8594ZM243.467 48.8281C243.456 48.8175 243.469 48.828 243.493 48.8622C243.518 48.8972 243.545 48.9447 243.57 49.0012C243.594 49.0576 243.607 49.1065 243.613 49.1402C243.62 49.1728 243.617 49.178 243.617 49.1484H233.617C233.617 51.8082 234.632 54.2276 236.58 56.0781L243.467 48.8281ZM243.617 49.1484C243.617 49.1037 243.621 49.0934 243.618 49.1106C243.614 49.1289 243.606 49.1651 243.587 49.2118C243.568 49.2589 243.544 49.3016 243.521 49.336C243.499 49.3699 243.484 49.3838 243.489 49.3793L236.418 42.3082C234.546 44.1796 233.617 46.572 233.617 49.1484H243.617ZM243.489 49.3793C243.516 49.3518 243.523 49.3492 243.508 49.3597C243.492 49.3706 243.463 49.3879 243.423 49.4044C243.383 49.4211 243.348 49.4307 243.323 49.4354C243.299 49.44 243.299 49.4375 243.328 49.4375V39.4375C240.674 39.4375 238.282 40.4437 236.418 42.3082L243.489 49.3793ZM243.328 49.4375H261.328V39.4375H243.328V49.4375ZM261.328 49.4375C263.724 49.4375 265.786 48.4203 267.304 46.7944L259.993 39.9712C260.055 39.9053 260.221 39.7519 260.507 39.622C260.802 39.4882 261.095 39.4375 261.328 39.4375V49.4375ZM267.411 46.6753C268.53 45.3973 269.353 43.9234 269.844 42.2883L260.266 39.4148C260.194 39.6547 260.08 39.8683 259.886 40.0903L267.411 46.6753ZM269.798 42.4327C270.278 40.9925 270.547 39.4978 270.547 37.9688H260.547C260.547 38.3147 260.487 38.7418 260.311 39.2704L269.798 42.4327ZM270.547 37.9688C270.547 36.4168 270.286 34.8977 269.774 33.4342L260.335 36.7377C260.479 37.1492 260.547 37.552 260.547 37.9688H270.547ZM269.862 33.7123C269.378 32.0173 268.535 30.4619 267.304 29.1431L259.993 35.9663C260.075 36.0538 260.169 36.1858 260.247 36.4595L269.862 33.7123ZM267.411 29.2622C265.981 27.627 263.995 26.4928 261.591 26.3663L261.065 36.3525C260.822 36.3397 260.545 36.2714 260.286 36.1382C260.039 36.0107 259.912 35.8774 259.886 35.8472L267.411 29.2622ZM261.328 26.3594H236.719V36.3594H261.328V26.3594ZM236.527 26.3631C235.181 26.4148 233.319 26.8095 231.812 28.316C230.273 29.8555 229.891 31.765 229.891 33.1875H239.891C239.891 33.4382 239.813 34.457 238.883 35.3871C237.986 36.2842 237.038 36.3508 236.911 36.3557L236.527 26.3631ZM229.891 33.1875V59.9766H239.891V33.1875H229.891ZM288.539 21.2344L288.724 16.2378L288.632 16.2344H288.539V21.2344ZM291.773 22.6406L288.238 26.1762L288.286 26.2239L288.335 26.2704L291.773 22.6406ZM293.18 25.8047H298.18V25.7121L298.176 25.6196L293.18 25.8047ZM293.18 50.1328L298.155 50.6303L298.18 50.3822V50.1328H293.18ZM288.539 54.7031V59.7031H288.747L288.954 59.6859L288.539 54.7031ZM285.094 53.4375L281.65 57.0625L281.743 57.1506L281.84 57.2338L285.094 53.4375ZM283.688 25.8047L278.691 25.6262L278.688 25.7154V25.8047H283.688ZM285.164 22.5703L288.509 26.2868L288.559 26.2417L288.608 26.1953L285.164 22.5703ZM288.354 26.2309C288.388 26.2322 288.394 26.2352 288.379 26.2319C288.363 26.2284 288.336 26.2206 288.303 26.2064C288.271 26.1922 288.245 26.1771 288.229 26.1662C288.214 26.1558 288.218 26.1558 288.238 26.1762L295.309 19.1051C293.52 17.3166 291.243 16.3311 288.724 16.2378L288.354 26.2309ZM288.335 26.2704C288.338 26.2733 288.322 26.2584 288.297 26.2239C288.272 26.1888 288.246 26.1448 288.224 26.0951C288.202 26.0457 288.19 26.0049 288.184 25.9797C288.179 25.9554 288.182 25.9564 288.183 25.9897L298.176 25.6196C298.083 23.0932 297.087 20.7866 295.212 19.0109L288.335 26.2704ZM288.18 25.8047V50.1328H298.18V25.8047H288.18ZM288.205 49.6353C288.174 49.9378 288.124 50.0583 288.124 50.058C288.125 50.056 288.138 50.0264 288.169 49.9796C288.201 49.9319 288.245 49.8771 288.3 49.8223C288.356 49.7676 288.411 49.7245 288.46 49.6932C288.508 49.6623 288.538 49.6496 288.541 49.6484C288.544 49.6475 288.424 49.6953 288.124 49.7204L288.954 59.6859C291.171 59.5011 293.488 58.7488 295.317 56.9472C297.146 55.1464 297.934 52.8424 298.155 50.6303L288.205 49.6353ZM288.539 49.7031C288.48 49.7031 288.445 49.6984 288.43 49.6959C288.416 49.6935 288.413 49.6919 288.417 49.6934C288.422 49.6949 288.421 49.6954 288.414 49.6913C288.407 49.6869 288.385 49.6728 288.348 49.6412L281.84 57.2338C283.743 58.8648 286.049 59.7031 288.539 59.7031V49.7031ZM288.537 49.8125C288.526 49.8019 288.539 49.8124 288.563 49.8466C288.588 49.8816 288.616 49.929 288.64 49.9856C288.664 50.042 288.677 50.0909 288.684 50.1246C288.69 50.1571 288.688 50.1624 288.688 50.1328H278.688C278.688 52.7926 279.702 55.212 281.65 57.0625L288.537 49.8125ZM288.688 50.1328V25.8047H278.688V50.1328H288.688ZM288.684 25.9831C288.686 25.9432 288.689 25.9394 288.684 25.9641C288.678 25.9899 288.665 26.0339 288.64 26.0882C288.615 26.1427 288.586 26.1918 288.556 26.2314C288.527 26.2703 288.508 26.288 288.509 26.2868L281.819 18.8538C279.829 20.6454 278.784 23.0219 278.691 25.6262L288.684 25.9831ZM288.608 26.1953C288.63 26.1741 288.635 26.1732 288.621 26.1824C288.606 26.1921 288.582 26.2054 288.551 26.2174C288.521 26.2294 288.498 26.2347 288.488 26.2365C288.48 26.2381 288.495 26.2344 288.539 26.2344V16.2344C285.966 16.2344 283.602 17.1573 281.72 18.9453L288.608 26.1953ZM287.633 12.0938C287.633 12.1254 287.629 12.1871 287.61 12.2688C287.591 12.3514 287.562 12.4315 287.527 12.5017C287.453 12.6492 287.402 12.6589 287.521 12.5599L281.119 4.87764C279.003 6.64109 277.633 9.11393 277.633 12.0938H287.633ZM287.521 12.5599C287.666 12.4392 287.864 12.3125 288.398 12.3125V2.3125C285.746 2.3125 283.225 3.12331 281.119 4.87764L287.521 12.5599ZM288.398 12.3125C288.933 12.3125 289.131 12.4392 289.276 12.5599L295.677 4.87764C293.572 3.12331 291.051 2.3125 288.398 2.3125V12.3125ZM289.276 12.5599C289.394 12.6589 289.344 12.6492 289.27 12.5017C289.235 12.4315 289.206 12.3514 289.187 12.2688C289.168 12.1871 289.164 12.1254 289.164 12.0938H299.164C299.164 9.11393 297.794 6.64109 295.677 4.87764L289.276 12.5599ZM289.164 12.0938C289.164 12.0866 289.165 12.0452 289.18 11.9794C289.195 11.9125 289.219 11.8418 289.252 11.7753C289.322 11.6322 289.376 11.6145 289.276 11.698L295.677 19.3802C297.842 17.5763 299.164 15.0629 299.164 12.0938H289.164ZM289.276 11.698C289.131 11.8186 288.933 11.9453 288.398 11.9453V21.9453C291.051 21.9453 293.572 21.1345 295.677 19.3802L289.276 11.698ZM288.398 11.9453C287.864 11.9453 287.666 11.8186 287.521 11.698L281.119 19.3802C283.225 21.1345 285.746 21.9453 288.398 21.9453V11.9453ZM287.521 11.698C287.421 11.6145 287.475 11.6322 287.545 11.7753C287.578 11.8418 287.602 11.9125 287.617 11.9794C287.632 12.0452 287.633 12.0866 287.633 12.0938H277.633C277.633 15.0629 278.955 17.5763 281.119 19.3802L287.521 11.698ZM306.609 11.25L306.794 6.25343L306.702 6.25H306.609V11.25ZM309.844 12.6562L306.308 16.1918L306.356 16.2396L306.405 16.286L309.844 12.6562ZM311.25 15.8203H316.25V15.7278L316.247 15.6353L311.25 15.8203ZM311.25 50.2734L316.225 50.771L316.25 50.5228V50.2734H311.25ZM306.609 54.8438V59.8438H306.817L307.025 59.8265L306.609 54.8438ZM303.164 53.5781L299.72 57.2031L299.813 57.2912L299.91 57.3744L303.164 53.5781ZM301.758 15.8203L296.761 15.6419L296.758 15.7311V15.8203H301.758ZM303.234 12.5859L306.579 16.3024L306.629 16.2573L306.678 16.2109L303.234 12.5859ZM315.539 30.8672L311.284 28.2417L311.272 28.2616L311.259 28.2816L315.539 30.8672ZM323.344 26.0156L324.639 30.8448L324.64 30.8446L323.344 26.0156ZM341.414 21.1641L342.711 25.993L342.773 25.9763L342.835 25.9581L341.414 21.1641ZM345 21.5156L342.619 25.9121L342.726 25.9703L342.836 26.0232L345 21.5156ZM347.32 24.2578L342.526 25.6783L342.558 25.7866L342.595 25.8934L347.32 24.2578ZM347.039 27.8438L342.603 25.537L342.585 25.5722L342.567 25.6077L347.039 27.8438ZM344.297 30.1641L345.551 35.0042L345.716 34.9614L345.878 34.9075L344.297 30.1641ZM325.031 35.1562L323.777 30.3161L323.513 30.3845L323.258 30.4813L325.031 35.1562ZM323.062 37.8281L328.059 38.0132L328.066 37.8281L328.059 37.6431L323.062 37.8281ZM325.031 40.5L323.258 45.175L323.513 45.2717L323.777 45.3401L325.031 40.5ZM344.297 45.4922L345.878 40.7488L345.716 40.6948L345.551 40.652L344.297 45.4922ZM347.039 47.8828L342.531 50.0465L342.584 50.1567L342.643 50.2642L347.039 47.8828ZM347.32 51.3984L342.595 49.7629L342.558 49.8697L342.526 49.978L347.32 51.3984ZM345 54.1406L342.836 49.633L342.726 49.6859L342.619 49.7442L345 54.1406ZM341.414 54.4922L342.835 49.6982L342.773 49.6799L342.711 49.6632L341.414 54.4922ZM323.344 49.6406L322.009 54.459L322.028 54.4644L322.047 54.4696L323.344 49.6406ZM315.469 44.7188L311.173 47.2778L311.193 47.3112L311.214 47.3443L315.469 44.7188ZM306.424 16.2466C306.458 16.2478 306.464 16.2508 306.449 16.2475C306.433 16.244 306.406 16.2363 306.374 16.2221C306.341 16.2079 306.315 16.1927 306.3 16.1819C306.285 16.1714 306.288 16.1715 306.308 16.1918L313.379 9.12072C311.591 7.33221 309.313 6.34672 306.794 6.25343L306.424 16.2466ZM306.405 16.286C306.408 16.2889 306.392 16.274 306.367 16.2395C306.342 16.2045 306.316 16.1604 306.294 16.1108C306.272 16.0614 306.26 16.0205 306.255 15.9953C306.249 15.971 306.252 15.972 306.253 16.0054L316.247 15.6353C316.153 13.1089 315.157 10.8022 313.282 9.02649L306.405 16.286ZM306.25 15.8203V50.2734H316.25V15.8203H306.25ZM306.275 49.7759C306.245 50.0785 306.194 50.1989 306.195 50.1986C306.195 50.1966 306.208 50.1671 306.239 50.1202C306.271 50.0725 306.315 50.0177 306.37 49.963C306.426 49.9082 306.482 49.8652 306.53 49.8338C306.578 49.8029 306.609 49.7902 306.612 49.7891C306.614 49.7882 306.495 49.836 306.194 49.861L307.025 59.8265C309.241 59.6417 311.558 58.8894 313.387 57.0878C315.216 55.287 316.004 52.9831 316.225 50.771L306.275 49.7759ZM306.609 49.8438C306.55 49.8438 306.515 49.8391 306.501 49.8365C306.486 49.8341 306.484 49.8325 306.488 49.834C306.492 49.8355 306.492 49.836 306.485 49.8319C306.477 49.8275 306.455 49.8134 306.418 49.7818L299.91 57.3744C301.813 59.0054 304.119 59.8438 306.609 59.8438V49.8438ZM306.608 49.9531C306.597 49.9425 306.61 49.953 306.634 49.9872C306.658 50.0222 306.686 50.0697 306.71 50.1262C306.734 50.1826 306.747 50.2315 306.754 50.2652C306.76 50.2978 306.758 50.303 306.758 50.2734H296.758C296.758 52.9332 297.772 55.3526 299.72 57.2031L306.608 49.9531ZM306.758 50.2734V15.8203H296.758V50.2734H306.758ZM306.755 15.9988C306.756 15.9588 306.76 15.955 306.754 15.9797C306.748 16.0055 306.735 16.0496 306.711 16.1038C306.686 16.1584 306.656 16.2074 306.626 16.247C306.597 16.286 306.578 16.3037 306.579 16.3024L299.89 8.86947C297.899 10.661 296.854 13.0375 296.761 15.6419L306.755 15.9988ZM306.678 16.2109C306.7 16.1897 306.705 16.1888 306.691 16.198C306.676 16.2077 306.652 16.221 306.621 16.233C306.591 16.245 306.568 16.2503 306.559 16.2521C306.55 16.2537 306.565 16.25 306.609 16.25V6.25C304.037 6.25 301.673 7.17289 299.791 8.96094L306.678 16.2109ZM319.794 33.4927C320.202 32.8319 321.385 31.7179 324.639 30.8448L322.048 21.1864C317.615 22.3759 313.595 24.4962 311.284 28.2417L319.794 33.4927ZM324.64 30.8446L342.711 25.993L340.118 16.3351L322.047 21.1866L324.64 30.8446ZM342.835 25.9581C342.877 25.9456 342.888 25.9461 342.871 25.9479C342.853 25.9497 342.819 25.9514 342.772 25.9468C342.725 25.9422 342.682 25.9329 342.649 25.9224C342.616 25.9122 342.606 25.905 342.619 25.9121L347.381 17.1192C345.051 15.8569 342.484 15.6321 339.994 16.3701L342.835 25.9581ZM342.836 26.0232C342.845 26.0276 342.823 26.0176 342.781 25.9861C342.739 25.9539 342.69 25.909 342.642 25.8528C342.537 25.729 342.515 25.6412 342.526 25.6783L352.114 22.8374C351.345 20.2413 349.631 18.1925 347.164 17.008L342.836 26.0232ZM342.595 25.8934C342.599 25.9039 342.592 25.8852 342.586 25.8409C342.579 25.7956 342.577 25.7391 342.582 25.6774C342.587 25.6159 342.597 25.5674 342.606 25.5368C342.615 25.5073 342.619 25.5069 342.603 25.537L351.475 30.1505C352.701 27.7932 352.929 25.174 352.045 22.6223L342.595 25.8934ZM342.567 25.6077C342.567 25.6079 342.578 25.5861 342.605 25.5519C342.632 25.5171 342.665 25.4818 342.702 25.4506C342.738 25.4197 342.766 25.4031 342.776 25.3977C342.785 25.3928 342.768 25.4032 342.716 25.4206L345.878 34.9075C348.317 34.0945 350.317 32.4684 351.511 30.0798L342.567 25.6077ZM343.043 25.3239L323.777 30.3161L326.285 39.9964L345.551 35.0042L343.043 25.3239ZM323.258 30.4813C321.956 30.975 320.547 31.8167 319.494 33.2449C318.4 34.7301 318.007 36.4224 318.066 38.0132L328.059 37.6431C328.071 37.9682 327.983 38.5824 327.545 39.1769C327.149 39.7146 326.747 39.8531 326.805 39.8312L323.258 30.4813ZM318.066 37.6431C318.007 39.2339 318.4 40.9262 319.494 42.4113C320.547 43.8396 321.956 44.6813 323.258 45.175L326.805 35.825C326.747 35.8031 327.149 35.9417 327.545 36.4793C327.983 37.0738 328.071 37.688 328.059 38.0132L318.066 37.6431ZM323.777 45.3401L343.043 50.3323L345.551 40.652L326.285 35.6599L323.777 45.3401ZM342.716 50.2356C342.755 50.2486 342.759 50.2538 342.74 50.243C342.72 50.2317 342.686 50.2097 342.646 50.1751C342.606 50.1404 342.574 50.1046 342.551 50.0742C342.529 50.0445 342.524 50.0317 342.531 50.0465L351.547 45.7192C350.381 43.2909 348.39 41.5862 345.878 40.7488L342.716 50.2356ZM342.643 50.2642C342.645 50.2687 342.596 50.1723 342.582 50.0042C342.569 49.8371 342.602 49.7426 342.595 49.7629L352.045 53.034C352.922 50.5016 352.719 47.8713 351.436 45.5014L342.643 50.2642ZM342.526 49.978C342.515 50.015 342.537 49.9273 342.642 49.8035C342.69 49.7472 342.739 49.7024 342.781 49.6702C342.823 49.6387 342.845 49.6287 342.836 49.633L347.164 58.6482C349.631 57.4637 351.345 55.415 352.114 52.8189L342.526 49.978ZM342.619 49.7442C342.606 49.7512 342.616 49.7441 342.649 49.7338C342.682 49.7234 342.725 49.714 342.772 49.7094C342.819 49.7048 342.853 49.7065 342.871 49.7084C342.888 49.7101 342.877 49.7107 342.835 49.6982L339.994 59.2862C342.484 60.0241 345.051 59.7993 347.381 58.5371L342.619 49.7442ZM342.711 49.6632L324.64 44.8116L322.047 54.4696L340.118 59.3212L342.711 49.6632ZM324.679 44.8222C321.349 43.8995 320.135 42.7595 319.724 42.0932L311.214 47.3443C313.521 51.0842 317.557 53.2255 322.009 54.459L324.679 44.8222ZM319.764 42.1597C318.878 40.6722 318.5 39.2522 318.5 37.8281H308.5C308.5 41.1853 309.434 44.3591 311.173 47.2778L319.764 42.1597ZM318.5 37.8281C318.5 36.4382 318.882 35.0028 319.819 33.4528L311.259 28.2816C309.477 31.2315 308.5 34.4368 308.5 37.8281H318.5ZM359.766 11.25L359.951 6.25343L359.858 6.25H359.766V11.25ZM363 12.6562L359.464 16.1918L359.512 16.2396L359.561 16.286L363 12.6562ZM364.406 15.8203H369.406V15.7278L369.403 15.6353L364.406 15.8203ZM364.406 50.2734L369.381 50.771L369.406 50.5228V50.2734H364.406ZM359.766 54.8438V59.8438H359.974L360.181 59.8265L359.766 54.8438ZM356.32 53.5781L352.877 57.2031L352.969 57.2912L353.066 57.3744L356.32 53.5781ZM354.914 15.8203L349.917 15.6419L349.914 15.7311V15.8203H354.914ZM356.391 12.5859L359.735 16.3024L359.786 16.2573L359.834 16.2109L356.391 12.5859ZM368.695 30.8672L364.44 28.2417L364.428 28.2616L364.416 28.2816L368.695 30.8672ZM376.5 26.0156L377.796 30.8448L377.796 30.8446L376.5 26.0156ZM394.57 21.1641L395.867 25.993L395.929 25.9763L395.991 25.9581L394.57 21.1641ZM398.156 21.5156L395.775 25.9121L395.882 25.9703L395.993 26.0232L398.156 21.5156ZM400.477 24.2578L395.683 25.6783L395.715 25.7866L395.752 25.8934L400.477 24.2578ZM400.195 27.8438L395.759 25.537L395.741 25.5722L395.723 25.6077L400.195 27.8438ZM397.453 30.1641L398.707 35.0042L398.872 34.9614L399.034 34.9075L397.453 30.1641ZM378.188 35.1562L376.933 30.3161L376.669 30.3845L376.414 30.4813L378.188 35.1562ZM376.219 37.8281L381.215 38.0132L381.222 37.8281L381.215 37.6431L376.219 37.8281ZM378.188 40.5L376.414 45.175L376.669 45.2717L376.933 45.3401L378.188 40.5ZM397.453 45.4922L399.034 40.7488L398.872 40.6948L398.707 40.652L397.453 45.4922ZM400.195 47.8828L395.688 50.0465L395.741 50.1567L395.799 50.2642L400.195 47.8828ZM400.477 51.3984L395.752 49.7629L395.715 49.8697L395.683 49.978L400.477 51.3984ZM398.156 54.1406L395.993 49.633L395.882 49.6859L395.775 49.7442L398.156 54.1406ZM394.57 54.4922L395.991 49.6982L395.929 49.6799L395.867 49.6632L394.57 54.4922ZM376.5 49.6406L375.165 54.459L375.184 54.4644L375.204 54.4696L376.5 49.6406ZM368.625 44.7188L364.329 47.2778L364.349 47.3112L364.37 47.3443L368.625 44.7188ZM359.581 16.2466C359.614 16.2478 359.621 16.2508 359.605 16.2475C359.59 16.244 359.562 16.2363 359.53 16.2221C359.497 16.2079 359.472 16.1927 359.456 16.1819C359.441 16.1714 359.444 16.1715 359.464 16.1918L366.536 9.12072C364.747 7.33221 362.47 6.34672 359.951 6.25343L359.581 16.2466ZM359.561 16.286C359.564 16.2889 359.548 16.274 359.524 16.2395C359.498 16.2045 359.473 16.1604 359.45 16.1108C359.429 16.0614 359.417 16.0205 359.411 15.9953C359.406 15.971 359.408 15.972 359.41 16.0054L369.403 15.6353C369.309 13.1089 368.313 10.8022 366.439 9.02649L359.561 16.286ZM359.406 15.8203V50.2734H369.406V15.8203H359.406ZM359.431 49.7759C359.401 50.0785 359.351 50.1989 359.351 50.1986C359.352 50.1966 359.364 50.1671 359.396 50.1202C359.427 50.0725 359.471 50.0177 359.527 49.963C359.582 49.9082 359.638 49.8652 359.687 49.8338C359.734 49.8029 359.765 49.7902 359.768 49.7891C359.77 49.7882 359.651 49.836 359.35 49.861L360.181 59.8265C362.398 59.6417 364.714 58.8894 366.544 57.0878C368.372 55.287 369.16 52.9831 369.381 50.771L359.431 49.7759ZM359.766 49.8438C359.706 49.8438 359.672 49.8391 359.657 49.8365C359.643 49.8341 359.64 49.8325 359.644 49.834C359.648 49.8355 359.648 49.836 359.641 49.8319C359.634 49.8275 359.611 49.8134 359.574 49.7818L353.066 57.3744C354.969 59.0054 357.276 59.8438 359.766 59.8438V49.8438ZM359.764 49.9531C359.753 49.9425 359.766 49.953 359.79 49.9872C359.815 50.0222 359.842 50.0697 359.866 50.1262C359.89 50.1826 359.904 50.2315 359.91 50.2652C359.917 50.2978 359.914 50.303 359.914 50.2734H349.914C349.914 52.9332 350.929 55.3526 352.877 57.2031L359.764 49.9531ZM359.914 50.2734V15.8203H349.914V50.2734H359.914ZM359.911 15.9988C359.912 15.9588 359.916 15.955 359.91 15.9797C359.904 16.0055 359.892 16.0496 359.867 16.1038C359.842 16.1584 359.812 16.2074 359.783 16.247C359.754 16.286 359.734 16.3037 359.735 16.3024L353.046 8.86947C351.055 10.661 350.01 13.0375 349.917 15.6419L359.911 15.9988ZM359.834 16.2109C359.857 16.1897 359.861 16.1888 359.847 16.198C359.832 16.2077 359.808 16.221 359.778 16.233C359.747 16.245 359.725 16.2503 359.715 16.2521C359.706 16.2537 359.721 16.25 359.766 16.25V6.25C357.193 6.25 354.829 7.17289 352.947 8.96094L359.834 16.2109ZM372.95 33.4927C373.358 32.8319 374.542 31.7179 377.796 30.8448L375.204 21.1864C370.771 22.3759 366.751 24.4962 364.44 28.2417L372.95 33.4927ZM377.796 30.8446L395.867 25.993L393.274 16.3351L375.204 21.1866L377.796 30.8446ZM395.991 25.9581C396.033 25.9456 396.044 25.9461 396.027 25.9479C396.01 25.9497 395.975 25.9514 395.928 25.9468C395.881 25.9422 395.839 25.9329 395.805 25.9224C395.772 25.9122 395.762 25.905 395.775 25.9121L400.538 17.1192C398.207 15.8569 395.64 15.6321 393.15 16.3701L395.991 25.9581ZM395.993 26.0232C396.002 26.0276 395.979 26.0176 395.937 25.9861C395.895 25.9539 395.846 25.909 395.798 25.8528C395.694 25.729 395.672 25.6412 395.683 25.6783L405.271 22.8374C404.501 20.2413 402.788 18.1925 400.32 17.008L395.993 26.0232ZM395.752 25.8934C395.755 25.9039 395.748 25.8852 395.742 25.8409C395.736 25.7956 395.733 25.7391 395.738 25.6774C395.743 25.6159 395.754 25.5674 395.763 25.5368C395.771 25.5073 395.775 25.5069 395.759 25.537L404.631 30.1505C405.857 27.7932 406.085 25.174 405.201 22.6223L395.752 25.8934ZM395.723 25.6077C395.723 25.6079 395.734 25.5861 395.761 25.5519C395.788 25.5171 395.821 25.4818 395.858 25.4506C395.895 25.4197 395.922 25.4031 395.932 25.3977C395.941 25.3928 395.924 25.4032 395.872 25.4206L399.034 34.9075C401.473 34.0945 403.473 32.4684 404.667 30.0798L395.723 25.6077ZM396.199 25.3239L376.933 30.3161L379.442 39.9964L398.707 35.0042L396.199 25.3239ZM376.414 30.4813C375.113 30.975 373.703 31.8167 372.651 33.2449C371.556 34.7301 371.163 36.4224 371.222 38.0132L381.215 37.6431C381.227 37.9682 381.139 38.5824 380.701 39.1769C380.305 39.7146 379.903 39.8531 379.961 39.8312L376.414 30.4813ZM371.222 37.6431C371.163 39.2339 371.556 40.9262 372.651 42.4113C373.703 43.8396 375.113 44.6813 376.414 45.175L379.961 35.825C379.903 35.8031 380.305 35.9417 380.701 36.4793C381.139 37.0738 381.227 37.688 381.215 38.0132L371.222 37.6431ZM376.933 45.3401L396.199 50.3323L398.707 40.652L379.442 35.6599L376.933 45.3401ZM395.872 50.2356C395.911 50.2486 395.916 50.2538 395.896 50.243C395.876 50.2317 395.842 50.2097 395.802 50.1751C395.762 50.1404 395.73 50.1046 395.708 50.0742C395.685 50.0445 395.681 50.0317 395.688 50.0465L404.703 45.7192C403.537 43.2909 401.546 41.5862 399.034 40.7488L395.872 50.2356ZM395.799 50.2642C395.801 50.2687 395.752 50.1723 395.739 50.0042C395.725 49.8371 395.759 49.7426 395.752 49.7629L405.201 53.034C406.078 50.5016 405.875 47.8713 404.592 45.5014L395.799 50.2642ZM395.683 49.978C395.672 50.015 395.694 49.9273 395.798 49.8035C395.846 49.7472 395.895 49.7024 395.937 49.6702C395.979 49.6387 396.002 49.6287 395.993 49.633L400.32 58.6482C402.788 57.4637 404.501 55.415 405.271 52.8189L395.683 49.978ZM395.775 49.7442C395.762 49.7512 395.772 49.7441 395.805 49.7338C395.839 49.7234 395.881 49.714 395.928 49.7094C395.975 49.7048 396.01 49.7065 396.027 49.7084C396.044 49.7101 396.033 49.7107 395.991 49.6982L393.15 59.2862C395.64 60.0241 398.207 59.7993 400.538 58.5371L395.775 49.7442ZM395.867 49.6632L377.796 44.8116L375.204 54.4696L393.274 59.3212L395.867 49.6632ZM377.835 44.8222C374.506 43.8995 373.291 42.7595 372.88 42.0932L364.37 47.3443C366.677 51.0842 370.713 53.2255 375.165 54.459L377.835 44.8222ZM372.921 42.1597C372.034 40.6722 371.656 39.2522 371.656 37.8281H361.656C361.656 41.1853 362.591 44.3591 364.329 47.2778L372.921 42.1597ZM371.656 37.8281C371.656 36.4382 372.038 35.0028 372.975 33.4528L364.416 28.2816C362.633 31.2315 361.656 34.4368 361.656 37.8281H371.656Z"></path>
</g>
<defs>
<filter color-interpolation-filters="sRGB" filterUnits="userSpaceOnUse" height="71.2344" width="407.68" y="0.3125" x="0.429688" id="filter0_d_661_12">








</filter>
</defs>
</svg>
