<svg version="1.1" xmlns="http://www.w3.org/2000/svg" xmlns:xlink="http://www.w3.org/1999/xlink" width="683" height="531" viewBox="0,0,683,531"><defs><linearGradient x1="240" y1="-62.5" x2="240" y2="422.5" gradientUnits="userSpaceOnUse" id="color-1"><stop offset="0" stop-color="#0286ff"/><stop offset="1" stop-color="#255995"/></linearGradient></defs><g transform="translate(81,62.5)"><g data-paper-data="{&quot;isPaintingLayer&quot;:true}" fill-rule="nonzero" stroke="none" stroke-width="1" stroke-linecap="butt" stroke-linejoin="miter" stroke-miterlimit="10" stroke-dasharray="" stroke-dashoffset="0" style="mix-blend-mode: normal"><path d="M-81,422.5v-485h642v485z" fill="url(#color-1)"/><path d="M302,318.5c0,-82.84271 67.15729,-150 150,-150c82.84271,0 150,67.15729 150,150c0,82.84271 -67.15729,150 -150,150c-82.84271,0 -150,-67.15729 -150,-150z" fill-opacity="0.25" fill="#ffffff"/><path d="M341,306.5c0,-55.22847 44.77153,-100 100,-100c55.22848,0 100,44.77153 100,100c0,55.22848 -44.77152,100 -100,100c-55.22847,0 -100,-44.77152 -100,-100z" fill-opacity="0.25" fill="#ffffff"/><path d="M391,306.5c0,-27.61424 22.38576,-50 50,-50c27.61424,0 50,22.38576 50,50c0,27.61424 -22.38576,50 -50,50c-27.61424,0 -50,-22.38576 -50,-50z" fill-opacity="0.25" fill="#ffffff"/></g></g></svg>