<svg version="1.1" xmlns="http://www.w3.org/2000/svg" xmlns:xlink="http://www.w3.org/1999/xlink" width="105.35535" height="20.35535" viewBox="0,0,105.35535,20.35535"><g transform="translate(-187.31132,-216.22213)"><g data-paper-data="{&quot;isPaintingLayer&quot;:true}" fill-rule="nonzero" stroke="none" stroke-linecap="butt" stroke-linejoin="miter" stroke-miterlimit="10" stroke-dasharray="" stroke-dashoffset="0" style="mix-blend-mode: normal"><g><path d="M197.41383,236.44452v-20.16176h85.17233v20.16176z" fill="#c4c4c4" stroke-width="0"/><path d="M187.31132,226.31647c0,-5.57495 4.51939,-10.09434 10.09434,-10.09434c5.57495,0 10.09434,4.51939 10.09434,10.09434c0,5.57495 -4.51939,10.09434 -10.09434,10.09434c-5.57495,0 -10.09434,-4.51939 -10.09434,-10.09434z" fill="#c4c4c4" stroke-width="0"/><path d="M272.47799,226.48314c0,-5.57495 4.51939,-10.09434 10.09434,-10.09434c5.57495,0 10.09434,4.51939 10.09434,10.09434c0,5.57495 -4.51939,10.09434 -10.09434,10.09434c-5.57495,0 -10.09434,-4.51939 -10.09434,-10.09434z" fill="#c4c4c4" stroke-width="0"/><text transform="translate(198.7381,230.08652) scale(0.31024,0.31024)" font-size="40" xml:space="preserve" fill="#ffffff" fill-rule="nonzero" stroke="none" stroke-width="1" stroke-linecap="butt" stroke-linejoin="miter" stroke-miterlimit="10" stroke-dasharray="" stroke-dashoffset="0" font-family="Sans Serif" font-weight="normal" text-anchor="start" style="mix-blend-mode: normal"><tspan x="0" dy="0">UNAVAILABLE</tspan></text></g></g></g></svg>