<svg version="1.1" xmlns="http://www.w3.org/2000/svg" xmlns:xlink="http://www.w3.org/1999/xlink" width="553.99699" height="424.05063" viewBox="0,0,553.99699,424.05063"><defs><linearGradient x1="237.8891" y1="244.11076" x2="237.8891" y2="273.18294" gradientUnits="userSpaceOnUse" id="color-1"><stop offset="0" stop-color="#000000"/><stop offset="1" stop-color="#616161"/></linearGradient><linearGradient x1="262.14626" y1="256.0292" x2="262.14626" y2="273.30326" gradientUnits="userSpaceOnUse" id="color-2"><stop offset="0" stop-color="#000000"/><stop offset="1" stop-color="#616161"/></linearGradient></defs><g transform="translate(35.0045,32.36769)"><g data-paper-data="{&quot;isPaintingLayer&quot;:true}" fill-rule="nonzero" stroke-linejoin="miter" stroke-miterlimit="10" stroke-dasharray="" stroke-dashoffset="0" style="mix-blend-mode: normal"><path d="M-35.0045,391.68294v-5h541v5z" fill-opacity="0.45968" fill="#000000" stroke="none" stroke-width="0" stroke-linecap="butt"/><path d="M222.91659,273.18294l14.97251,-29.07218l14.97251,29.07218z" fill="url(#color-1)" stroke="#fffee0" stroke-width="2" stroke-linecap="butt"/><path d="M253.24992,273.30326l8.89634,-17.27405l8.89634,17.27405z" fill="url(#color-2)" stroke="#fffee0" stroke-width="2" stroke-linecap="butt"/><path d="M-6.2545,363.68294v-88.5h488.5v88.5z" fill="#75baff" stroke="none" stroke-width="0" stroke-linecap="butt"/><path d="M2.7455,356.10977v-74.92683h72v74.92683z" fill="#42a0ff" stroke="none" stroke-width="0" stroke-linecap="butt"/><path d="M82.7455,356.14636v-74.92683h72v74.92683z" fill="#42a0ff" stroke="none" stroke-width="0" stroke-linecap="butt"/><path d="M162.2455,356.60977v-74.92683h72v74.92683z" fill="#42a0ff" stroke="none" stroke-width="0" stroke-linecap="butt"/><path d="M242.24549,356.64636v-74.92683h72v74.92683z" fill="#42a0ff" stroke="none" stroke-width="0" stroke-linecap="butt"/><path d="M323.7455,356.60977v-74.92683h72v74.92683z" fill="#42a0ff" stroke="none" stroke-width="0" stroke-linecap="butt"/><path d="M403.74553,356.64636v-74.92683h72v74.92683z" fill="#42a0ff" stroke="none" stroke-width="0" stroke-linecap="butt"/><path d="M-2.17417,274.53524h482.32733" fill="none" stroke="#ffffff" stroke-width="2" stroke-linecap="round"/><path d="M-22.00751,-27.36769v-5h541v5z" fill-opacity="0.45968" fill="#000000" stroke="none" stroke-width="0" stroke-linecap="butt"/></g></g></svg>