<svg version="1.1" xmlns="http://www.w3.org/2000/svg" xmlns:xlink="http://www.w3.org/1999/xlink" width="551.74249" height="424.86769" viewBox="0,0,551.74249,424.86769"><defs><linearGradient x1="287.78817" y1="259.29752" x2="256.93795" y2="259.29752" gradientUnits="userSpaceOnUse" id="color-1"><stop offset="0" stop-color="#000000"/><stop offset="1" stop-color="#616161"/></linearGradient><linearGradient x1="436.58243" y1="257.05203" x2="436.58243" y2="273.13464" gradientUnits="userSpaceOnUse" id="color-2"><stop offset="0" stop-color="#000000"/><stop offset="1" stop-color="#616161"/></linearGradient><linearGradient x1="240.13778" y1="212.06931" x2="240.13778" y2="242.91953" gradientUnits="userSpaceOnUse" id="color-3"><stop offset="0" stop-color="#000000"/><stop offset="1" stop-color="#616161"/></linearGradient><linearGradient x1="272.2767" y1="211.96627" x2="272.2767" y2="242.81649" gradientUnits="userSpaceOnUse" id="color-4"><stop offset="0" stop-color="#000000"/><stop offset="1" stop-color="#616161"/></linearGradient></defs><g transform="translate(32.75,32.36769)"><g data-paper-data="{&quot;isPaintingLayer&quot;:true}" fill-rule="nonzero" stroke-linejoin="miter" stroke-miterlimit="10" stroke-dasharray="" stroke-dashoffset="0" style="mix-blend-mode: normal"><path d="M-32.75,392.5v-5h541v5z" fill-opacity="0.45968" fill="#000000" stroke="none" stroke-width="0" stroke-linecap="butt"/><path d="M-4,364.5v-88.5h488.5v88.5z" fill="#75baff" stroke="none" stroke-width="0" stroke-linecap="butt"/><path d="M5,356.92683v-74.92683h72v74.92683z" fill="#42a0ff" stroke="none" stroke-width="0" stroke-linecap="butt"/><path d="M85,356.96342v-74.92683h72v74.92683z" fill="#42a0ff" stroke="none" stroke-width="0" stroke-linecap="butt"/><path d="M164.5,357.42683v-74.92683h72v74.92683z" fill="#42a0ff" stroke="none" stroke-width="0" stroke-linecap="butt"/><path d="M244.5,357.46342v-74.92683h72v74.92683z" fill="#42a0ff" stroke="none" stroke-width="0" stroke-linecap="butt"/><path d="M326,357.42683v-74.92683h72v74.92683z" fill="#42a0ff" stroke="none" stroke-width="0" stroke-linecap="butt"/><path d="M406,357.46342v-74.92683h72v74.92683z" fill="#42a0ff" stroke="none" stroke-width="0" stroke-linecap="butt"/><path d="M482.40766,275.3523h-482.32733" fill="none" stroke="#ffffff" stroke-width="2" stroke-linecap="round"/><path d="M256.93795,243.87241h30.85022v30.85022h-30.85022z" fill="url(#color-1)" stroke="#ffffff" stroke-width="2" stroke-linecap="butt"/><path d="M421.60992,273.13464l14.97251,-16.08261l14.97251,16.08261z" fill="url(#color-2)" stroke="#fffee0" stroke-width="2" stroke-linecap="butt"/><path d="M224.71267,242.91953v-30.85022h30.85022v30.85022z" fill="url(#color-3)" stroke="#ffffff" stroke-width="2" stroke-linecap="butt"/><path d="M256.85159,242.81649v-30.85022h30.85022v30.85022z" fill="url(#color-4)" stroke="#ffffff" stroke-width="2" stroke-linecap="butt"/><path d="M-22.00751,-27.36769v-5h541v5z" fill-opacity="0.45968" fill="#000000" stroke="none" stroke-width="0" stroke-linecap="butt"/></g></g></svg>