<svg version="1.1" xmlns="http://www.w3.org/2000/svg" xmlns:xlink="http://www.w3.org/1999/xlink" width="367.17539" height="266.25" viewBox="0,0,367.17539,266.25"><defs><linearGradient x1="167.8125" y1="163.125" x2="247.1875" y2="163.125" gradientUnits="userSpaceOnUse" id="color-1"><stop offset="0" stop-color="#000000"/><stop offset="1" stop-color="#000000" stop-opacity="0"/></linearGradient></defs><g transform="translate(-0.0625,-30)"><g data-paper-data="{&quot;isPaintingLayer&quot;:true}" fill-rule="nonzero" stroke="none" stroke-linecap="butt" stroke-linejoin="miter" stroke-miterlimit="10" stroke-dasharray="" stroke-dashoffset="0" style="mix-blend-mode: normal"><path d="M133.42188,282.20313v-241.90625h233v241.90625z" fill="#ffffff" stroke-width="0"/><path d="M123.5,293.375v-263h233v263z" fill="#ffffff" stroke-width="0"/><path d="M167.8125,296.25v-266.25h79.375v266.25z" fill="url(#color-1)" stroke-width="0"/><text transform="translate(207.07123,210.89636) rotate(-90) scale(0.5,0.5)" font-size="40" xml:space="preserve" fill="#ffffff" fill-rule="nonzero" stroke="none" stroke-width="1" stroke-linecap="butt" stroke-linejoin="miter" stroke-miterlimit="10" stroke-dasharray="" stroke-dashoffset="0" font-family="Sans Serif" font-weight="normal" text-anchor="start" style="mix-blend-mode: normal"><tspan x="0" dy="0">waferOS 4</tspan></text><text transform="translate(0.3125,165.625) scale(0.5,0.5)" font-size="40" xml:space="preserve" fill="#000000" fill-rule="nonzero" stroke="none" stroke-width="1" stroke-linecap="butt" stroke-linejoin="miter" stroke-miterlimit="10" stroke-dasharray="" stroke-dashoffset="0" font-family="Sans Serif" font-weight="normal" text-anchor="start" style="mix-blend-mode: normal"><tspan x="0" dy="0"> </tspan></text><path d="M366.67017,39.43892c0,4.97762 -3.83483,9.01278 -8.56534,9.01278c-4.73051,0 -8.56534,-4.03516 -8.56534,-9.01278c0,-4.97762 3.83483,-9.01278 8.56534,-9.01278c4.73051,0 8.56534,4.03516 8.56534,9.01278z" fill="#ffffff" stroke-width="0"/><path d="M367.23789,284.77493c0,4.97763 -3.83483,9.01279 -8.56534,9.01279c-4.7305,0 -8.56534,-4.03516 -8.56534,-9.01279c0,-4.97762 3.83483,-9.01278 8.56534,-9.01278c4.7305,0 8.56534,4.03516 8.56534,9.01278z" fill="#ffffff" stroke-width="0"/></g></g></svg>