<svg version="1.1" xmlns="http://www.w3.org/2000/svg" xmlns:xlink="http://www.w3.org/1999/xlink" width="551.20206" height="416.40654" viewBox="0,0,551.20206,416.40654"><defs><linearGradient x1="240" y1="-28.20327" x2="240" y2="388.20327" gradientUnits="userSpaceOnUse" id="color-1"><stop offset="0" stop-color="#ff0202"/><stop offset="1" stop-color="#952525"/></linearGradient></defs><g transform="translate(35.60103,28.20327)"><g data-paper-data="{&quot;isPaintingLayer&quot;:true}" fill-rule="nonzero" stroke="none" stroke-width="1" stroke-linecap="butt" stroke-linejoin="miter" stroke-miterlimit="10" stroke-dasharray="" stroke-dashoffset="0" style="mix-blend-mode: normal"><path d="M-35.60103,388.20327v-416.40654h551.20206v416.40654z" fill="url(#color-1)"/><path d="M-30.44961,105.73368v-128.78553h128.78553v128.78553z" fill-opacity="0.25" fill="#ffffff"/><path d="M106.92162,105.73368v-128.78553h128.78553v128.78553z" fill-opacity="0.25" fill="#ffffff"/><path d="M244.29285,105.73368v-128.78553h128.78553v128.78553z" fill-opacity="0.25" fill="#ffffff"/><path d="M381.66408,105.73368v-128.78553h128.78553v128.78553z" fill-opacity="0.25" fill="#ffffff"/><path d="M-30.44961,383.05185v-128.78553h128.78553v128.78553z" fill-opacity="0.25" fill="#ffffff"/><path d="M106.92162,383.05185v-128.78553h128.78553v128.78553z" fill-opacity="0.25" fill="#ffffff"/><path d="M244.29285,383.05185v-128.78553h128.78553v128.78553z" fill-opacity="0.25" fill="#ffffff"/><path d="M381.66408,383.05185v-128.78553h128.78553v128.78553z" fill-opacity="0.25" fill="#ffffff"/><path d="M-30.44961,243.96348v-128.78553h128.78553v128.78553z" fill-opacity="0.25" fill="#ffffff"/><path d="M106.92162,243.96348v-128.78553h128.78553v128.78553z" fill-opacity="0.25" fill="#ffffff"/><path d="M244.29285,243.96348v-128.78553h128.78553v128.78553z" fill-opacity="0.25" fill="#ffffff"/><path d="M381.66408,243.96348v-128.78553h128.78553v128.78553z" fill-opacity="0.25" fill="#ffffff"/></g></g></svg>