<svg version="1.1" xmlns="http://www.w3.org/2000/svg" xmlns:xlink="http://www.w3.org/1999/xlink" width="65.93585" height="65.93592" viewBox="0,0,65.93585,65.93592"><defs><linearGradient x1="240.00003" y1="147.03204" x2="240.00003" y2="212.96796" gradientUnits="userSpaceOnUse" id="color-1"><stop offset="0" stop-color="#ffffff"/><stop offset="1" stop-color="#808080"/></linearGradient></defs><g transform="translate(-207.03208,-147.03204)"><g data-paper-data="{&quot;isPaintingLayer&quot;:true}" fill-rule="nonzero" stroke="none" stroke-width="1" stroke-linecap="butt" stroke-linejoin="miter" stroke-miterlimit="10" stroke-dasharray="" stroke-dashoffset="0" style="mix-blend-mode: normal"><path d="M207.03208,180c0,-18.20768 14.76028,-32.96796 32.96796,-32.96796c18.20768,0 32.96789,14.76028 32.96789,32.96796c0,18.20768 -14.76021,32.96796 -32.96789,32.96796c-18.20768,0 -32.96796,-14.76028 -32.96796,-32.96796z" fill="url(#color-1)"/><path d="M261.2054,179.92114c0,-5.64495 -2.24248,-11.05863 -6.23404,-15.05019c-3.99156,-3.99156 -9.40524,-6.23404 -15.05019,-6.23404c-5.64495,0 -11.05863,2.24248 -15.05019,6.23404c-3.99156,3.99156 -6.23404,9.40524 -6.23404,15.05019h-11.60486c0,-8.72274 3.46509,-17.0882 9.63297,-23.25612c6.16792,-6.16788 14.53338,-9.63297 23.25612,-9.63297c8.72274,0 17.0882,3.46509 23.25612,9.63297c6.16792,6.16792 9.63297,14.53338 9.63297,23.25612z" fill="#e60000"/><path d="M229.60438,157.41807c-0.05539,0 -0.10386,-0.02077 -0.1454,-0.06232c-0.04154,-0.04154 -0.06232,-0.09001 -0.06232,-0.1454c0,-0.03462 0.00346,-0.0727 0.01039,-0.11425l2.57574,-6.71976c0.0277,-0.06924 0.06578,-0.12463 0.11425,-0.16618c0.04847,-0.04154 0.12117,-0.06232 0.21811,-0.06232h0.70625c0.09001,0 0.15925,0.02077 0.20772,0.06232c0.05539,0.04154 0.09694,0.09694 0.12463,0.16618l2.56535,6.71976c0.01385,0.04154 0.02077,0.07963 0.02077,0.11425c0,0.05539 -0.02077,0.10386 -0.06232,0.1454c-0.04154,0.04154 -0.09001,0.06232 -0.1454,0.06232h-0.52969c-0.08309,0 -0.1454,-0.02077 -0.18695,-0.06232c-0.03462,-0.04154 -0.05885,-0.07963 -0.0727,-0.11425l-0.57123,-1.47482h-3.40662l-0.57123,1.47482c-0.00692,0.03462 -0.03116,0.0727 -0.0727,0.11425c-0.04154,0.04154 -0.10386,0.06232 -0.18695,0.06232zM231.26615,154.8735h2.80423l-1.40211,-3.68704zM239.66041,157.52193c-0.58162,0 -1.08361,-0.10386 -1.50597,-0.31158c-0.41544,-0.20772 -0.73741,-0.52276 -0.9659,-0.94513c-0.22157,-0.42929 -0.33235,-0.97975 -0.33235,-1.65138v-4.21673c0,-0.07616 0.02077,-0.13502 0.06232,-0.17656c0.04154,-0.04847 0.1004,-0.0727 0.17656,-0.0727h0.52969c0.07616,0 0.13502,0.02423 0.17656,0.0727c0.04847,0.04154 0.0727,0.1004 0.0727,0.17656v4.2375c0,0.67855 0.15925,1.18055 0.47776,1.50597c0.3185,0.32543 0.75472,0.48814 1.30864,0.48814c0.547,0 0.97975,-0.16271 1.29825,-0.48814c0.32543,-0.32543 0.48814,-0.82742 0.48814,-1.50597v-4.2375c0,-0.07616 0.02077,-0.13502 0.06232,-0.17656c0.04847,-0.04847 0.10732,-0.0727 0.17656,-0.0727h0.54007c0.06924,0 0.12463,0.02423 0.16618,0.0727c0.04847,0.04154 0.0727,0.1004 0.0727,0.17656v4.21673c0,0.67163 -0.11425,1.22209 -0.34274,1.65138c-0.22157,0.42237 -0.54007,0.73741 -0.95551,0.94513c-0.41544,0.20772 -0.91743,0.31158 -1.50597,0.31158zM246.83896,157.52193c-0.60931,0 -1.12862,-0.11425 -1.5579,-0.34274c-0.42237,-0.22849 -0.74779,-0.55046 -0.97629,-0.9659c-0.22157,-0.41544 -0.3462,-0.90358 -0.3739,-1.46443c-0.00692,-0.30466 -0.01039,-0.62662 -0.01039,-0.9659c0,-0.3462 0.00346,-0.67509 0.01039,-0.98667c0.0277,-0.56085 0.15233,-1.04553 0.3739,-1.45404c0.22849,-0.40852 0.55738,-0.72702 0.98667,-0.95551c0.42929,-0.22849 0.94513,-0.34274 1.54752,-0.34274c0.49161,0 0.91743,0.06924 1.27748,0.20772c0.36005,0.13848 0.65432,0.31504 0.88281,0.52969c0.23542,0.20772 0.40852,0.42583 0.5193,0.65432c0.11771,0.22849 0.18002,0.42929 0.18695,0.60239c0.00692,0.06232 -0.01039,0.11425 -0.05193,0.15579c-0.04154,0.03462 -0.09694,0.05193 -0.16618,0.05193h-0.61278c-0.06924,0 -0.12117,-0.01385 -0.15579,-0.04154c-0.0277,-0.0277 -0.05539,-0.07616 -0.08309,-0.1454c-0.06232,-0.18002 -0.16618,-0.35659 -0.31158,-0.52969c-0.13848,-0.1731 -0.32889,-0.31504 -0.57123,-0.42583c-0.23542,-0.11771 -0.54007,-0.17656 -0.91397,-0.17656c-0.547,0 -0.99013,0.14887 -1.32941,0.4466c-0.33235,0.29773 -0.51238,0.78934 -0.54007,1.47482c-0.02077,0.61624 -0.02077,1.23248 0,1.84871c0.0277,0.6924 0.21118,1.19093 0.55046,1.49559c0.33928,0.29773 0.78241,0.4466 1.32941,0.4466c0.36697,0 0.6924,-0.06578 0.97629,-0.19733c0.29081,-0.13848 0.5193,-0.34966 0.68548,-0.63355c0.16618,-0.28388 0.24926,-0.64393 0.24926,-1.08015v-0.43621h-1.5579c-0.06924,0 -0.12809,-0.02077 -0.17656,-0.06232c-0.04154,-0.04847 -0.06232,-0.11078 -0.06232,-0.18695v-0.33235c0,-0.07616 0.02077,-0.13502 0.06232,-0.17656c0.04847,-0.04847 0.10732,-0.0727 0.17656,-0.0727h2.34724c0.07616,0 0.13502,0.02423 0.17656,0.0727c0.04154,0.04154 0.06232,0.1004 0.06232,0.17656v0.99706c0,0.56777 -0.11771,1.06284 -0.35312,1.4852c-0.22849,0.42237 -0.56431,0.75126 -1.00744,0.98667c-0.44314,0.22849 -0.97282,0.34274 -1.58906,0.34274z" fill="#ffffff"/><path d="M239.90732,198.68523c-2.29877,0 -4.25135,-0.45699 -5.85772,-1.37096c-1.60637,-0.94167 -2.83885,-2.16029 -3.69743,-3.65588c-0.83088,-1.52328 -1.24632,-3.1712 -1.24632,-4.94375c0,-0.83088 0.09694,-1.62022 0.29081,-2.36801c0.22157,-0.77549 0.48468,-1.49559 0.78934,-2.16029c0.33235,-0.6924 0.65086,-1.30172 0.95551,-1.82794c0.33235,-0.55392 0.62316,-0.99706 0.87243,-1.32941l7.89338,-11.00919c0.13848,-0.13848 0.30466,-0.30466 0.49853,-0.49853c0.19387,-0.22157 0.48468,-0.33235 0.87243,-0.33235h2.20184c0.24926,0 0.44314,0.09694 0.58162,0.29081c0.16618,0.16618 0.24926,0.3739 0.24926,0.62316c0,0.11078 -0.01385,0.22157 -0.04154,0.33235c-0.0277,0.08309 -0.06924,0.15233 -0.12463,0.20772l-6.06544,8.475c0.33235,-0.11078 0.70625,-0.18002 1.12169,-0.20772c0.44314,-0.05539 0.85858,-0.08309 1.24632,-0.08309c1.52328,0.0277 2.90809,0.30466 4.15441,0.83088c1.24632,0.52623 2.31262,1.24632 3.1989,2.16029c0.91397,0.88627 1.60637,1.92488 2.07721,3.11581c0.47083,1.16324 0.70625,2.40956 0.70625,3.73897c0,1.74485 -0.41544,3.37892 -1.24632,4.90221c-0.83088,1.52328 -2.04951,2.75576 -3.65588,3.69743c-1.57868,0.94167 -3.50355,1.4125 -5.77463,1.4125zM239.86578,195.15398c1.16324,0 2.24338,-0.24926 3.24044,-0.74779c0.99706,-0.49853 1.80024,-1.21863 2.40956,-2.16029c0.63701,-0.96936 0.95551,-2.14645 0.95551,-3.53125c0,-1.4125 -0.30466,-2.58958 -0.91397,-3.53125c-0.60931,-0.96936 -1.42635,-1.68946 -2.4511,-2.16029c-0.99706,-0.49853 -2.07721,-0.74779 -3.24044,-0.74779c-1.16324,0 -2.24338,0.24926 -3.24044,0.74779c-0.99706,0.47083 -1.81409,1.19093 -2.4511,2.16029c-0.60931,0.94167 -0.91397,2.11875 -0.91397,3.53125c0,1.3848 0.30466,2.56189 0.91397,3.53125c0.63701,0.94167 1.45404,1.66176 2.4511,2.16029c0.99706,0.49853 2.07721,0.74779 3.24044,0.74779z" fill="#000000"/></g></g></svg>