<svg version="1.1" xmlns="http://www.w3.org/2000/svg" xmlns:xlink="http://www.w3.org/1999/xlink" width="551.74249" height="424.86769" viewBox="0,0,551.74249,424.86769"><defs><linearGradient x1="240.1436" y1="244.92782" x2="240.1436" y2="274" gradientUnits="userSpaceOnUse" id="color-1"><stop offset="0" stop-color="#000000"/><stop offset="1" stop-color="#616161"/></linearGradient></defs><g transform="translate(32.75,32.36769)"><g data-paper-data="{&quot;isPaintingLayer&quot;:true}" fill-rule="nonzero" stroke-linejoin="miter" stroke-miterlimit="10" stroke-dasharray="" stroke-dashoffset="0" style="mix-blend-mode: normal"><path d="M-32.75,392.5v-5h541v5z" fill-opacity="0.45968" fill="#000000" stroke="none" stroke-width="0" stroke-linecap="butt"/><path d="M225.17109,274l14.97251,-29.07218l14.97251,29.07218z" fill="url(#color-1)" stroke="#fffee0" stroke-width="2" stroke-linecap="butt"/><path d="M-4,364.5v-88.5h488.5v88.5z" fill="#75baff" stroke="none" stroke-width="0" stroke-linecap="butt"/><path d="M5,356.92683v-74.92683h72v74.92683z" fill="#42a0ff" stroke="none" stroke-width="0" stroke-linecap="butt"/><path d="M85,356.96342v-74.92683h72v74.92683z" fill="#42a0ff" stroke="none" stroke-width="0" stroke-linecap="butt"/><path d="M164.5,357.42683v-74.92683h72v74.92683z" fill="#42a0ff" stroke="none" stroke-width="0" stroke-linecap="butt"/><path d="M244.5,357.46342v-74.92683h72v74.92683z" fill="#42a0ff" stroke="none" stroke-width="0" stroke-linecap="butt"/><path d="M326,357.42683v-74.92683h72v74.92683z" fill="#42a0ff" stroke="none" stroke-width="0" stroke-linecap="butt"/><path d="M406,357.46342v-74.92683h72v74.92683z" fill="#42a0ff" stroke="none" stroke-width="0" stroke-linecap="butt"/><path d="M0.08033,275.3523h482.32733" fill="none" stroke="#ffffff" stroke-width="2" stroke-linecap="round"/><path d="M-22.00751,-27.36769v-5h541v5z" fill-opacity="0.45968" fill="#000000" stroke="none" stroke-width="0" stroke-linecap="butt"/></g></g></svg>